<svg width="250" height="401" viewBox="0 0 250 401" fill="none" xmlns="http://www.w3.org/2000/svg">
<path d="M228.334 261.328C225.977 235.336 213.826 200.212 177.419 191.104L162.805 187L79.8323 191.104L77.0037 192.928C77.0037 192.928 56.2605 197.488 50.1319 218.008C44.0032 238.528 42.5889 277.288 42.5889 277.288C38.3459 300.544 19.2353 391.03 18.0742 397.861C26.5477 402.266 181.419 398.626 193.448 397.861H222.111H228.334C238.706 381.256 234.522 355.26 232.577 316.96C232.145 301.542 230.691 287.32 228.334 261.328Z" fill="#F5DFC0" stroke="black"/>
<path d="M179.7 192C177.464 191.875 145.51 224.972 88.1997 204.5C95.3199 212.928 128.195 215.788 150.607 213.292C168.141 211.34 181.936 192.125 179.7 192Z" fill="#E7CAAC"/>
<path d="M42.5 219C54.5002 199 72.4998 191 72.4998 191L85.2458 199.695L32.278 346.695C29.5 332.5 31.2005 300.295 35 287C38.7995 273.705 30.4998 239 42.5 219Z" fill="#F5DFC0"/>
<path d="M16.7582 399C11.3416 377.737 36.937 313.073 30.7492 339.064C24.5614 365.056 207.438 371.092 202.771 342.725C198.104 314.358 217.359 360.901 215.923 399H16.7582Z" fill="white" stroke="black"/>
<path d="M40.9962 282.898C40.9791 268.654 38.2151 248.674 50.6801 225.112L192.129 227.681C208.123 258.5 201.153 270.913 201.153 278.19C218.619 344.536 228.116 345.82 201.153 352.669C149.145 368.506 43.1827 359.089 33.6861 345.82C24.1895 332.551 41.0133 297.142 40.9962 282.898Z" fill="#F5DFC0"/>
<path d="M56.4904 227.027C43.995 242.008 40.2373 265.514 40.9961 286.322C33.4988 312.433 29.188 328.698 31.6872 344.108C34.1863 359.517 179.633 372.787 214.12 344.108" stroke="black"/>
<path d="M76.5314 327C80.1311 323.91 84.7591 324.793 86.816 327C88.8729 329.207 72.9317 330.09 76.5314 327Z" fill="#D8BE9B"/>
<g filter="url(#filter0_f_675_2096)">
<ellipse cx="66" cy="256.5" rx="4" ry="2.5" fill="#D8BE9B"/>
</g>
<g filter="url(#filter1_f_675_2096)">
<ellipse cx="128" cy="259" rx="4" ry="3" fill="#D8BE9B"/>
</g>
<path d="M171 367.462C171 365.209 172.935 359.352 172.935 359.352L181.645 358L186 387.288C186 387.288 183.581 389.991 178.258 392.695C178.119 392.765 177.988 392.833 177.864 392.898C175.143 394.325 175.961 394.409 177.864 392.898C179.196 391.84 181.06 389.999 182.613 387.288C186.484 380.529 177.774 389.991 178.258 387.288C178.742 384.584 177.775 391.793 181.645 378.727C185.516 365.66 176.806 374.221 174.387 375.122C171.968 376.023 178.258 372.419 179.226 365.66C180.193 358.901 171 369.715 171 367.462Z" fill="#D9D9D9"/>
<path d="M178.603 349.194C178.708 349.355 178.658 349.522 178.466 349.695C179.202 351.393 180.2 353.939 180.2 355.736C180.2 359.483 127.332 362.311 105.577 359.965C79.4274 361.756 173.647 354.028 178.466 349.695C177.667 347.853 177.177 347.008 178.603 349.194Z" fill="#E7CAAC"/>
<path d="M16.7844 398.591C15.512 387.331 19.2088 361.354 30.6997 335.5C23.8487 351.738 33.0551 359.887 33.0551 363.042C33.0551 366.197 27.3827 352.676 26.437 359.887C25.4912 367.099 23.6006 373.859 26.437 376.113C29.2733 378.366 33.0551 381.972 33.0551 381.972C33.0551 381.972 26.603 378.504 23.6006 380.62C19.4016 383.579 40.6186 390.986 33.0551 389.634C25.4915 388.282 22.1825 384.225 22.1825 387.831C22.1825 391.437 38.7277 397.746 26.437 396.845C19.1502 396.311 17.1804 397.519 16.7844 398.591C16.8408 399.09 16.9069 399.56 16.9825 400C16.9825 400 16.5124 399.328 16.7844 398.591Z" fill="#E6E6E6"/>
<path d="M215.726 398C217.592 382.545 209.471 347.435 204.997 338C208.641 354.331 211.061 361.636 209.195 365.273C207.33 368.909 203.17 371.182 202.198 373.455C201.226 375.727 208.729 370.273 211.061 373.455C213.394 376.636 209.195 378.909 209.195 378.909C209.195 378.909 203.131 379.364 199.866 383C196.601 386.636 209.195 380.727 209.195 385.273C209.195 389.818 207.796 388 202.198 392.091C196.601 396.182 206.397 393 203.598 394.591C200.799 396.182 198 398 198 398H215.726Z" fill="#D1D1D1"/>
<path d="M48 375C73.9009 382.408 111.234 384.378 145 381.146C120.981 390.804 77.1992 384.631 48 375Z" fill="#D9D9D9"/>
<path d="M169.658 286.984C161.04 271.718 159.927 261.114 161.741 240.312L214.831 224C225.46 261.563 230.691 282.216 230.665 320.062C230.665 361.75 239.127 383.717 226.2 399H190.7C183.004 385.735 187.066 376.25 180.835 354.047C173.086 326.435 165.24 311.585 169.658 286.984Z" fill="#F5DFC0"/>
<path d="M159.302 243C158.226 263.505 159.783 280.64 167.947 291.07C161.704 323.721 175.631 334.151 181.395 356.826C184.622 369.523 184.276 391.744 191 399" stroke="black"/>
<path d="M33.2451 130.611C27.677 115.74 42.2399 110.02 48.2364 122.031L51.6628 139.762C51.6628 146.626 50.3779 151.773 42.6681 151.773C42.6681 151.773 36.3384 152.163 33.2451 130.611Z" fill="#F5DFC0" stroke="black"/>
<path d="M36.8311 136.197C28.932 113.78 43.472 116.522 43.4945 126.128C43.5171 135.734 39.5763 130.714 45.1184 140.982" stroke="black"/>
<mask id="path-19-inside-1_675_2096" fill="white">
<path d="M127.542 19.8973C177.702 19.8973 218.366 54.1615 218.366 96.4286C218.366 111.151 213.43 124.901 204.88 136.572C205.128 138.712 205.257 140.88 205.257 143.072C205.257 180.587 168.157 211 122.393 211C76.6276 211 39.5273 180.587 39.5273 143.072C39.5274 136.472 40.6773 130.091 42.8193 124.057C38.8805 115.487 36.7188 106.171 36.7188 96.4286C36.719 54.1616 77.3818 19.8975 127.542 19.8973Z"/>
</mask>
<path d="M127.542 19.8973C177.702 19.8973 218.366 54.1615 218.366 96.4286C218.366 111.151 213.43 124.901 204.88 136.572C205.128 138.712 205.257 140.88 205.257 143.072C205.257 180.587 168.157 211 122.393 211C76.6276 211 39.5273 180.587 39.5273 143.072C39.5274 136.472 40.6773 130.091 42.8193 124.057C38.8805 115.487 36.7188 106.171 36.7188 96.4286C36.719 54.1616 77.3818 19.8975 127.542 19.8973Z" fill="#F5DFC0"/>
<path d="M127.542 19.8973V18.8973V19.8973ZM218.366 96.4286H219.366V96.4286L218.366 96.4286ZM204.88 136.572L204.073 135.981L203.841 136.298L203.887 136.687L204.88 136.572ZM205.257 143.072H206.257V143.072L205.257 143.072ZM122.393 211V212V211ZM39.5273 143.072L38.5273 143.072V143.072H39.5273ZM42.8193 124.057L43.7617 124.392L43.8977 124.009L43.728 123.64L42.8193 124.057ZM36.7188 96.4286L35.7188 96.4286V96.4286H36.7188ZM127.542 19.8973V20.8973C177.317 20.8973 217.366 54.8674 217.366 96.4286L218.366 96.4286L219.366 96.4286C219.366 53.4556 178.087 18.8973 127.542 18.8973V19.8973ZM218.366 96.4286H217.366C217.366 110.92 212.509 124.467 204.073 135.981L204.88 136.572L205.687 137.163C214.351 125.336 219.366 111.382 219.366 96.4286H218.366ZM204.88 136.572L203.887 136.687C204.13 138.789 204.257 140.919 204.257 143.072L205.257 143.072L206.257 143.072C206.257 140.84 206.125 138.634 205.873 136.457L204.88 136.572ZM205.257 143.072H204.257C204.257 179.858 167.8 210 122.393 210V211V212C168.515 212 206.257 181.316 206.257 143.072H205.257ZM122.393 211V210C76.9849 210 40.5273 179.858 40.5273 143.072H39.5273H38.5273C38.5273 181.316 76.2704 212 122.393 212V211ZM39.5273 143.072L40.5273 143.072C40.5274 136.589 41.6566 130.322 43.7617 124.392L42.8193 124.057L41.877 123.723C39.6979 129.861 38.5274 136.354 38.5273 143.072L39.5273 143.072ZM42.8193 124.057L43.728 123.64C39.8467 115.195 37.7188 106.02 37.7188 96.4286H36.7188H35.7188C35.7188 106.321 37.9144 115.78 41.9107 124.475L42.8193 124.057ZM36.7188 96.4286L37.7188 96.4286C37.719 54.8675 77.7668 20.8975 127.542 20.8973V19.8973V18.8973C76.9968 18.8975 35.719 53.4557 35.7188 96.4286L36.7188 96.4286Z" fill="black" mask="url(#path-19-inside-1_675_2096)"/>
<path d="M102.693 149.874C107.051 147.774 109.681 147.545 113.929 149.874" stroke="black" stroke-width="0.5"/>
<path d="M203.816 54.8641C174.849 8.14443 88.1557 8.20877 57.3179 48.427C72.7703 28.3568 132.66 32.7512 104.097 48.427C124.017 45.452 152.786 48.5242 167.767 42.6371C182.748 36.7501 232.782 101.584 203.816 54.8641Z" fill="#D5BC7E" stroke="#311F15"/>
<path d="M172.009 122.058C150.176 76.1448 127.533 124.475 128.469 126.408C129.406 128.341 139.209 131.398 150.913 129.948C162.617 128.498 167.973 127.229 172.009 122.058Z" fill="#EBEBEB"/>
<path d="M53.5356 120.456C73.1984 73.8456 100.169 123.348 99.3859 124.841C98.603 126.334 90.3022 129.337 76.4755 128.64C62.6488 127.944 57.7853 125.669 53.5356 120.456Z" fill="#EBEBEB"/>
<path d="M172.449 121.141C168.259 95.736 130.933 97.5251 127.505 125.435C127.505 125.435 129.79 131.876 151.12 130.087C172.449 128.298 172.449 121.141 172.449 121.141Z" stroke="black"/>
<path d="M219.949 133.849C227.603 119.872 208.393 112.821 206.338 123.335C204.284 133.849 205.22 137.283 203.347 138.641C201.799 139.074 199.938 152.5 207.573 153.537C207.573 153.537 213.785 154.775 219.949 133.849Z" fill="#F5DFC0"/>
<path d="M203.347 138.641C201.799 139.074 199.938 152.5 207.573 153.537C207.573 153.537 213.785 154.775 219.949 133.849C227.603 119.872 208.393 112.821 206.338 123.335C204.284 133.849 205.22 137.283 203.347 138.641ZM203.347 138.641C204.896 138.209 201.475 140 203.347 138.641Z" stroke="black"/>
<path d="M128.441 125.872C133.799 97.6359 164.795 95.4914 172.449 121.226" stroke="black" stroke-width="3"/>
<path d="M177.13 118.886C174.418 119.751 172.696 118.956 170.576 115.004L171.669 123.155L177.13 118.886Z" fill="black" stroke="black"/>
<path d="M52.599 119.381C56.9633 93.9755 95.8446 95.7646 99.4153 123.675C99.4153 123.675 97.0348 130.116 74.8169 128.327C52.599 126.537 52.599 119.381 52.599 119.381Z" stroke="black"/>
<path d="M98.479 124.112C92.8936 95.8754 60.5782 93.7309 52.5991 119.465" stroke="black" stroke-width="3"/>
<path d="M58.6852 115.508C58.6852 122.761 65.1997 127.736 71.1997 127.736C78.9565 127.736 85.3705 123.666 85.3705 116.413C85.7478 108.978 77.8799 102.828 70.3893 103.734C62.8987 104.639 58.6852 108.255 58.6852 115.508Z" fill="#A1B5C5"/>
<ellipse cx="8.42692" cy="9.057" rx="8.42692" ry="9.057" transform="matrix(-1 0 0 1 78.8162 105.998)" fill="black"/>
<path d="M47.9176 117.125C51.0172 117.99 52.985 117.196 55.4082 113.244L54.1598 121.395L47.9176 117.125Z" fill="black" stroke="black"/>
<ellipse cx="2.26368" cy="3.01824" rx="2.26368" ry="3.01824" transform="matrix(-0.742447 0.669904 0.742447 0.669904 73.5239 107.167)" fill="#EBEBEB"/>
<path d="M134.996 117.359C134.996 124.612 139.879 130.039 147.636 130.039C155.393 130.039 161.681 125.518 161.681 118.265C162.058 110.829 154.19 104.679 146.7 105.585C139.209 106.491 134.996 112.736 134.996 117.359Z" fill="#A1B5C5"/>
<ellipse cx="8.42692" cy="9.057" rx="8.42692" ry="9.057" transform="matrix(-1 0 0 1 155.127 107.849)" fill="black"/>
<ellipse cx="2.26368" cy="3.01824" rx="2.26368" ry="3.01824" transform="matrix(-0.742447 0.669904 0.742447 0.669904 149.834 109.018)" fill="#EBEBEB"/>
<path d="M147.673 82.9415C147.871 82.8059 148.179 82.7774 148.423 82.7987C148.499 82.805 148.506 82.9421 148.561 82.9523C148.668 82.9717 148.736 82.8815 148.847 82.9108C148.884 82.9211 148.909 83.1332 148.946 83.1395C149.149 83.1726 149.296 83.0703 149.485 83.0591C150.411 83.0047 151.297 82.8374 152.207 82.7147C152.513 82.6726 152.916 82.7757 153.202 82.6298C153.235 82.6125 153.176 82.4368 153.179 82.4205C153.238 82.1705 153.279 82.5419 153.358 82.5759C153.679 82.7083 153.99 82.6656 154.244 82.548C154.352 82.4975 154.174 82.1573 154.325 82.3393C154.335 82.3516 154.34 82.5494 154.375 82.5645C154.452 82.5986 154.583 82.541 154.641 82.5472C154.753 82.5601 154.771 82.5553 154.872 82.5417C155.011 82.5247 155.189 82.5967 155.33 82.5324C155.36 82.5181 155.291 82.3252 155.336 82.2844C155.383 82.2435 155.518 82.2428 155.571 82.2838C155.622 82.3248 155.623 82.4837 155.635 82.5185C155.739 82.8126 155.843 82.3747 155.862 82.362C156.212 82.1423 156.546 82.3523 156.893 82.326C157.156 82.3057 157.432 82.2111 157.683 82.2128C157.985 82.2157 158.24 82.3203 158.529 82.3026C158.56 82.301 158.525 82.065 158.563 82.0626C158.965 82.0374 159.37 82.0776 159.757 82.263C159.796 82.2818 159.731 82.485 159.768 82.5161C160.002 82.7018 160.326 83.1431 160.568 82.2636C160.73 82.3167 160.927 82.378 161.048 82.5783C161.125 82.7073 161.003 82.9178 161.131 82.8388C161.159 82.8213 161.154 82.6209 161.196 82.6096C161.371 82.5621 161.54 82.6544 161.72 82.5825C161.757 82.5674 161.779 82.3916 161.794 82.3619C161.919 82.1219 161.975 82.5664 161.997 82.6022C162.169 82.8709 162.342 82.8141 162.542 82.8646C162.589 82.8765 162.586 82.6321 162.632 82.6353C162.876 82.6555 163.111 82.7349 163.31 82.8976C163.354 82.9343 163.255 83.1174 163.273 83.1449C163.353 83.2637 163.478 82.9015 163.557 83.0098C163.574 83.0322 163.515 83.1955 163.513 83.2149C163.491 83.5194 163.661 83.1276 163.679 83.1233C163.913 83.0586 163.906 83.5191 164.108 83.5185C164.133 83.5182 164.15 83.2931 164.216 83.305C164.658 83.3847 165.075 83.6011 165.413 83.9261C165.466 83.9763 165.359 84.1111 165.356 84.1316C165.3 84.4514 165.501 84.0742 165.528 84.0679C165.736 84.0286 165.736 84.4166 166.046 83.9991C166.646 84.4525 167.431 84.5273 167.842 85.2741C167.848 85.283 167.732 85.4584 167.743 85.4755C167.873 85.6828 167.995 85.3783 168.32 85.1048C168.402 85.0366 168.259 85.5092 168.25 85.5444C168.215 85.6747 168.027 85.9256 168.025 85.9533C168.009 86.1729 168.515 85.2747 168.634 85.3442C168.636 85.3479 168.525 85.5021 168.525 85.5241C168.525 85.5931 168.594 85.5462 168.59 85.6201C168.582 85.7913 168.344 86.2326 168.594 86.0434C168.627 86.0188 168.911 85.5072 168.998 85.5929C169.032 85.6272 169.217 85.7299 169.247 85.7939C169.277 85.8574 169.142 85.9951 169.141 86.0043C169.142 86.2994 169.036 86.3546 168.903 86.7075C168.771 87.0588 169.226 86.3095 169.306 86.2448C169.386 86.1804 169.373 86.4166 169.358 86.4921C169.343 86.5676 169.247 86.6484 169.246 86.6961C169.242 87.009 169.547 86.3729 169.67 86.2876C169.96 86.0841 169.683 86.6809 169.744 86.7986C169.761 86.8305 169.822 86.6934 169.853 86.6978C169.976 86.7173 169.917 86.9226 170.129 86.8427C170.163 86.8295 170.473 86.569 170.365 86.8434C170.349 86.8828 170.234 86.9997 170.253 87.0573C170.281 87.1435 170.367 87.248 170.463 87.2498C170.533 87.251 170.634 86.9951 170.646 87.1053C170.65 87.1537 170.512 87.2467 170.526 87.3268C170.541 87.4066 170.666 87.4886 170.715 87.5181C170.764 87.5474 170.859 87.3656 170.87 87.3573C170.939 87.3107 171.086 87.2979 171.094 87.304C171.511 87.5809 171.671 88.1352 172.111 88.3421C172.146 88.359 172.26 88.1765 172.266 88.1774C172.424 88.1889 171.989 88.5679 171.941 88.7724C172.202 88.4265 172.194 88.5209 172.295 88.5417C172.344 88.5514 172.431 88.4059 172.445 88.3951C172.657 88.2388 172.486 88.5235 172.452 88.5831C172.33 88.8026 172.551 88.606 172.47 88.7531C172.389 88.8989 172.182 89.0442 172.252 89.0976C172.369 88.9935 172.575 88.6384 172.669 88.6306C173.027 88.6021 173.172 89.14 173.305 89.2979C173.437 89.4541 173.505 89.4758 173.558 89.5959C173.653 89.8133 173.792 89.5354 173.984 89.5205C174.172 89.5029 173.635 90.0161 173.544 90.1476C173.452 90.2787 173.575 90.1691 173.534 90.2494C173.493 90.3297 173.386 90.3787 173.403 90.438C173.42 90.497 173.716 90.3816 173.841 90.2704C174.106 90.0343 174.302 89.7144 174.322 89.9065C174.323 89.9177 174.174 90.0448 174.184 90.0803C174.269 90.358 174.456 90.5405 174.553 90.8099C174.566 90.8471 174.396 90.9851 174.402 91.0085C174.463 91.2529 174.657 90.9353 175.015 90.7147C174.629 91.0926 174.449 91.3757 174.559 91.483C174.625 91.5478 174.775 91.3651 174.932 91.2856C174.98 91.2616 174.917 91.4247 175.002 91.3524C175.28 91.1165 175.512 90.7783 175.519 91.0076C175.519 91.0181 175.367 91.1463 175.376 91.172C175.438 91.3387 175.713 91.0776 175.871 91.1655C175.995 91.2344 176.011 91.5712 176.098 91.7084C175.674 92.1421 175.871 92.14 176.205 91.8825C176.263 91.9635 176.356 92.0216 176.384 92.13C176.393 92.1672 176.254 92.2768 176.244 92.2932C176.08 92.5494 176.397 92.2907 176.423 92.2946C176.698 92.3489 176.614 92.7018 176.987 92.6503C177.001 92.6483 177.309 92.3614 177.134 92.6209C177.121 92.6385 176.932 92.72 176.997 92.8063C177.062 92.8931 177.041 93.1946 177.279 93.1588C177.337 93.1506 177.643 92.9752 177.501 93.2122C177.481 93.2443 177.388 93.321 177.349 93.3776C177.226 93.5582 177.548 93.2791 177.324 93.5679C177.101 93.8568 176.98 94.1213 177.26 94.0533C177.269 94.0515 177.536 93.8426 177.564 93.8797C177.609 93.9389 177.63 94.0632 177.685 94.1177C177.712 94.1437 177.847 93.9819 177.854 93.9839C178.11 94.0819 178.106 94.3498 178.221 94.5905C178.242 94.6354 178.545 94.5404 178.443 94.7626C178.332 95.0059 177.508 95.6307 177.846 95.6342C177.982 95.6359 179.022 94.8381 178.642 95.4237C178.989 95.5536 178.955 96.0288 179.346 96.1048C179.364 96.1086 179.665 95.899 179.685 95.9282C179.714 95.972 179.606 96.1072 179.623 96.1422C179.688 96.2916 179.892 96.3005 179.976 96.4284C180.008 96.4767 179.863 96.579 179.902 96.6367C179.94 96.6942 180.144 96.5743 180.122 96.7185C180.105 96.828 179.798 97.1952 179.819 97.3019C180.171 96.9947 180.206 97.0493 180.375 97.0541C180.408 97.0549 180.514 96.9294 180.536 96.9243C180.627 96.9009 180.552 97.0198 180.648 96.9901C180.671 96.983 180.791 96.8779 180.816 96.8662C181.04 96.7643 180.84 97.0814 180.806 97.1371C180.675 97.3477 180.853 97.236 180.819 97.3392C180.785 97.4422 180.643 97.4572 180.643 97.543C180.642 97.7205 180.775 97.8331 180.859 97.9412C180.893 97.9836 181.03 97.8158 181.038 97.8186C181.153 97.8686 181.057 98.1037 181.42 97.8737C180.642 98.6514 181.545 97.8559 181.486 98.1236C181.481 98.1449 181.098 98.4961 181.009 98.5086C180.919 98.521 180.993 98.3585 180.858 98.3847C180.827 98.3906 180.399 98.6394 180.369 98.6493C180.131 98.7262 180.707 98.2076 180.736 98.1757C181.044 97.8297 180.575 98.0888 180.529 98.0906C180.315 98.0982 180.323 97.941 180.16 97.9352C180.055 97.9308 179.668 98.2604 179.643 98.2075C179.559 98.0341 180.041 97.5102 179.459 97.7792C179.335 97.8364 178.945 98.2335 179.179 97.8387C179.194 97.8139 179.423 97.4706 179.194 97.5933C179.165 97.6088 179.044 97.7165 179.028 97.7181C178.918 97.7267 178.984 97.6079 178.89 97.595C178.796 97.5821 178.67 97.5789 178.656 97.4813C178.647 97.4226 178.83 97.1743 178.869 97.1074C178.982 96.9156 178.675 97.0956 178.839 96.8928C179.003 96.6887 179.35 96.4864 179.401 96.2931C179.086 96.5715 178.759 96.8536 178.441 97.1319C178.294 96.9462 178.239 96.6838 178.058 96.5129C178.035 96.4924 177.889 96.6677 177.861 96.6497C177.742 96.573 177.78 96.3764 177.638 96.3165C177.527 96.2707 177.271 96.3462 177.15 96.305C177.456 95.9274 177.223 95.9164 177.173 95.7988C177.155 95.7577 177.251 95.672 177.261 95.6215C177.297 95.433 177.023 95.7625 176.953 95.7858C176.654 95.8848 177.35 95.2197 177.219 95.1163C177.212 95.1105 176.768 95.3867 176.735 95.3983C176.521 95.4753 176.854 95.2645 176.842 95.1969C176.82 95.0735 176.859 94.9363 176.666 94.9521C176.609 94.9571 176.32 95.1171 176.451 94.8966C176.468 94.8677 176.594 94.7539 176.596 94.7418C176.624 94.5324 176.238 94.8994 176.057 94.9713C175.876 95.0432 176.061 94.7058 176.12 94.6152C176.275 94.3806 176.237 94.5671 176.259 94.5508C176.516 94.356 176.418 94.3341 176.393 94.2695C176.761 93.8989 176.676 93.8564 176.365 94.204C176.331 94.242 176.401 94.2436 176.393 94.2695C175.986 94.5862 175.872 94.563 176.139 94.1515C176.264 93.9582 176.486 93.8111 176.307 93.7657C176.226 93.7441 175.989 94.0162 175.874 94.0396C175.613 94.0933 175.72 93.7245 175.578 93.6571C175.527 93.6328 175.424 93.8087 175.385 93.7969C175.278 93.7663 175.323 93.6017 175.201 93.5874C175.19 93.5863 175.06 93.7474 175.036 93.7283C174.859 93.5857 174.814 93.356 174.648 93.1898C174.565 93.1064 174.337 93.0433 174.267 92.9442C174.144 92.773 174.167 92.3815 173.99 92.315C173.875 92.2712 173.752 92.4385 173.621 92.508C173.368 92.6432 173.581 92.1759 173.616 92.1051C173.617 92.1031 173.721 92.1329 173.755 92.0204C173.883 91.8385 173.617 92.1053 173.616 92.1051C173.638 92.0589 173.522 91.888 173.466 91.8903C173.436 91.8916 173.312 92.0435 173.299 92.0415C172.985 91.9901 172.758 91.852 172.624 91.6098C172.623 91.6038 172.774 91.4454 172.77 91.4333C172.721 91.2594 172.472 91.3959 172.274 91.4331C172.072 91.4672 172.032 91.3616 172.22 91.0287C172.116 91.0011 172.12 90.7858 172.125 90.6578C172.131 90.5298 171.846 90.8464 171.836 90.8483C171.498 90.9144 171.562 90.6501 171.418 90.4809C171.352 90.4016 171.143 90.31 171.025 90.2743C170.931 90.2459 170.951 90.134 170.846 90.1314C170.832 90.131 170.722 90.2857 170.715 90.2892C170.501 90.4081 170.825 90.0748 170.862 89.9983C170.996 89.7202 171.061 89.5673 170.88 89.6043C170.838 89.6124 170.363 90.0868 170.301 90.0877C170.221 90.0876 170.387 89.9142 170.299 89.919C170.291 89.9192 170.202 90.0361 170.174 90.006C170.042 89.8682 169.92 89.6666 169.751 89.5588C169.729 89.5435 169.617 89.7515 169.582 89.7327C169.417 89.6443 169.263 89.5198 169.184 89.3284C169.165 89.2807 169.283 89.1638 169.304 89.1189C169.429 88.8467 169.111 89.1442 169.095 89.1428C168.705 89.1174 168.719 88.657 168.343 88.6265C168.321 88.6247 167.958 88.9332 168.12 88.5702C168.131 88.5462 168.299 88.1754 168.102 88.3754C168.09 88.388 168.01 88.5823 167.965 88.5281C167.92 88.4736 167.755 88.5321 167.8 88.2914C167.814 88.2157 167.969 87.8393 167.726 88.0641C167.709 88.0794 167.217 88.6246 167.439 88.1762C167.476 88.1025 167.758 87.6568 167.53 87.8342C167.486 87.8689 167.455 87.9876 167.373 88.0239C167.249 88.0809 167.232 87.9056 167.027 88.0577C166.991 88.0847 166.749 88.3572 166.836 88.0939C166.85 88.0526 166.954 87.9091 166.937 87.8767C166.859 87.7218 166.67 87.7497 166.603 87.573C166.578 87.5107 166.74 87.2745 166.729 87.1815C166.718 87.0883 166.657 86.9716 166.545 87.0588C166.432 87.1459 166.272 87.5752 166.18 87.5671C165.781 87.5326 165.593 87.1408 165.275 86.9495C165.229 86.9214 165.201 87.0873 165.128 87.057C164.856 86.9435 164.354 86.8956 164.244 86.4834C164.156 86.1524 164.471 86.0495 164.365 85.8876C164.312 85.8096 164.049 86.2743 164.028 86.2838C163.806 86.3812 163.774 86.1215 163.599 86.1368C163.563 86.1403 163.524 86.3529 163.494 86.3537C163.394 86.3585 163.331 86.2371 163.241 86.2263C163.201 86.222 163.158 86.3798 163.127 86.3567C163.053 86.3035 163.001 86.2155 162.963 86.0443C162.96 86.0287 163.069 85.8495 163.008 85.8234C162.912 85.7821 162.821 85.5989 162.661 85.7165C162.613 85.752 162.514 86.1117 162.506 85.8428C162.504 85.7867 162.639 85.3587 162.452 85.7099C162.419 85.7677 162.147 86.237 162.158 85.8932C162.16 85.8026 162.197 85.4343 162.141 85.4802C162.133 85.4878 162.11 85.6882 162.07 85.699C161.932 85.7335 161.806 85.6837 161.667 85.7186C161.629 85.7284 161.637 85.9418 161.584 85.9501C161.437 85.9731 161.278 85.889 161.154 85.8016C161.109 85.7689 161.173 85.6057 161.172 85.5866C161.165 85.2766 161.06 85.6754 161.037 85.6958C160.893 85.8172 160.832 85.6126 160.712 85.6468C160.679 85.6558 160.673 85.8527 160.665 85.8691C160.578 86.029 160.674 85.6876 160.639 85.6436C160.541 85.5191 160.412 85.5185 160.294 85.53C160.25 85.5346 160.272 85.7655 160.234 85.7671C160.008 85.7808 159.781 85.7384 159.571 85.5985C159.531 85.5718 159.569 85.3992 159.563 85.3588C159.52 85.0759 159.408 85.4508 159.386 85.486C159.286 85.6463 159.259 85.4902 159.176 85.5154C158.775 85.6405 158.294 85.5365 157.91 85.4858C157.418 85.4204 157.009 85.2824 156.537 85.3731C156.507 85.3787 156.562 85.6069 156.536 85.6147C156.208 85.7048 155.863 85.6573 155.536 85.774C155.509 85.7832 155.582 85.9952 155.54 86.0172C155.455 86.064 155.338 86.0702 155.235 86.0159C155.184 85.9898 155.214 85.7932 155.163 85.7709C155.044 85.7187 154.929 85.7227 154.826 85.7768C154.783 85.8003 154.892 86.0098 154.833 86.023C154.431 86.1182 154.037 86.2382 153.56 86.0467C153.527 86.0335 153.4 85.5925 153.358 85.6924C153.382 85.8173 153.416 85.963 153.444 86.096C152.858 86.3057 152.221 86.3075 151.614 86.4539C151.588 86.4602 151.698 86.6813 151.649 86.6946C151.365 86.7716 151.099 86.9201 150.743 86.7764C150.708 86.7627 150.598 86.3497 150.531 86.4377C150.519 86.4536 150.407 86.548 150.401 86.647C150.401 86.6617 150.483 86.8447 150.444 86.8632C150.213 86.9668 149.937 87.0072 149.664 86.9684C149.619 86.9619 149.594 86.7467 149.562 86.7404C149.33 86.6976 149.167 86.9223 148.914 86.8042C148.745 86.7246 148.674 86.3611 148.489 86.0426C148.463 85.9977 148.38 86.0176 148.308 85.8202C148.125 85.3241 147.978 84.7631 147.779 84.2358C147.736 84.1221 147.668 84.2838 147.638 83.984C147.637 83.9638 147.686 83.8442 147.673 83.7433C147.665 83.6735 147.571 83.4798 147.571 83.3868C147.571 83.2939 147.66 83.4528 147.674 83.339C147.687 83.2239 147.588 83.0006 147.673 82.9415ZM172.145 90.0847C172.22 89.8813 171.731 90.4473 171.906 90.3606C171.915 90.3558 172.141 90.0948 172.145 90.0847ZM178.655 96.3034C178.831 96.0073 178.427 96.2838 178.286 96.5073C178.145 96.7303 178.601 96.3931 178.655 96.3034ZM179.507 96.8891C179.625 96.6302 178.823 97.3242 179.064 97.2722C179.078 97.2694 179.501 96.9042 179.507 96.8891ZM148.775 85.8374C148.771 85.8283 148.71 85.8385 148.712 85.8483C148.757 86.0836 148.878 86.0633 148.775 85.8374ZM180.379 97.4778C180.464 97.3568 180.273 97.3901 180.168 97.5408C180.083 97.6618 180.274 97.6284 180.379 97.4778ZM169.542 87.1028C169.548 87.0929 169.517 87.0605 169.483 87.1132C169.372 87.2831 169.453 87.269 169.542 87.1028ZM181.514 98.7681C181.376 98.5459 181.938 97.8559 182.047 98.1345C182.067 98.185 181.763 98.2328 181.746 98.3336C181.714 98.5174 182.183 98.2199 182.039 98.5045C182.012 98.5563 181.52 98.7819 181.513 98.7685C181.513 98.7684 181.514 98.7682 181.514 98.7681ZM172.691 89.3701C172.696 89.3615 172.656 89.316 172.649 89.3226C172.472 89.4838 172.551 89.5753 172.691 89.3701ZM167.601 85.3747C167.608 85.3545 167.495 85.2706 167.48 85.2849C167.232 85.5922 167.46 85.7621 167.601 85.3747ZM176.088 91.7217C176.303 91.5973 176.378 91.6313 176.205 91.8821C176.17 91.8251 176.126 91.7789 176.088 91.7217Z" fill="black"/>
<path d="M79.1428 81.773C78.942 81.6469 78.6372 81.6326 78.3965 81.6647C78.3211 81.6744 78.3196 81.8116 78.2661 81.8241C78.1625 81.8488 78.0905 81.7615 77.9829 81.7957C77.9469 81.8076 77.9294 82.0204 77.893 82.0283C77.6944 82.0702 77.5443 81.9744 77.3579 81.9712C76.4418 81.9565 75.5631 81.8241 74.6582 81.7307C74.3613 81.6999 73.9606 81.814 73.6754 81.6762C73.6419 81.6598 73.6967 81.4826 73.6928 81.4665C73.6292 81.2182 73.5966 81.5905 73.5191 81.6265C73.2125 81.7687 72.899 81.7324 72.6464 81.6204C72.5385 81.5722 72.7084 81.2285 72.5626 81.4136C72.5526 81.4261 72.5512 81.6239 72.5171 81.6397C72.44 81.6752 72.313 81.6207 72.2567 81.6281C72.1472 81.6433 72.1292 81.6387 72.0288 81.6268C71.891 81.6122 71.7161 81.6869 71.5759 81.6246C71.546 81.6107 71.6124 81.4169 71.5667 81.3768C71.5208 81.3366 71.3861 81.3374 71.3361 81.3793C71.2861 81.421 71.2869 81.5798 71.2748 81.6148C71.1763 81.9103 71.0717 81.4737 71.0518 81.4611C70.7064 81.2448 70.3733 81.4565 70.037 81.4312C69.7777 81.4113 69.5052 81.316 69.2583 81.3164C68.9659 81.3177 68.7102 81.4197 68.426 81.398C68.3959 81.396 68.4336 81.1605 68.3965 81.1576C68.0036 81.1267 67.6056 81.1586 67.2208 81.3338C67.1823 81.3516 67.2412 81.5563 67.2036 81.5865C66.9706 81.7659 66.6352 82.1969 66.4247 81.3095C66.2643 81.357 66.069 81.4108 65.9429 81.6061C65.8618 81.7319 65.9745 81.9471 65.8518 81.863C65.8241 81.8444 65.8367 81.6444 65.7964 81.6313C65.626 81.5767 65.4562 81.6614 65.2823 81.5812C65.2468 81.5644 65.2327 81.3877 65.2192 81.3574C65.1057 81.1118 65.0318 81.553 65.0087 81.5877C64.8259 81.8476 64.6594 81.7818 64.4609 81.8212C64.415 81.8305 64.4296 81.5868 64.3836 81.5874C64.1456 81.5938 63.9054 81.6602 63.7023 81.81C63.6573 81.8439 63.7442 82.0327 63.725 82.059C63.6407 82.1725 63.5376 81.8034 63.4541 81.9062C63.4366 81.9274 63.4858 82.0941 63.486 82.1136C63.4909 82.4186 63.3469 82.0169 63.3288 82.0114C63.1026 81.9319 63.08 82.392 62.8786 82.3781C62.8542 82.3761 62.8511 82.1506 62.7858 82.1579C62.3536 82.2049 61.9144 82.3939 61.5661 82.6896C61.5114 82.7354 61.6066 82.878 61.6088 82.8986C61.6423 83.2212 61.4705 82.8299 61.4447 82.8215C61.246 82.7651 61.212 83.1536 60.9353 82.7135C60.3139 83.1161 59.53 83.1254 59.0638 83.8334C59.0577 83.8419 59.1586 84.0262 59.1462 84.0423C58.998 84.2387 58.8993 83.9262 58.6014 83.6254C58.526 83.5502 58.6314 84.0319 58.6382 84.0677C58.6622 84.2 58.8283 84.4661 58.8285 84.4938C58.8275 84.713 58.3982 83.7758 58.2774 83.8336C58.2744 83.837 58.3727 84.0002 58.3709 84.022C58.3656 84.0903 58.3019 84.0374 58.3001 84.111C58.2965 84.2809 58.4943 84.7416 58.2601 84.5325C58.2299 84.5053 57.9901 83.9714 57.8948 84.0501C57.8576 84.0815 57.6617 84.17 57.628 84.2303C57.594 84.2905 57.7159 84.4396 57.7159 84.4487C57.6936 84.741 57.7934 84.8056 57.897 85.1676C58.0011 85.5279 57.6111 84.743 57.5373 84.6713C57.4635 84.6 57.4593 84.8351 57.4687 84.9112C57.4779 84.9874 57.5651 85.0764 57.5625 85.1238C57.5442 85.4338 57.2925 84.7752 57.178 84.679C56.9058 84.4521 57.1287 85.0712 57.0571 85.184C57.0375 85.2147 56.9882 85.0726 56.9564 85.0746C56.8309 85.0842 56.8711 85.2944 56.6705 85.1948C56.638 85.1785 56.3536 84.8912 56.4393 85.173C56.452 85.2135 56.5562 85.3402 56.5334 85.3954C56.4995 85.4779 56.4075 85.5729 56.314 85.5655C56.2448 85.5599 56.1647 85.2971 56.1453 85.4051C56.1369 85.4532 56.2673 85.5572 56.2449 85.6363C56.223 85.715 56.0894 85.7873 56.0369 85.813C55.9845 85.8384 55.9064 85.649 55.8954 85.6397C55.8305 85.5877 55.6833 85.5633 55.6749 85.5688C55.2448 85.804 55.0442 86.3383 54.5824 86.5106C54.5469 86.524 54.4488 86.3329 54.4421 86.3331C54.2866 86.3296 54.6856 86.7454 54.7185 86.9521C54.4874 86.5855 54.4879 86.6796 54.3871 86.6904C54.3383 86.6954 54.2637 86.5434 54.2508 86.5314C54.0543 86.3568 54.2019 86.6544 54.2304 86.7165C54.3347 86.945 54.1313 86.7297 54.2008 86.8827C54.2699 87.0345 54.4624 87.1977 54.3899 87.2438C54.282 87.1298 54.1056 86.7594 54.0139 86.7428C53.6668 86.6793 53.4589 87.2155 53.3236 87.3543C53.1829 87.4964 53.1141 87.5114 53.0535 87.625C52.9443 87.8309 52.8283 87.5431 52.6404 87.5108C52.4518 87.4794 52.9448 88.0347 53.0244 88.1736C53.1044 88.3122 52.9906 88.1929 53.0244 88.2768C53.0583 88.3604 53.1625 88.4176 53.1391 88.476C53.1159 88.5341 52.8282 88.3964 52.7126 88.2754C52.4687 88.0182 52.2969 87.6846 52.2634 87.8727C52.2617 87.8837 52.3998 88.0231 52.3871 88.0573C52.2829 88.3239 52.0858 88.4871 51.9714 88.7442C51.9559 88.7798 52.113 88.9317 52.1055 88.9543C52.0282 89.1903 51.8617 88.8574 51.521 88.6098C51.8747 89.0178 52.0294 89.3157 51.908 89.4159C51.835 89.4766 51.7012 89.282 51.5493 89.1907C51.5042 89.1627 51.5543 89.3297 51.4759 89.2505C51.2192 88.9922 51.0143 88.6368 50.9904 88.863C50.9897 88.8733 51.1312 89.0139 51.1199 89.0384C51.0473 89.1977 50.7948 88.9147 50.6325 88.9874C50.5052 89.0444 50.4653 89.3757 50.37 89.5035C50.7588 89.9687 50.5588 89.9541 50.2453 89.6712C50.1785 89.749 50.0789 89.8015 50.0451 89.9054C50.0329 89.9414 50.1622 90.0621 50.1713 90.0792C50.315 90.3471 50.0207 90.0633 49.9942 90.0648C49.719 90.0943 49.776 90.4506 49.4113 90.3668C49.3983 90.3636 49.1139 90.0527 49.2692 90.3248C49.2801 90.3433 49.4609 90.4405 49.3912 90.5202C49.3213 90.6 49.3196 90.9003 49.0803 90.8501C49.0226 90.8381 48.7291 90.6405 48.8535 90.8867C48.8705 90.9201 48.9578 91.0043 48.992 91.0636C49.1009 91.253 48.802 90.9489 49.0027 91.2541C49.2033 91.5594 49.3041 91.8316 49.0313 91.74C49.0231 91.7375 48.7737 91.5077 48.7432 91.5419C48.6949 91.5967 48.6646 91.7178 48.6064 91.767C48.5784 91.7904 48.4561 91.6187 48.4488 91.6201C48.187 91.6969 48.1806 91.9542 48.0372 92.1941C48.0096 92.2399 47.7183 92.1188 47.8027 92.3478C47.8955 92.5982 48.6666 93.2866 48.3317 93.2615C48.1976 93.2517 47.2244 92.3739 47.5589 92.9858C47.204 93.0865 47.2112 93.554 46.8076 93.6065C46.7897 93.6088 46.5057 93.3761 46.4841 93.4034C46.4524 93.4445 46.5492 93.5874 46.5304 93.6207C46.4546 93.7635 46.252 93.7555 46.1596 93.8754C46.1242 93.9207 46.2604 94.034 46.2183 94.088C46.1761 94.1419 45.9828 94.0062 45.9939 94.1509C46.0028 94.2609 46.2816 94.6502 46.2535 94.7542C45.9261 94.4208 45.8869 94.472 45.7191 94.4629C45.6867 94.461 45.5903 94.3279 45.5691 94.321C45.4803 94.2903 45.5461 94.4144 45.4536 94.3771C45.4313 94.3682 45.3197 94.2541 45.2951 94.2404C45.0823 94.1196 45.2512 94.4563 45.2828 94.5128C45.3978 94.7323 45.2289 94.6071 45.2552 94.7122C45.2815 94.8172 45.4216 94.8436 45.4157 94.9287C45.4034 95.1049 45.2639 95.206 45.1725 95.3064C45.1354 95.3458 45.012 95.1683 45.0032 95.1704C44.8854 95.2107 44.964 95.4517 44.6208 95.1945C45.3378 96.0287 44.4976 95.1667 44.5372 95.4371C44.5406 95.4587 44.8952 95.8379 44.9835 95.8574C45.0718 95.877 45.01 95.7098 45.1415 95.7466C45.1725 95.755 45.5795 96.0363 45.6089 96.0486C45.8397 96.1441 45.3044 95.583 45.2782 95.549C44.9968 95.181 45.4438 95.4758 45.4898 95.4813C45.701 95.5061 45.7049 95.3495 45.8665 95.3569C45.9716 95.3611 46.3317 95.7194 46.361 95.669C46.4592 95.5013 46.018 94.9421 46.576 95.2567C46.6952 95.3236 47.0536 95.7492 46.85 95.3389C46.8371 95.3131 46.6341 94.9539 46.8523 95.0944C46.8798 95.1122 46.9918 95.2288 47.0084 95.2318C47.1168 95.2494 47.059 95.1262 47.1533 95.1212C47.2476 95.1162 47.3729 95.1235 47.3935 95.0279C47.406 94.9705 47.2432 94.7093 47.2092 94.6397C47.1103 94.4403 47.4017 94.6441 47.2537 94.4296C47.1054 94.2137 46.7762 93.9845 46.7396 93.7886C47.0319 94.0907 47.3356 94.3973 47.6311 94.6995C47.7877 94.5305 47.8719 94.2643 48.0604 94.1135C48.0841 94.095 48.2161 94.281 48.2455 94.2655C48.3685 94.1997 48.3446 94.0018 48.4898 93.9546C48.6029 93.9187 48.851 94.0151 48.9732 93.9846C48.6973 93.5849 48.929 93.5938 48.9868 93.4816C49.0072 93.4424 48.9186 93.3494 48.9122 93.2985C48.8916 93.1076 49.1389 93.4572 49.2071 93.4856C49.4995 93.6056 48.8617 92.8853 48.997 92.795C49.004 92.7899 49.4242 93.1015 49.4559 93.1159C49.662 93.2106 49.3476 92.9733 49.3641 92.9075C49.3942 92.7873 49.3659 92.6483 49.5552 92.6806C49.611 92.6905 49.8856 92.8738 49.7717 92.6444C49.7568 92.6143 49.6406 92.4909 49.6393 92.4787C49.6263 92.2691 49.9819 92.6656 50.1559 92.7525C50.3298 92.8395 50.171 92.4896 50.1184 92.3948C49.9825 92.1493 50.0066 92.3371 49.9863 92.3191C49.7462 92.104 49.8445 92.0908 49.8739 92.0291C49.5365 91.6305 49.6237 91.5958 49.9058 91.9667C49.9366 92.0072 49.8677 92.0028 49.8739 92.0291C50.2523 92.3788 50.3704 92.3626 50.1392 91.929C50.0309 91.7258 49.8223 91.5603 50.004 91.5294C50.0862 91.5153 50.3008 91.8052 50.4121 91.8385C50.6659 91.9147 50.5865 91.5408 50.7313 91.4868C50.7838 91.4673 50.8725 91.6503 50.9126 91.6422C51.0195 91.6214 50.9876 91.4548 51.1087 91.4515C51.1199 91.4514 51.2369 91.6222 51.2609 91.6053C51.444 91.4821 51.5126 91.2527 51.694 91.0978C51.7816 91.0231 52.0111 90.9816 52.0873 90.8902C52.2202 90.7322 52.2254 90.3434 52.4046 90.2937C52.5231 90.2588 52.6323 90.4353 52.758 90.5148C53.0013 90.6691 52.8304 90.1832 52.8019 90.1097C52.8009 90.1073 52.6932 90.1301 52.6693 90.0144C52.5572 89.8221 52.8004 90.1096 52.8019 90.1097C52.7834 90.0621 52.9094 89.9042 52.9641 89.9117C52.9939 89.9158 53.1044 90.0772 53.1177 90.0764C53.4309 90.0544 53.6602 89.9415 53.8143 89.7112C53.8157 89.7052 53.6787 89.535 53.6836 89.5231C53.7496 89.352 53.9889 89.507 54.184 89.5599C54.3792 89.6127 54.4264 89.5123 54.2651 89.1659C54.369 89.1484 54.3805 88.9355 54.3847 88.8087C54.3889 88.6818 54.6452 89.0212 54.6555 89.0241C54.9796 89.1231 54.9452 88.8493 55.1057 88.6913C55.182 88.6151 55.3887 88.5476 55.5078 88.523C55.6023 88.504 55.5907 88.3916 55.6938 88.399C55.7077 88.4 55.8041 88.5633 55.8109 88.5674C56.0118 88.7053 55.7183 88.3451 55.6878 88.266C55.5779 87.978 55.5214 87.8231 55.7019 87.8733C55.7433 87.8847 56.1768 88.3969 56.2393 88.4027C56.3202 88.4088 56.1693 88.2221 56.2575 88.2337C56.2649 88.2345 56.3442 88.3587 56.3754 88.3307C56.5212 88.2025 56.6504 88.0186 56.8243 87.9274C56.8477 87.9145 56.9425 88.1308 56.9782 88.1156C57.1425 88.0457 57.3136 87.931 57.4096 87.746C57.4331 87.6997 57.3254 87.5734 57.3087 87.5268C57.2087 87.244 57.499 87.5685 57.5145 87.5688C57.8979 87.5809 57.9136 87.1264 58.2989 87.1237C58.3207 87.124 58.6602 87.4601 58.5267 87.086C58.5177 87.0611 58.3811 86.6782 58.5585 86.8948C58.5695 86.9085 58.6341 87.1085 58.6819 87.059C58.7301 87.0094 58.8866 87.0828 58.8606 86.8401C58.8527 86.7635 58.7269 86.3772 58.9514 86.621C58.9677 86.6377 59.4127 87.2216 59.2297 86.7558C59.1996 86.6792 58.9556 86.2113 59.1695 86.4067C59.2106 86.4449 59.2312 86.566 59.3101 86.6088C59.4308 86.6752 59.4623 86.5023 59.6507 86.6723C59.6841 86.7023 59.9016 86.9949 59.8351 86.7257C59.8247 86.6834 59.7339 86.5317 59.7524 86.501C59.8402 86.3547 60.0251 86.3987 60.1092 86.227C60.139 86.1665 59.9976 85.918 60.0166 85.8259C60.0355 85.7337 60.1078 85.6215 60.2124 85.7178C60.3167 85.8143 60.4415 86.2547 60.5324 86.2548C60.922 86.258 61.1558 85.8762 61.481 85.7128C61.529 85.6887 61.5445 85.8561 61.6186 85.8319C61.891 85.7424 62.4117 85.7267 62.5444 85.3256C62.655 85.0022 62.3495 84.8763 62.4656 84.7229C62.5243 84.6489 62.7549 85.1306 62.7763 85.1415C62.9929 85.2534 63.046 84.9958 63.218 85.0234C63.2532 85.0293 63.2782 85.244 63.3074 85.2468C63.407 85.2584 63.4775 85.1414 63.5685 85.1364C63.6098 85.1346 63.6423 85.2948 63.675 85.2737C63.7539 85.2249 63.8132 85.14 63.8628 84.9712C63.8675 84.9558 63.7686 84.7703 63.8318 84.7478C63.9337 84.712 64.0329 84.5351 64.1867 84.6619C64.2326 84.7001 64.31 85.065 64.3339 84.797C64.3389 84.741 64.2289 84.306 64.3959 84.6672C64.4252 84.7269 64.6733 85.2102 64.6836 84.866C64.6864 84.7753 64.6702 84.4054 64.7246 84.4541C64.7321 84.4621 64.7443 84.6636 64.7836 84.6764C64.9212 84.7181 65.0496 84.6747 65.1888 84.7164C65.2258 84.7279 65.207 84.9408 65.2607 84.9516C65.4079 84.9816 65.575 84.9044 65.7045 84.8222C65.7522 84.7915 65.6952 84.6256 65.6964 84.6066C65.7183 84.2972 65.8057 84.7 65.828 84.7214C65.9682 84.8487 66.0398 84.6466 66.1597 84.6853C66.1926 84.6955 66.1904 84.8925 66.1985 84.9093C66.28 85.0723 66.1964 84.7275 66.2336 84.6848C66.338 84.564 66.4697 84.5679 66.589 84.5834C66.6328 84.5894 66.6027 84.8195 66.6414 84.8223C66.8707 84.8433 67.1038 84.8075 67.321 84.673C67.362 84.6472 67.3283 84.4737 67.3354 84.4335C67.3855 84.1518 67.4903 84.5293 67.5114 84.5649C67.6098 84.7275 67.6411 84.5721 67.7245 84.599C68.1301 84.7327 68.6219 84.6355 69.0102 84.5878C69.51 84.5262 69.9196 84.3883 70.3986 84.477C70.4292 84.4824 70.3759 84.7109 70.4018 84.7186C70.7382 84.8075 71.0791 84.7559 71.4135 84.8687C71.4409 84.8776 71.371 85.0905 71.4137 85.1121C71.501 85.1577 71.6191 85.1623 71.723 85.1065C71.7728 85.0795 71.74 84.8835 71.7898 84.8603C71.906 84.8057 72.0229 84.8077 72.1272 84.86C72.1715 84.8828 72.0658 85.0942 72.1258 85.1064C72.5361 85.1947 72.9297 85.3048 73.4063 85.1012C73.439 85.0872 73.5537 84.6428 73.5991 84.7415C73.5788 84.8671 73.5491 85.0137 73.5244 85.1474C74.1139 85.3402 74.7559 85.3221 75.3664 85.4462C75.3923 85.4516 75.2902 85.6765 75.34 85.688C75.6279 85.755 75.8959 85.8926 76.2468 85.7353C76.2819 85.7202 76.3755 85.3032 76.4456 85.3885C76.4579 85.4039 76.5738 85.4937 76.5836 85.5923C76.5846 85.6071 76.5092 85.7932 76.5497 85.8101C76.7847 85.9044 77.0593 85.9328 77.3304 85.8825C77.3748 85.8742 77.3907 85.6581 77.4229 85.6504C77.6515 85.5977 77.824 85.8149 78.0699 85.6857C78.2351 85.5986 78.2901 85.2325 78.4607 84.9061C78.4848 84.86 78.5681 84.8761 78.6317 84.6757C78.7916 84.172 78.9149 83.6052 79.0901 83.0696C79.1277 82.9542 79.2022 83.1124 79.2191 82.8117C79.22 82.7915 79.1666 82.6744 79.1746 82.5731C79.18 82.5031 79.2652 82.3053 79.2615 82.2125C79.2578 82.1198 79.1763 82.2826 79.1582 82.1696C79.1404 82.0554 79.229 81.828 79.1428 81.773ZM54.4097 88.2386C54.353 88.0288 54.7926 88.6337 54.6243 88.5336C54.6156 88.528 54.4124 88.249 54.4097 88.2386ZM47.4837 93.8557C47.3298 93.5477 47.7105 93.8555 47.8343 94.0886C47.9582 94.3213 47.5303 93.949 47.4837 93.8557ZM46.5915 94.3707C46.4936 94.1044 47.2392 94.8584 47.004 94.787C46.9905 94.7831 46.5971 94.3862 46.5915 94.3707ZM78.1684 84.7141C78.1721 84.7048 78.2327 84.7122 78.2313 84.7221C78.1961 84.9591 78.0755 84.9443 78.1684 84.7141ZM45.6823 94.8854C45.6073 94.7581 45.7983 94.8032 45.8904 94.9625C45.9641 95.091 45.7755 95.0437 45.6823 94.8854ZM57.2321 85.5043C57.2277 85.494 57.261 85.464 57.2908 85.5195C57.3868 85.6982 57.3062 85.6776 57.2321 85.5043ZM44.4631 96.0744C44.6157 95.865 44.1072 95.1352 43.979 95.403C43.9558 95.4515 44.2537 95.5232 44.264 95.6247C44.2825 95.8096 43.8376 95.4769 43.9607 95.7708C43.9836 95.8243 44.4558 96.0876 44.4642 96.0749C44.4638 96.0747 44.4634 96.0746 44.4631 96.0744ZM53.9269 87.4801C53.9225 87.4711 53.9669 87.4283 53.9737 87.4355C54.1372 87.6108 54.0483 87.6966 53.9269 87.4801ZM59.2973 83.953C59.2918 83.9323 59.4135 83.8572 59.4255 83.8733C59.6472 84.1998 59.406 84.3506 59.2973 83.953ZM50.3784 89.5175C50.1748 89.376 50.0946 89.406 50.2453 89.6707C50.2864 89.6158 50.3364 89.5713 50.3784 89.5175Z" fill="black"/>
<path d="M97.9801 145.798C92.7792 151.265 93.4064 154.862 94.7029 157.119L99.8526 158.931C102.263 156.109 104.066 155.761 106.407 158.931H109.216C110.621 156.213 113.346 155.828 115.302 158.931L119.984 157.119C122.378 155.353 124.697 151.706 118.111 145.798" stroke="black"/>
<path d="M100.352 158.886C102.511 156.355 104.431 156.674 105.97 158.931L100.352 158.886Z" fill="#3F3D3D"/>
<path d="M109.715 158.931C111.12 156.213 113.327 156.674 114.865 158.931L109.715 158.931Z" fill="#3F3D3D"/>
<g filter="url(#filter2_f_675_2096)">
<ellipse cx="21.1662" cy="20.4642" rx="21.1662" ry="20.4642" transform="matrix(0.889276 0.457371 -0.481709 0.876331 159.393 129.495)" fill="#F2D7B1"/>
</g>
<g filter="url(#filter3_f_675_2096)">
<ellipse cx="9.93892" cy="13.3713" rx="9.93892" ry="13.3713" transform="matrix(0.943249 -0.332086 0.352171 0.935935 47.9312 141.789)" fill="#F2D7B1"/>
</g>
<path d="M214.152 138.997C225.2 117.861 210.407 118.619 209.002 128.128C207.598 137.638 212.223 133.198 205.257 142.62" stroke="black"/>
<path d="M97.5427 145.798C103.41 140.781 104.543 139.607 106.906 131.307" stroke="black"/>
<path d="M88.4937 180.024C106.483 177.082 111.953 175.812 130.842 178.359C114.331 194.685 105.863 196.483 88.4937 180.024Z" fill="#9C5C65" stroke="black" stroke-width="0.5"/>
<path d="M131.288 178.095C108.204 194.804 104.145 194.624 88.4937 180.024C93.7237 188.508 97.026 192.824 105.7 193.64C114.373 194.457 121.836 190.391 131.288 178.095Z" fill="#F2A89F" stroke="black" stroke-width="0.5"/>
<path d="M130.393 178.08C112.139 173.538 114.963 172.885 106.796 174.713C106.796 174.713 102.864 173.871 99.3678 174.713C95.872 175.554 88.4434 179.764 88.4434 179.764C103.329 177.135 108.389 175.857 130.393 178.08Z" fill="#F2A89F"/>
<path d="M83.1997 178.922L88.4434 179.764M88.4434 179.764C103.329 177.135 108.389 175.857 130.393 178.08M88.4434 179.764C88.4434 179.764 95.872 175.554 99.3678 174.713C102.864 173.871 106.796 174.713 106.796 174.713C114.963 172.885 112.139 173.538 130.393 178.08M130.393 178.08L135.2 176.396" stroke="black" stroke-width="0.5"/>
<path d="M67.2 194C27.7 222.5 35.939 243.736 36.004 282C30.5041 307.5 30.4356 313.142 30.6997 333.5" stroke="#704C38"/>
<defs>
<filter id="filter0_f_675_2096" x="60.1" y="252.1" width="11.8" height="8.8" filterUnits="userSpaceOnUse" color-interpolation-filters="sRGB">
<feFlood flood-opacity="0" result="BackgroundImageFix"/>
<feBlend mode="normal" in="SourceGraphic" in2="BackgroundImageFix" result="shape"/>
<feGaussianBlur stdDeviation="0.95" result="effect1_foregroundBlur_675_2096"/>
</filter>
<filter id="filter1_f_675_2096" x="122.1" y="254.1" width="11.8" height="9.8" filterUnits="userSpaceOnUse" color-interpolation-filters="sRGB">
<feFlood flood-opacity="0" result="BackgroundImageFix"/>
<feBlend mode="normal" in="SourceGraphic" in2="BackgroundImageFix" result="shape"/>
<feGaussianBlur stdDeviation="0.95" result="effect1_foregroundBlur_675_2096"/>
</filter>
<filter id="filter2_f_675_2096" x="138.305" y="127.926" width="60.1042" height="58.367" filterUnits="userSpaceOnUse" color-interpolation-filters="sRGB">
<feFlood flood-opacity="0" result="BackgroundImageFix"/>
<feBlend mode="normal" in="SourceGraphic" in2="BackgroundImageFix" result="shape"/>
<feGaussianBlur stdDeviation="4.4" result="effect1_foregroundBlur_675_2096"/>
</filter>
<filter id="filter3_f_675_2096" x="42.7217" y="129.257" width="38.5866" height="43.4916" filterUnits="userSpaceOnUse" color-interpolation-filters="sRGB">
<feFlood flood-opacity="0" result="BackgroundImageFix"/>
<feBlend mode="normal" in="SourceGraphic" in2="BackgroundImageFix" result="shape"/>
<feGaussianBlur stdDeviation="4.4" result="effect1_foregroundBlur_675_2096"/>
</filter>
</defs>
</svg>
