<svg width="221" height="383" viewBox="0 0 221 383" fill="none" xmlns="http://www.w3.org/2000/svg">
<path d="M213.334 243.328C210.977 217.336 198.826 182.212 162.419 173.104L147.805 169L64.8323 173.104L62.0037 174.928C62.0037 174.928 41.2605 179.488 35.1319 200.008C29.0032 220.528 27.5889 259.288 27.5889 259.288C23.3459 282.544 4.23529 373.03 3.07422 379.861C11.5477 384.266 166.419 380.626 178.448 379.861H207.111H213.334C223.706 363.256 219.522 337.26 217.577 298.96C217.145 283.542 215.691 269.32 213.334 243.328Z" fill="#92683F" stroke="black"/>
<path d="M164.7 174C162.464 173.875 130.51 206.972 73.1997 186.5C80.3199 194.928 113.195 197.788 135.607 195.292C153.141 193.34 166.936 174.125 164.7 174Z" fill="#8B6035"/>
<path d="M27.5002 201C39.5005 181 57.5001 173 57.5001 173L70.2461 181.695L17.2783 328.695C14.5002 314.5 16.2007 282.295 20.0002 269C23.7998 255.705 15.5 221 27.5002 201Z" fill="#92683F"/>
<path d="M1.75816 381C-3.65841 359.737 21.937 295.073 15.7492 321.064C9.56144 347.056 192.438 353.092 187.771 324.725C183.104 296.358 202.359 342.901 200.923 381H1.75816Z" fill="white" stroke="black"/>
<path d="M25.9959 264.898C25.9788 250.654 23.2149 230.674 35.6799 207.112L177.128 209.681C193.123 240.5 186.153 252.913 186.153 260.19C203.619 326.536 213.116 327.82 186.153 334.669C134.144 350.506 28.1825 341.089 18.6859 327.82C9.1893 314.551 26.013 279.142 25.9959 264.898Z" fill="#92683F"/>
<path d="M41.4904 209.027C28.995 224.008 25.2373 247.514 25.9961 268.322C18.4988 294.433 14.188 310.698 16.6872 326.108C19.1863 341.517 164.633 354.787 199.12 326.108" stroke="black"/>
<path d="M61.5314 309C65.1311 305.91 69.7591 306.793 71.816 309C73.8729 311.207 57.9317 312.09 61.5314 309Z" fill="#77522E"/>
<g filter="url(#filter0_f_718_2780)">
<ellipse cx="51" cy="238.5" rx="4" ry="2.5" fill="#77522E"/>
</g>
<g filter="url(#filter1_f_718_2780)">
<ellipse cx="113" cy="241" rx="4" ry="3" fill="#77522E"/>
</g>
<path d="M156 349.462C156 347.209 157.935 341.352 157.935 341.352L166.645 340L171 369.288C171 369.288 168.581 371.991 163.258 374.695C163.119 374.765 162.988 374.833 162.864 374.898C160.961 376.409 160.143 376.325 162.864 374.898C164.196 373.84 166.06 371.999 167.613 369.288C171.484 362.529 162.774 371.991 163.258 369.288C163.742 366.584 162.775 373.793 166.645 360.727C170.516 347.66 161.806 356.221 159.387 357.122C156.968 358.023 163.258 354.419 164.226 347.66C165.193 340.901 156 351.715 156 349.462Z" fill="#D9D9D9"/>
<path d="M163.603 331.194C163.682 331.316 163.673 331.441 163.581 331.569C164.529 333.474 166 336.682 166 338.687C166 342.434 112.332 344.311 90.577 341.965C64.1714 343.773 160.504 335.875 163.581 331.569C162.758 329.913 162.329 329.24 163.603 331.194Z" fill="#7F5B38"/>
<path d="M1.78462 380.591C0.512263 369.331 4.20909 343.354 15.6999 317.5C8.84896 333.738 18.0553 341.887 18.0553 345.042C18.0553 348.197 12.383 334.676 11.4372 341.887C10.4914 349.099 8.60088 355.859 11.4372 358.113C14.2735 360.366 18.0553 363.972 18.0553 363.972C18.0553 363.972 11.6033 360.504 8.60088 362.62C4.40184 365.579 25.6188 372.986 18.0553 371.634C10.4918 370.282 7.18271 366.225 7.18271 369.831C7.18271 373.437 23.728 379.746 11.4372 378.845C4.15043 378.311 2.18068 379.519 1.78462 380.591C1.841 381.09 1.90713 381.56 1.98278 382C1.98278 382 1.51263 381.328 1.78462 380.591Z" fill="#E6E6E6"/>
<path d="M200.726 380C202.592 364.545 194.471 329.435 189.997 320C193.641 336.331 196.061 343.636 194.195 347.273C192.33 350.909 188.17 353.182 187.198 355.455C186.226 357.727 193.729 352.273 196.061 355.455C198.394 358.636 194.195 360.909 194.195 360.909C194.195 360.909 188.131 361.364 184.866 365C181.601 368.636 194.195 362.727 194.195 367.273C194.195 371.818 192.796 370 187.198 374.091C181.601 378.182 191.397 375 188.598 376.591C185.799 378.182 183 380 183 380H200.726Z" fill="#D1D1D1"/>
<path d="M33 357C58.9009 364.408 96.2338 366.378 130 363.146C105.981 372.804 62.1992 366.631 33 357Z" fill="#D9D9D9"/>
<path d="M154.658 268.984C146.04 253.718 144.927 243.114 146.741 222.312L199.831 206C210.46 243.563 215.691 264.216 215.665 302.062C215.665 343.75 224.127 365.717 211.2 381H175.7C168.004 367.735 172.066 358.25 165.835 336.047C158.086 308.435 150.24 293.585 154.658 268.984Z" fill="#92683F"/>
<path d="M144.302 225C143.226 245.505 144.783 262.64 152.947 273.07C146.704 305.721 160.631 316.151 166.395 338.826C169.622 351.523 169.276 373.744 176 381" stroke="black"/>
<path d="M18.2449 112.611C12.6767 97.7396 27.2396 92.0198 33.2361 104.031L36.6626 121.762C36.6626 128.626 35.3776 133.773 27.6679 133.773C27.6679 133.773 21.3382 134.163 18.2449 112.611Z" fill="#92653A" stroke="black"/>
<path d="M21.8311 118.197C13.932 95.7797 28.472 98.5216 28.4945 108.128C28.5171 117.734 24.5763 112.714 30.1184 122.982" stroke="black"/>
<mask id="path-19-inside-1_718_2780" fill="white">
<path d="M112.542 1.89728C162.702 1.89728 203.366 36.1614 203.366 78.4285C203.366 93.1511 198.43 106.901 189.88 118.572C190.128 120.711 190.257 122.879 190.257 125.072C190.257 162.587 153.157 193 107.393 193C61.6276 193 24.5273 162.587 24.5273 125.072C24.5274 118.472 25.6773 112.091 27.8193 106.057C23.8805 97.4872 21.7188 88.1706 21.7188 78.4285C21.719 36.1615 62.3818 1.89741 112.542 1.89728Z"/>
</mask>
<path d="M112.542 1.89728C162.702 1.89728 203.366 36.1614 203.366 78.4285C203.366 93.1511 198.43 106.901 189.88 118.572C190.128 120.711 190.257 122.879 190.257 125.072C190.257 162.587 153.157 193 107.393 193C61.6276 193 24.5273 162.587 24.5273 125.072C24.5274 118.472 25.6773 112.091 27.8193 106.057C23.8805 97.4872 21.7188 88.1706 21.7188 78.4285C21.719 36.1615 62.3818 1.89741 112.542 1.89728Z" fill="#92683F"/>
<path d="M112.542 1.89728L112.542 0.897278L112.542 0.897278L112.542 1.89728ZM203.366 78.4285L204.366 78.4285L204.366 78.4285L203.366 78.4285ZM189.88 118.572L189.073 117.981L188.841 118.298L188.887 118.687L189.88 118.572ZM190.257 125.072L191.257 125.072L191.257 125.072L190.257 125.072ZM107.393 193L107.393 194L107.393 194L107.393 193ZM24.5273 125.072L23.5273 125.072V125.072H24.5273ZM27.8193 106.057L28.7617 106.392L28.8977 106.009L28.728 105.64L27.8193 106.057ZM21.7188 78.4285L20.7188 78.4285V78.4285H21.7188ZM112.542 1.89728V2.89728C162.317 2.89728 202.366 36.8674 202.366 78.4285L203.366 78.4285L204.366 78.4285C204.366 35.4555 163.087 0.897278 112.542 0.897278V1.89728ZM203.366 78.4285H202.366C202.366 92.9203 197.509 106.466 189.073 117.981L189.88 118.572L190.687 119.163C199.351 107.336 204.366 93.3818 204.366 78.4285H203.366ZM189.88 118.572L188.887 118.687C189.13 120.789 189.257 122.919 189.257 125.072L190.257 125.072L191.257 125.072C191.257 122.84 191.125 120.634 190.873 118.457L189.88 118.572ZM190.257 125.072H189.257C189.257 161.858 152.8 192 107.393 192L107.393 193L107.393 194C153.515 194 191.257 163.316 191.257 125.072H190.257ZM107.393 193V192C61.9849 192 25.5273 161.858 25.5273 125.072H24.5273H23.5273C23.5273 163.316 61.2704 194 107.393 194V193ZM24.5273 125.072L25.5273 125.072C25.5274 118.589 26.6566 112.322 28.7617 106.392L27.8193 106.057L26.877 105.723C24.6979 111.861 23.5274 118.354 23.5273 125.072L24.5273 125.072ZM27.8193 106.057L28.728 105.64C24.8467 97.1948 22.7188 88.0202 22.7188 78.4285H21.7188H20.7188C20.7188 88.321 22.9144 97.7796 26.9107 106.475L27.8193 106.057ZM21.7188 78.4285L22.7187 78.4285C22.719 36.8674 62.7668 2.89741 112.542 2.89728L112.542 1.89728L112.542 0.897278C61.9968 0.897411 20.719 35.4556 20.7188 78.4285L21.7188 78.4285Z" fill="black" mask="url(#path-19-inside-1_718_2780)"/>
<path d="M87.6924 131.874C92.0504 129.774 94.6806 129.545 98.9283 131.874" stroke="black" stroke-width="0.5"/>
<path d="M188.816 36.8641C159.849 -9.85557 73.1557 -9.79123 42.3179 30.427C57.7703 10.3568 117.66 14.7512 89.0971 30.427C109.017 27.452 137.786 30.5242 152.767 24.6371C167.748 18.7501 217.782 83.5838 188.816 36.8641Z" fill="#1F1A17" stroke="#311F15"/>
<path d="M157.009 104.058C135.176 58.1447 112.533 106.475 113.469 108.408C114.406 110.341 124.209 113.398 135.913 111.948C147.617 110.498 152.973 109.229 157.009 104.058Z" fill="#EBEBEB"/>
<path d="M38.5358 102.456C58.1986 55.8455 85.1691 105.348 84.3862 106.841C83.6032 108.334 75.3025 111.337 61.4758 110.64C47.6491 109.944 42.7856 107.669 38.5358 102.456Z" fill="#EBEBEB"/>
<path d="M157.449 103.141C153.259 77.736 115.933 79.5251 112.505 107.435C112.505 107.435 114.791 113.876 136.12 112.087C157.449 110.298 157.449 103.141 157.449 103.141Z" stroke="black"/>
<path d="M204.949 115.849C212.603 101.872 193.392 94.8208 191.338 105.335C189.283 115.849 190.22 119.283 188.347 120.641C186.798 121.074 184.938 134.5 192.573 135.537C192.573 135.537 198.785 136.775 204.949 115.849Z" fill="#92653A"/>
<path d="M188.347 120.641C186.798 121.074 184.938 134.5 192.573 135.537C192.573 135.537 198.785 136.775 204.949 115.849C212.603 101.872 193.392 94.8208 191.338 105.335C189.283 115.849 190.22 119.283 188.347 120.641ZM188.347 120.641C189.896 120.209 186.475 122 188.347 120.641Z" stroke="black"/>
<path d="M113.441 107.872C118.799 79.6359 149.795 77.4914 157.449 103.226" stroke="black" stroke-width="3"/>
<path d="M162.13 100.886C159.418 101.751 157.696 100.956 155.576 97.0041L156.669 105.155L162.13 100.886Z" fill="black" stroke="black"/>
<path d="M37.5993 101.381C41.9635 75.9755 80.8448 77.7646 84.4155 105.675C84.4155 105.675 82.035 112.116 59.8172 110.326C37.5993 108.537 37.5993 101.381 37.5993 101.381Z" stroke="black"/>
<path d="M83.479 106.112C77.8936 77.8754 45.5782 75.7308 37.5991 101.465" stroke="black" stroke-width="3"/>
<path d="M43.6855 97.5078C43.6855 104.761 48.5691 110.188 56.3259 110.188C64.0826 110.188 70.3707 105.666 70.3707 98.4135C70.748 90.9775 62.8801 84.828 55.3895 85.7337C47.8989 86.6394 43.6855 90.2548 43.6855 97.5078Z" fill="#362C26"/>
<ellipse cx="8.42692" cy="9.057" rx="8.42692" ry="9.057" transform="matrix(-1 0 0 1 63.8164 87.9979)" fill="black"/>
<path d="M32.9176 99.1251C36.0172 99.9902 37.985 99.1955 40.4082 95.2435L39.1598 103.395L32.9176 99.1251Z" fill="black" stroke="black"/>
<ellipse cx="2.26368" cy="3.01824" rx="2.26368" ry="3.01824" transform="matrix(-0.742447 0.669904 0.742447 0.669904 58.5239 89.1669)" fill="#EBEBEB"/>
<path d="M119.996 99.3591C119.996 106.612 124.879 112.039 132.636 112.039C140.393 112.039 146.681 107.518 146.681 100.265C147.058 92.8289 139.19 86.6793 131.7 87.585C124.209 88.4907 119.996 92.1061 119.996 99.3591Z" fill="#362C26"/>
<ellipse cx="8.42692" cy="9.057" rx="8.42692" ry="9.057" transform="matrix(-1 0 0 1 140.127 89.8492)" fill="black"/>
<ellipse cx="2.26368" cy="3.01824" rx="2.26368" ry="3.01824" transform="matrix(-0.742447 0.669904 0.742447 0.669904 134.834 91.0182)" fill="#EBEBEB"/>
<path d="M132.673 64.9415C132.871 64.8059 133.179 64.7774 133.423 64.7987C133.5 64.805 133.506 64.9421 133.561 64.9523C133.668 64.9717 133.737 64.8815 133.847 64.9108C133.884 64.9211 133.91 65.1332 133.947 65.1395C134.149 65.1726 134.297 65.0703 134.485 65.0591C135.411 65.0047 136.297 64.8374 137.207 64.7147C137.513 64.6726 137.916 64.7757 138.202 64.6298C138.235 64.6125 138.176 64.4368 138.18 64.4205C138.238 64.1705 138.28 64.5419 138.359 64.5759C138.68 64.7083 138.99 64.6656 139.244 64.548C139.352 64.4975 139.175 64.1573 139.325 64.3393C139.336 64.3516 139.341 64.5494 139.375 64.5645C139.453 64.5986 139.583 64.541 139.642 64.5472C139.754 64.5601 139.771 64.5553 139.872 64.5417C140.012 64.5247 140.189 64.5967 140.33 64.5324C140.36 64.5181 140.291 64.3252 140.337 64.2844C140.383 64.2435 140.518 64.2428 140.571 64.2838C140.623 64.3248 140.623 64.4837 140.636 64.5185C140.739 64.8126 140.843 64.3747 140.863 64.362C141.212 64.1423 141.546 64.3523 141.894 64.326C142.156 64.3057 142.432 64.2111 142.683 64.2128C142.986 64.2157 143.241 64.3203 143.53 64.3026C143.56 64.301 143.525 64.065 143.563 64.0626C143.965 64.0374 144.37 64.0776 144.757 64.263C144.796 64.2818 144.731 64.485 144.768 64.5161C145.002 64.7018 145.326 65.1431 145.569 64.2636C145.73 64.3167 145.927 64.378 146.048 64.5783C146.126 64.7073 146.003 64.9178 146.131 64.8388C146.16 64.8213 146.154 64.6209 146.196 64.6096C146.371 64.5621 146.54 64.6544 146.721 64.5825C146.757 64.5674 146.779 64.3916 146.794 64.3619C146.92 64.1219 146.975 64.5664 146.997 64.6022C147.17 64.8709 147.343 64.8141 147.543 64.8646C147.589 64.8765 147.586 64.6321 147.633 64.6353C147.876 64.6555 148.111 64.7349 148.31 64.8976C148.354 64.9343 148.255 65.1174 148.274 65.1449C148.353 65.2637 148.478 64.9015 148.558 65.0098C148.574 65.0322 148.515 65.1955 148.514 65.2149C148.492 65.5194 148.661 65.1276 148.68 65.1233C148.913 65.0586 148.906 65.5191 149.109 65.5185C149.133 65.5182 149.15 65.2931 149.216 65.305C149.658 65.3847 150.076 65.6011 150.413 65.9261C150.466 65.9763 150.36 66.1111 150.356 66.1316C150.3 66.4514 150.501 66.0742 150.528 66.0679C150.736 66.0286 150.736 66.4166 151.046 65.9991C151.646 66.4525 152.431 66.5273 152.842 67.2741C152.848 67.283 152.732 67.4584 152.743 67.4755C152.873 67.6828 152.996 67.3783 153.32 67.1048C153.402 67.0366 153.259 67.5092 153.25 67.5444C153.216 67.6747 153.027 67.9256 153.025 67.9533C153.01 68.1729 153.515 67.2747 153.634 67.3442C153.637 67.3479 153.525 67.5021 153.525 67.5241C153.525 67.5931 153.594 67.5462 153.59 67.6201C153.582 67.7913 153.345 68.2326 153.595 68.0434C153.627 68.0188 153.911 67.5072 153.998 67.5929C154.033 67.6272 154.217 67.7299 154.247 67.7939C154.277 67.8574 154.142 67.9951 154.141 68.0043C154.142 68.2994 154.036 68.3546 153.904 68.7075C153.771 69.0588 154.226 68.3095 154.306 68.2448C154.386 68.1804 154.373 68.4166 154.358 68.4921C154.343 68.5676 154.248 68.6484 154.247 68.6961C154.242 69.009 154.547 68.3729 154.671 68.2876C154.96 68.0841 154.684 68.6809 154.744 68.7986C154.761 68.8305 154.822 68.6934 154.853 68.6978C154.976 68.7173 154.917 68.9226 155.129 68.8427C155.163 68.8295 155.473 68.569 155.365 68.8434C155.349 68.8828 155.234 68.9997 155.253 69.0573C155.281 69.1435 155.367 69.248 155.463 69.2498C155.534 69.251 155.635 68.9951 155.646 69.1053C155.65 69.1537 155.512 69.2467 155.527 69.3268C155.541 69.4066 155.666 69.4886 155.715 69.5181C155.764 69.5474 155.859 69.3656 155.871 69.3573C155.939 69.3107 156.087 69.2979 156.094 69.304C156.511 69.5809 156.671 70.1352 157.112 70.3421C157.146 70.359 157.26 70.1765 157.267 70.1774C157.424 70.1889 156.99 70.5679 156.941 70.7724C157.202 70.4265 157.194 70.5209 157.296 70.5417C157.345 70.5514 157.432 70.4059 157.445 70.3951C157.657 70.2388 157.486 70.5235 157.452 70.5831C157.33 70.8026 157.552 70.606 157.47 70.7531C157.389 70.8989 157.182 71.0442 157.252 71.0976C157.369 70.9935 157.575 70.6384 157.669 70.6306C158.027 70.6021 158.172 71.14 158.305 71.2979C158.437 71.4541 158.505 71.4758 158.558 71.5959C158.653 71.8133 158.792 71.5354 158.984 71.5205C159.172 71.5029 158.636 72.0161 158.544 72.1476C158.453 72.2787 158.576 72.1691 158.535 72.2494C158.494 72.3297 158.386 72.3787 158.403 72.438C158.421 72.497 158.716 72.3816 158.841 72.2704C159.106 72.0343 159.303 71.7144 159.323 71.9065C159.324 71.9177 159.174 72.0448 159.184 72.0803C159.269 72.358 159.456 72.5405 159.553 72.8099C159.566 72.8471 159.397 72.9851 159.403 73.0085C159.463 73.2529 159.657 72.9353 160.015 72.7147C159.629 73.0926 159.449 73.3757 159.559 73.483C159.625 73.5478 159.775 73.3651 159.933 73.2856C159.98 73.2616 159.917 73.4247 160.002 73.3524C160.28 73.1165 160.512 72.7783 160.52 73.0076C160.52 73.0181 160.367 73.1463 160.376 73.172C160.438 73.3387 160.713 73.0776 160.871 73.1655C160.995 73.2344 161.011 73.5712 161.098 73.7084C160.674 74.1421 160.871 74.14 161.205 73.8825C161.264 73.9635 161.356 74.0216 161.384 74.13C161.393 74.1672 161.255 74.2768 161.244 74.2932C161.08 74.5494 161.397 74.2907 161.423 74.2946C161.698 74.3489 161.615 74.7018 161.988 74.6503C162.001 74.6483 162.31 74.3614 162.134 74.6209C162.121 74.6385 161.932 74.72 161.997 74.8063C162.062 74.8931 162.041 75.1946 162.279 75.1588C162.337 75.1506 162.643 74.9752 162.501 75.2122C162.482 75.2443 162.388 75.321 162.349 75.3776C162.226 75.5582 162.548 75.2791 162.325 75.5679C162.101 75.8568 161.98 76.1213 162.261 76.0533C162.269 76.0515 162.536 75.8426 162.564 75.8797C162.609 75.9389 162.631 76.0632 162.686 76.1177C162.712 76.1437 162.847 75.9819 162.855 75.9839C163.11 76.0819 163.106 76.3498 163.221 76.5905C163.243 76.6354 163.545 76.5404 163.443 76.7626C163.332 77.0059 162.508 77.6307 162.846 77.6342C162.982 77.6359 164.022 76.8381 163.642 77.4237C163.99 77.5536 163.955 78.0288 164.346 78.1048C164.364 78.1086 164.665 77.899 164.685 77.9282C164.714 77.972 164.606 78.1072 164.623 78.1422C164.689 78.2916 164.892 78.3005 164.976 78.4284C165.008 78.4767 164.864 78.579 164.902 78.6367C164.94 78.6942 165.144 78.5743 165.122 78.7185C165.106 78.828 164.798 79.1952 164.819 79.3019C165.171 78.9947 165.207 79.0493 165.375 79.0541C165.408 79.0549 165.514 78.9294 165.536 78.9243C165.627 78.9009 165.552 79.0198 165.648 78.9901C165.671 78.983 165.791 78.8779 165.816 78.8662C166.04 78.7643 165.841 79.0814 165.806 79.1371C165.675 79.3477 165.854 79.236 165.82 79.3392C165.786 79.4422 165.643 79.4572 165.643 79.543C165.643 79.7205 165.775 79.8331 165.859 79.9412C165.894 79.9836 166.03 79.8158 166.039 79.8186C166.154 79.8686 166.058 80.1037 166.42 79.8737C165.642 80.6514 166.545 79.8559 166.486 80.1236C166.481 80.1449 166.099 80.4961 166.009 80.5086C165.919 80.521 165.993 80.3585 165.859 80.3847C165.827 80.3906 165.399 80.6394 165.369 80.6493C165.131 80.7262 165.707 80.2076 165.736 80.1757C166.044 79.8297 165.575 80.0888 165.529 80.0906C165.316 80.0982 165.323 79.941 165.161 79.9352C165.055 79.9308 164.669 80.2604 164.643 80.2075C164.559 80.0341 165.042 79.5102 164.46 79.7792C164.335 79.8364 163.946 80.2335 164.179 79.8387C164.194 79.8139 164.423 79.4706 164.194 79.5933C164.165 79.6088 164.045 79.7165 164.028 79.7181C163.918 79.7267 163.985 79.6079 163.89 79.595C163.796 79.5821 163.67 79.5789 163.656 79.4813C163.648 79.4226 163.83 79.1743 163.869 79.1074C163.982 78.9156 163.676 79.0956 163.839 78.8928C164.004 78.6887 164.35 78.4864 164.401 78.2931C164.086 78.5715 163.76 78.8536 163.441 79.1319C163.294 78.9462 163.239 78.6838 163.058 78.5129C163.035 78.4924 162.89 78.6677 162.861 78.6497C162.742 78.573 162.78 78.3764 162.638 78.3165C162.527 78.2707 162.271 78.3462 162.15 78.305C162.456 77.9274 162.223 77.9164 162.173 77.7988C162.155 77.7577 162.251 77.672 162.261 77.6215C162.297 77.433 162.023 77.7625 161.953 77.7858C161.655 77.8848 162.35 77.2197 162.219 77.1163C162.213 77.1105 161.768 77.3867 161.735 77.3983C161.521 77.4753 161.854 77.2645 161.842 77.1969C161.82 77.0735 161.859 76.9363 161.666 76.9521C161.61 76.9571 161.32 77.1171 161.451 76.8966C161.468 76.8677 161.594 76.7539 161.596 76.7418C161.624 76.5324 161.238 76.8994 161.057 76.9713C160.876 77.0432 161.061 76.7058 161.121 76.6152C161.275 76.3806 161.237 76.5671 161.259 76.5508C161.516 76.356 161.418 76.3341 161.393 76.2695C161.761 75.8989 161.676 75.8564 161.365 76.204C161.331 76.242 161.401 76.2436 161.393 76.2695C160.986 76.5862 160.872 76.563 161.139 76.1515C161.264 75.9582 161.486 75.8111 161.308 75.7657C161.226 75.7441 160.989 76.0162 160.875 76.0396C160.614 76.0933 160.72 75.7245 160.579 75.6571C160.527 75.6328 160.425 75.8087 160.385 75.7969C160.279 75.7663 160.323 75.6017 160.201 75.5874C160.19 75.5863 160.06 75.7474 160.037 75.7283C159.859 75.5857 159.814 75.356 159.649 75.1898C159.566 75.1064 159.337 75.0433 159.267 74.9442C159.144 74.773 159.167 74.3815 158.99 74.315C158.876 74.2712 158.753 74.4385 158.622 74.508C158.368 74.6432 158.581 74.1759 158.616 74.1051C158.617 74.1031 158.721 74.1329 158.755 74.0204C158.883 73.8385 158.618 74.1053 158.616 74.1051C158.638 74.0589 158.522 73.888 158.466 73.8903C158.436 73.8916 158.313 74.0435 158.299 74.0415C157.985 73.9901 157.759 73.852 157.624 73.6098C157.623 73.6038 157.774 73.4454 157.77 73.4333C157.721 73.2594 157.472 73.3959 157.274 73.4331C157.073 73.4672 157.032 73.3616 157.221 73.0287C157.117 73.0011 157.121 72.7858 157.126 72.6578C157.131 72.5298 156.847 72.8464 156.836 72.8483C156.499 72.9144 156.562 72.6501 156.418 72.4809C156.352 72.4016 156.144 72.31 156.026 72.2743C155.931 72.2459 155.951 72.134 155.846 72.1314C155.832 72.131 155.723 72.2857 155.715 72.2892C155.502 72.4081 155.826 72.0748 155.862 71.9983C155.996 71.7202 156.061 71.5673 155.88 71.6043C155.838 71.6124 155.363 72.0868 155.301 72.0877C155.221 72.0876 155.387 71.9142 155.299 71.919C155.292 71.9192 155.202 72.0361 155.174 72.006C155.043 71.8682 154.92 71.6666 154.752 71.5588C154.729 71.5435 154.617 71.7515 154.582 71.7327C154.418 71.6443 154.263 71.5198 154.185 71.3284C154.166 71.2807 154.283 71.1638 154.304 71.1189C154.429 70.8467 154.111 71.1442 154.095 71.1428C153.706 71.1174 153.719 70.657 153.343 70.6265C153.321 70.6247 152.958 70.9332 153.121 70.5702C153.132 70.5462 153.299 70.1754 153.103 70.3754C153.09 70.388 153.01 70.5823 152.965 70.5281C152.92 70.4736 152.756 70.5321 152.8 70.2914C152.815 70.2157 152.969 69.8393 152.726 70.0641C152.709 70.0794 152.218 70.6246 152.44 70.1762C152.476 70.1025 152.759 69.6568 152.53 69.8342C152.486 69.8689 152.455 69.9876 152.374 70.0239C152.249 70.0809 152.232 69.9056 152.027 70.0577C151.991 70.0847 151.749 70.3572 151.837 70.0939C151.85 70.0526 151.954 69.9091 151.937 69.8767C151.859 69.7218 151.67 69.7497 151.603 69.573C151.579 69.5107 151.74 69.2745 151.729 69.1815C151.718 69.0883 151.658 68.9716 151.545 69.0588C151.432 69.1459 151.273 69.5752 151.181 69.5671C150.781 69.5326 150.593 69.1408 150.276 68.9495C150.229 68.9214 150.201 69.0873 150.128 69.057C149.856 68.9435 149.355 68.8956 149.245 68.4834C149.156 68.1524 149.472 68.0495 149.366 67.8876C149.313 67.8096 149.05 68.2743 149.028 68.2838C148.806 68.3812 148.774 68.1215 148.599 68.1368C148.563 68.1403 148.524 68.3529 148.495 68.3537C148.394 68.3585 148.332 68.2371 148.241 68.2263C148.201 68.222 148.158 68.3798 148.127 68.3567C148.053 68.3035 148.001 68.2155 147.963 68.0443C147.96 68.0287 148.069 67.8495 148.009 67.8234C147.912 67.7821 147.821 67.5989 147.661 67.7165C147.613 67.752 147.514 68.1117 147.506 67.8428C147.505 67.7867 147.639 67.3587 147.452 67.7099C147.42 67.7677 147.148 68.237 147.158 67.8932C147.16 67.8026 147.197 67.4343 147.141 67.4802C147.133 67.4878 147.11 67.6882 147.071 67.699C146.932 67.7335 146.807 67.6837 146.667 67.7186C146.63 67.7284 146.637 67.9418 146.584 67.9501C146.437 67.9731 146.278 67.889 146.155 67.8016C146.109 67.7689 146.173 67.6057 146.173 67.5866C146.165 67.2766 146.06 67.6754 146.037 67.6958C145.894 67.8172 145.832 67.6126 145.712 67.6468C145.679 67.6558 145.673 67.8527 145.665 67.8691C145.578 68.029 145.674 67.6876 145.639 67.6436C145.542 67.5191 145.412 67.5185 145.294 67.53C145.25 67.5346 145.272 67.7655 145.234 67.7671C145.008 67.7808 144.782 67.7384 144.571 67.5985C144.531 67.5718 144.569 67.3992 144.563 67.3588C144.521 67.0759 144.408 67.4508 144.386 67.486C144.286 67.6463 144.259 67.4902 144.176 67.5154C143.775 67.6405 143.294 67.5365 142.91 67.4858C142.418 67.4204 142.01 67.2824 141.538 67.3731C141.508 67.3787 141.562 67.6069 141.536 67.6147C141.208 67.7048 140.863 67.6573 140.536 67.774C140.51 67.7832 140.582 67.9952 140.54 68.0172C140.455 68.064 140.339 68.0702 140.235 68.0159C140.184 67.9898 140.214 67.7932 140.164 67.7709C140.044 67.7187 139.929 67.7227 139.827 67.7768C139.783 67.8003 139.892 68.0098 139.833 68.023C139.431 68.1182 139.038 68.2382 138.56 68.0467C138.528 68.0335 138.401 67.5925 138.358 67.6924C138.382 67.8173 138.416 67.963 138.444 68.096C137.859 68.3057 137.221 68.3075 136.614 68.4539C136.588 68.4602 136.698 68.6813 136.649 68.6946C136.365 68.7716 136.099 68.9201 135.744 68.7764C135.708 68.7627 135.598 68.3497 135.531 68.4377C135.52 68.4536 135.407 68.548 135.401 68.647C135.401 68.6617 135.484 68.8447 135.444 68.8632C135.213 68.9668 134.937 69.0072 134.664 68.9684C134.619 68.9619 134.595 68.7467 134.562 68.7404C134.331 68.6976 134.167 68.9223 133.915 68.8042C133.745 68.7246 133.675 68.3611 133.489 68.0426C133.463 67.9977 133.38 68.0176 133.308 67.8202C133.126 67.3241 132.978 66.7631 132.779 66.2358C132.737 66.1221 132.668 66.2838 132.639 65.984C132.637 65.9638 132.686 65.8442 132.674 65.7433C132.665 65.6735 132.571 65.4798 132.571 65.3868C132.571 65.2939 132.66 65.4528 132.674 65.339C132.687 65.2239 132.589 65.0006 132.673 64.9415ZM157.145 72.0847C157.22 71.8813 156.732 72.4473 156.907 72.3606C156.916 72.3558 157.142 72.0948 157.145 72.0847ZM163.655 78.3034C163.832 78.0073 163.427 78.2838 163.287 78.5073C163.146 78.7303 163.602 78.3931 163.655 78.3034ZM164.508 78.8891C164.625 78.6302 163.823 79.3242 164.064 79.2722C164.078 79.2694 164.501 78.9042 164.508 78.8891ZM133.775 67.8374C133.771 67.8283 133.71 67.8385 133.712 67.8483C133.757 68.0836 133.878 68.0633 133.775 67.8374ZM165.379 79.4778C165.464 79.3568 165.273 79.3901 165.168 79.5408C165.083 79.6618 165.274 79.6284 165.379 79.4778ZM154.542 69.1028C154.548 69.0929 154.518 69.0605 154.483 69.1132C154.372 69.2831 154.454 69.269 154.542 69.1028ZM166.514 80.7681C166.377 80.5459 166.938 79.8559 167.047 80.1345C167.067 80.185 166.764 80.2328 166.746 80.3336C166.714 80.5174 167.184 80.2199 167.039 80.5045C167.012 80.5563 166.521 80.7819 166.513 80.7685C166.514 80.7684 166.514 80.7682 166.514 80.7681ZM157.691 71.3701C157.696 71.3615 157.656 71.316 157.649 71.3226C157.472 71.4838 157.551 71.5753 157.691 71.3701ZM152.601 67.3747C152.608 67.3545 152.495 67.2706 152.48 67.2849C152.233 67.5922 152.46 67.7621 152.601 67.3747ZM161.088 73.7217C161.303 73.5973 161.378 73.6313 161.205 73.8821C161.17 73.8251 161.126 73.7789 161.088 73.7217Z" fill="black"/>
<path d="M64.143 63.7729C63.9422 63.6469 63.6375 63.6325 63.3967 63.6646C63.3213 63.6743 63.3199 63.8115 63.2664 63.8241C63.1627 63.8487 63.0907 63.7614 62.9831 63.7956C62.9472 63.8075 62.9296 64.0203 62.8932 64.0282C62.6946 64.0701 62.5446 63.9744 62.3582 63.9711C61.4421 63.9564 60.5634 63.824 59.6584 63.7306C59.3615 63.6998 58.9609 63.814 58.6756 63.6761C58.6421 63.6598 58.697 63.4826 58.693 63.4664C58.6294 63.2181 58.5969 63.5904 58.5193 63.6264C58.2128 63.7687 57.8993 63.7323 57.6466 63.6204C57.5387 63.5722 57.7086 63.2284 57.5629 63.4135C57.5529 63.426 57.5514 63.6238 57.5173 63.6396C57.4403 63.6751 57.3133 63.6206 57.257 63.6281C57.1475 63.6432 57.1294 63.6386 57.0291 63.6267C56.8912 63.6121 56.7163 63.6869 56.5762 63.6245C56.5462 63.6106 56.6127 63.4168 56.5669 63.3767C56.521 63.3365 56.3864 63.3374 56.3364 63.3792C56.2864 63.421 56.2871 63.5798 56.2751 63.6148C56.1765 63.9102 56.0719 63.4736 56.052 63.461C55.7067 63.2448 55.3736 63.4564 55.0373 63.4312C54.778 63.4112 54.5054 63.316 54.2586 63.3163C53.9661 63.3177 53.7105 63.4196 53.4263 63.3979C53.3961 63.3959 53.4338 63.1604 53.3967 63.1575C53.0038 63.1266 52.6058 63.1585 52.2211 63.3337C52.1826 63.3515 52.2415 63.5563 52.2038 63.5864C51.9709 63.7659 51.6354 64.1969 51.4249 63.3095C51.2646 63.3569 51.0693 63.4108 50.9431 63.6061C50.8621 63.7318 50.9748 63.947 50.8521 63.8629C50.8244 63.8443 50.8369 63.6443 50.7966 63.6313C50.6262 63.5766 50.4565 63.6614 50.2826 63.5811C50.2471 63.5643 50.233 63.3877 50.2194 63.3573C50.1059 63.1118 50.032 63.553 50.0089 63.5877C49.8262 63.8476 49.6597 63.7818 49.4612 63.8212C49.4153 63.8305 49.4298 63.5867 49.3838 63.5874C49.1459 63.5937 48.9057 63.6602 48.7025 63.8099C48.6575 63.8438 48.7445 64.0326 48.7253 64.0589C48.641 64.1724 48.5379 63.8033 48.4544 63.9062C48.4368 63.9274 48.486 64.0941 48.4862 64.1135C48.4911 64.4185 48.3471 64.0168 48.3291 64.0113C48.1028 63.9318 48.0803 64.392 47.8788 64.378C47.8544 64.376 47.8513 64.1505 47.786 64.1579C47.3538 64.2049 46.9147 64.3938 46.5663 64.6895C46.5116 64.7353 46.6069 64.8779 46.609 64.8985C46.6425 65.2211 46.4707 64.8298 46.4449 64.8214C46.2462 64.765 46.2122 65.1535 45.9356 64.7135C45.3142 65.116 44.5302 65.1254 44.0641 65.8333C44.058 65.8418 44.1589 66.0261 44.1464 66.0423C43.9983 66.2386 43.8996 65.9261 43.6017 65.6254C43.5262 65.5501 43.6316 66.0318 43.6385 66.0676C43.6625 66.1999 43.8285 66.4661 43.8288 66.4938C43.8277 66.7129 43.3985 65.7757 43.2777 65.8336C43.2747 65.8369 43.3729 66.0001 43.3711 66.0219C43.3659 66.0902 43.3021 66.0374 43.3003 66.1109C43.2967 66.2809 43.4945 66.7415 43.2604 66.5324C43.2301 66.5053 42.9904 65.9714 42.8951 66.0501C42.8578 66.0814 42.662 66.17 42.6282 66.2303C42.5942 66.2905 42.7161 66.4395 42.7162 66.4486C42.6939 66.7409 42.7936 66.8055 42.8973 67.1675C43.0014 67.5279 42.6113 66.7429 42.5376 66.6713C42.4638 66.5999 42.4595 66.8351 42.4689 66.9112C42.4782 66.9873 42.5653 67.0764 42.5627 67.1237C42.5445 67.4337 42.2927 66.7751 42.1783 66.6789C41.906 66.452 42.129 67.0711 42.0574 67.1839C42.0377 67.2146 41.9885 67.0726 41.9567 67.0745C41.8312 67.0842 41.8713 67.2943 41.6708 67.1948C41.6382 67.1785 41.3539 66.8911 41.4396 67.1729C41.4522 67.2134 41.5564 67.3401 41.5337 67.3953C41.4998 67.4779 41.4077 67.5729 41.3142 67.5654C41.2451 67.5598 41.1649 67.2971 41.1455 67.405C41.1371 67.4531 41.2675 67.5571 41.2452 67.6362C41.2232 67.7149 41.0896 67.7873 41.0371 67.8129C40.9847 67.8383 40.9067 67.6489 40.8956 67.6397C40.8307 67.5876 40.6836 67.5632 40.6751 67.5687C40.2451 67.8039 40.0444 68.3383 39.5826 68.5106C39.5471 68.524 39.449 68.3328 39.4424 68.333C39.2869 68.3295 39.6858 68.7453 39.7187 68.952C39.4877 68.5854 39.4882 68.6795 39.3873 68.6904C39.3385 68.6954 39.2639 68.5433 39.251 68.5313C39.0545 68.3568 39.2021 68.6544 39.2306 68.7164C39.335 68.9449 39.1315 68.7297 39.2011 68.8827C39.2702 69.0345 39.4627 69.1977 39.3902 69.2437C39.2823 69.1297 39.1058 68.7593 39.0141 68.7427C38.667 68.6793 38.4592 69.2154 38.3239 69.3542C38.1831 69.4963 38.1143 69.5113 38.0538 69.625C37.9445 69.8308 37.8286 69.543 37.6407 69.5107C37.4521 69.4793 37.945 70.0347 38.0246 70.1736C38.1047 70.3121 37.9908 70.1929 38.0246 70.2767C38.0585 70.3604 38.1627 70.4176 38.1393 70.4759C38.1161 70.534 37.8285 70.3963 37.7128 70.2754C37.4689 70.0181 37.2972 69.6845 37.2637 69.8726C37.2619 69.8836 37.4 70.023 37.3874 70.0572C37.2832 70.3239 37.0861 70.487 36.9716 70.7441C36.9561 70.7797 37.1132 70.9316 37.1057 70.9542C37.0285 71.1902 36.862 70.8574 36.5212 70.6097C36.8749 71.0177 37.0296 71.3156 36.9082 71.4159C36.8352 71.4765 36.7015 71.2819 36.5496 71.1907C36.5044 71.1627 36.5545 71.3296 36.4761 71.2505C36.2194 70.9921 36.0145 70.6368 35.9906 70.8629C35.9899 70.8733 36.1315 71.0138 36.1201 71.0383C36.0475 71.1976 35.795 70.9147 35.6328 70.9873C35.5055 71.0443 35.4656 71.3756 35.3702 71.5034C35.759 71.9687 35.559 71.9541 35.2455 71.6711C35.1788 71.7489 35.0792 71.8014 35.0453 71.9054C35.0332 71.9413 35.1625 72.062 35.1715 72.0792C35.3153 72.3471 35.021 72.0632 34.9945 72.0647C34.7192 72.0942 34.7763 72.4506 34.4116 72.3667C34.3986 72.3636 34.1141 72.0526 34.2694 72.3247C34.2804 72.3433 34.4612 72.4405 34.3914 72.5201C34.3215 72.6 34.3198 72.9002 34.0806 72.85C34.0228 72.838 33.7293 72.6405 33.8538 72.8867C33.8707 72.9201 33.958 73.0042 33.9923 73.0635C34.1012 73.253 33.8023 72.9489 34.003 73.2541C34.2036 73.5593 34.3043 73.8315 34.0316 73.7399C34.0233 73.7375 33.7739 73.5077 33.7435 73.5419C33.6951 73.5966 33.6649 73.7178 33.6067 73.7669C33.5787 73.7904 33.4564 73.6187 33.4491 73.62C33.1873 73.6969 33.1809 73.9541 33.0375 74.1941C33.0099 74.2398 32.7185 74.1187 32.8029 74.3477C32.8957 74.5981 33.6668 75.2866 33.332 75.2614C33.1979 75.2516 32.2246 74.3738 32.5592 74.9857C32.2042 75.0865 32.2114 75.5539 31.8078 75.6064C31.79 75.6087 31.506 75.376 31.4843 75.4034C31.4527 75.4445 31.5495 75.5873 31.5307 75.6207C31.4549 75.7634 31.2522 75.7555 31.1598 75.8754C31.1245 75.9206 31.2606 76.0339 31.2185 76.0879C31.1764 76.1418 30.983 76.0061 30.9941 76.1509C31.003 76.2608 31.2818 76.6501 31.2537 76.7541C30.9263 76.4207 30.8872 76.4719 30.7193 76.4628C30.6869 76.461 30.5905 76.3278 30.5693 76.3209C30.4806 76.2903 30.5464 76.4143 30.4538 76.377C30.4315 76.3681 30.3199 76.2541 30.2954 76.2404C30.0825 76.1195 30.2515 76.4562 30.2831 76.5127C30.398 76.7322 30.2292 76.607 30.2554 76.7122C30.2818 76.8172 30.4218 76.8435 30.416 76.9287C30.4037 77.1049 30.2641 77.2059 30.1727 77.3064C30.1356 77.3457 30.0122 77.1682 30.0034 77.1703C29.8857 77.2106 29.9643 77.4517 29.6211 77.1944C30.3381 78.0286 29.4978 77.1666 29.5375 77.437C29.5409 77.4586 29.8954 77.8378 29.9838 77.8574C30.072 77.8769 30.0102 77.7097 30.1417 77.7465C30.1728 77.755 30.5797 78.0362 30.6092 78.0485C30.8399 78.144 30.3046 77.5829 30.2784 77.549C29.9971 77.1809 30.4441 77.4757 30.4901 77.4812C30.7013 77.506 30.7051 77.3495 30.8668 77.3568C30.9719 77.361 31.3319 77.7193 31.3612 77.669C31.4595 77.5012 31.0182 76.942 31.5762 77.2566C31.6954 77.3236 32.0538 77.7492 31.8502 77.3388C31.8373 77.313 31.6343 76.9539 31.8525 77.0944C31.88 77.1121 31.9921 77.2288 32.0086 77.2317C32.117 77.2494 32.0592 77.1261 32.1535 77.1211C32.2478 77.1161 32.3732 77.1234 32.3937 77.0278C32.4063 76.9704 32.2434 76.7092 32.2094 76.6397C32.1105 76.4402 32.4019 76.6441 32.254 76.4295C32.1056 76.2136 31.7764 75.9844 31.7399 75.7886C32.0322 76.0906 32.3358 76.3972 32.6314 76.6995C32.788 76.5304 32.8722 76.2643 33.0606 76.1134C33.0843 76.095 33.2164 76.2809 33.2457 76.2654C33.3687 76.1996 33.3448 76.0018 33.4901 75.9545C33.6031 75.9186 33.8513 76.0151 33.9734 75.9846C33.6975 75.5848 33.9293 75.5937 33.987 75.4815C34.0074 75.4423 33.9188 75.3493 33.9124 75.2984C33.8918 75.1075 34.1392 75.4571 34.2073 75.4855C34.4998 75.6055 33.8619 74.8852 33.9972 74.795C34.0043 74.7898 34.4244 75.1015 34.4562 75.1159C34.6622 75.2106 34.3478 74.9732 34.3644 74.9074C34.3945 74.7873 34.3661 74.6483 34.5555 74.6805C34.6112 74.6904 34.8859 74.8738 34.7719 74.6444C34.757 74.6143 34.6408 74.4908 34.6396 74.4786C34.6265 74.269 34.9821 74.6656 35.1562 74.7525C35.3301 74.8394 35.1712 74.4895 35.1186 74.3947C34.9827 74.1493 35.0068 74.337 34.9866 74.319C34.7464 74.1039 34.8448 74.0908 34.8742 74.029C34.5367 73.6304 34.6239 73.5957 34.9061 73.9666C34.9368 74.0072 34.868 74.0027 34.8742 74.029C35.2525 74.3787 35.3706 74.3625 35.1394 73.9289C35.0311 73.7258 34.8226 73.5603 35.0043 73.5293C35.0865 73.5153 35.301 73.8051 35.4124 73.8384C35.6661 73.9147 35.5867 73.5408 35.7316 73.4868C35.784 73.4673 35.8727 73.6503 35.9129 73.6422C36.0197 73.6213 35.9878 73.4547 36.109 73.4514C36.1201 73.4513 36.2371 73.6222 36.2612 73.6053C36.4443 73.4821 36.5128 73.2526 36.6942 73.0978C36.7818 73.0231 37.0114 72.9816 37.0876 72.8901C37.2204 72.7322 37.2257 72.3433 37.4048 72.2936C37.5234 72.2587 37.6326 72.4353 37.7583 72.5147C38.0016 72.669 37.8306 72.1832 37.8021 72.1096C37.8011 72.1072 37.6935 72.1301 37.6695 72.0143C37.5575 71.822 37.8007 72.1096 37.8021 72.1096C37.7837 72.062 37.9096 71.9042 37.9643 71.9116C37.9942 71.9157 38.1047 72.0771 38.1179 72.0763C38.4311 72.0543 38.6604 71.9414 38.8145 71.7111C38.8159 71.7052 38.6789 71.5349 38.6839 71.523C38.7498 71.352 38.9891 71.5069 39.1843 71.5598C39.3794 71.6126 39.4266 71.5123 39.2654 71.1658C39.3692 71.1484 39.3807 70.9354 39.3849 70.8086C39.3892 70.6817 39.6454 71.0211 39.6558 71.024C39.9798 71.123 39.9454 70.8493 40.1059 70.6912C40.1822 70.6151 40.389 70.5476 40.508 70.523C40.6025 70.504 40.591 70.3915 40.6941 70.399C40.7079 70.3999 40.8043 70.5632 40.8112 70.5674C41.0121 70.7053 40.7185 70.345 40.6881 70.2659C40.5781 69.9779 40.5216 69.8231 40.7021 69.8732C40.7436 69.8846 41.1771 70.3969 41.2395 70.4026C41.3204 70.4088 41.1695 70.2221 41.2577 70.2337C41.2652 70.2345 41.3445 70.3586 41.3757 70.3306C41.5214 70.2024 41.6506 70.0185 41.8246 69.9273C41.848 69.9144 41.9428 70.1307 41.9784 70.1155C42.1428 70.0457 42.3139 69.9309 42.4098 69.7459C42.4333 69.6996 42.3257 69.5734 42.3089 69.5268C42.209 69.244 42.4992 69.5685 42.5147 69.5687C42.8982 69.5808 42.9138 69.1264 43.2992 69.1237C43.3209 69.124 43.6604 69.46 43.5269 69.0859C43.5179 69.0611 43.3814 68.6781 43.5588 68.8948C43.5698 68.9084 43.6343 69.1084 43.6822 69.0589C43.7303 69.0093 43.8869 69.0828 43.8608 68.8401C43.8529 68.7635 43.7271 68.3771 43.9516 68.621C43.9679 68.6376 44.4129 69.2216 44.23 68.7557C44.1998 68.6791 43.9558 68.2113 44.1698 68.4067C44.2108 68.4448 44.2314 68.5659 44.3103 68.6087C44.431 68.6751 44.4626 68.5022 44.6509 68.6722C44.6843 68.7022 44.9019 68.9948 44.8353 68.7256C44.825 68.6834 44.7341 68.5316 44.7527 68.501C44.8404 68.3547 45.0254 68.3986 45.1094 68.2269C45.1393 68.1665 44.9978 67.9179 45.0168 67.8258C45.0357 67.7337 45.1081 67.6214 45.2127 67.7177C45.3169 67.8143 45.4417 68.2547 45.5327 68.2548C45.9222 68.2579 46.1561 67.8762 46.4813 67.7127C46.5292 67.6886 46.5447 67.8561 46.6188 67.8318C46.8913 67.7424 47.412 67.7266 47.5446 67.3255C47.6552 67.0021 47.3497 66.8763 47.4659 66.7229C47.5245 66.6488 47.7551 67.1305 47.7766 67.1415C47.9932 67.2534 48.0462 66.9957 48.2182 67.0233C48.2535 67.0292 48.2785 67.2439 48.3076 67.2467C48.4073 67.2583 48.4778 67.1413 48.5687 67.1364C48.61 67.1345 48.6425 67.2947 48.6752 67.2736C48.7541 67.2249 48.8134 67.1399 48.8631 66.9711C48.8677 66.9557 48.7688 66.7703 48.832 66.7477C48.9339 66.712 49.0332 66.5351 49.187 66.6618C49.2328 66.7 49.3103 67.065 49.3341 66.7969C49.3391 66.741 49.2292 66.3059 49.3961 66.6672C49.4254 66.7268 49.6736 67.2101 49.6838 66.8659C49.6866 66.7753 49.6704 66.4053 49.7249 66.4541C49.7324 66.4621 49.7445 66.6635 49.7838 66.6763C49.9215 66.718 50.0499 66.6747 50.189 66.7163C50.226 66.7278 50.2073 66.9407 50.261 66.9515C50.4082 66.9815 50.5752 66.9044 50.7047 66.8222C50.7525 66.7915 50.6954 66.6256 50.6966 66.6066C50.7186 66.2971 50.8059 66.7 50.8283 66.7214C50.9684 66.8486 51.04 66.6465 51.16 66.6853C51.1928 66.6955 51.1907 66.8925 51.1987 66.9092C51.2803 67.0723 51.1966 66.7275 51.2338 66.6848C51.3383 66.564 51.4699 66.5678 51.5892 66.5833C51.633 66.5893 51.6029 66.8194 51.6417 66.8222C51.871 66.8433 52.1041 66.8074 52.3213 66.6729C52.3623 66.6472 52.3285 66.4737 52.3356 66.4334C52.3857 66.1518 52.4906 66.5292 52.5117 66.5649C52.61 66.7275 52.6413 66.572 52.7247 66.5989C53.1303 66.7327 53.6221 66.6355 54.0105 66.5877C54.5102 66.5261 54.9198 66.3882 55.3989 66.4769C55.4294 66.4824 55.3761 66.7108 55.402 66.7185C55.7384 66.8075 56.0793 66.7559 56.4138 66.8687C56.4411 66.8775 56.3713 67.0905 56.414 67.112C56.5013 67.1577 56.6194 67.1623 56.7233 67.1064C56.773 67.0794 56.7402 66.8835 56.79 66.8602C56.9062 66.8057 57.0232 66.8077 57.1275 66.86C57.1717 66.8827 57.0661 67.0942 57.1261 67.1063C57.5363 67.1946 57.93 67.3047 58.4066 67.1011C58.4393 67.0871 58.554 66.6428 58.5993 66.7415C58.579 66.8671 58.5494 67.0136 58.5247 67.1473C59.1141 67.3401 59.7562 67.3221 60.3666 67.4462C60.3926 67.4515 60.2905 67.6764 60.3403 67.6879C60.6282 67.7549 60.8961 67.8925 61.247 67.7353C61.2822 67.7201 61.3758 67.3031 61.4459 67.3885C61.4581 67.4038 61.5741 67.4936 61.5839 67.5923C61.5848 67.607 61.5095 67.7932 61.5499 67.81C61.7849 67.9044 62.0595 67.9327 62.3306 67.8824C62.375 67.8741 62.3909 67.6581 62.4231 67.6504C62.6518 67.5976 62.8243 67.8149 63.0702 67.6856C63.2354 67.5986 63.2903 67.2324 63.461 66.906C63.4851 66.86 63.5684 66.876 63.6319 66.6757C63.7919 66.1719 63.9152 65.6051 64.0903 65.0695C64.128 64.9541 64.2025 65.1123 64.2193 64.8116C64.2203 64.7915 64.1668 64.6743 64.1748 64.5731C64.1803 64.503 64.2655 64.3053 64.2618 64.2125C64.258 64.1197 64.1765 64.2826 64.1584 64.1696C64.1407 64.0554 64.2293 63.8279 64.143 63.7729ZM39.41 70.2386C39.3532 70.0287 39.7928 70.6337 39.6245 70.5335C39.6159 70.528 39.4126 70.249 39.41 70.2386ZM32.4839 75.8556C32.33 75.5476 32.7108 75.8555 32.8346 76.0885C32.9585 76.3212 32.5306 75.949 32.4839 75.8556ZM31.5917 76.3706C31.4938 76.1043 32.2395 76.8584 32.0042 76.7869C31.9908 76.783 31.5974 76.3861 31.5917 76.3706ZM63.1687 66.714C63.1724 66.7048 63.2329 66.7122 63.2316 66.722C63.1964 66.959 63.0757 66.9442 63.1687 66.714ZM30.6825 76.8853C30.6075 76.7581 30.7986 76.8031 30.8906 76.9625C30.9643 77.0909 30.7758 77.0436 30.6825 76.8853ZM42.2323 67.5043C42.2279 67.494 42.2612 67.4639 42.2911 67.5194C42.387 67.6982 42.3065 67.6775 42.2323 67.5043ZM29.4633 78.0743C29.6159 77.8649 29.1074 77.1351 28.9792 77.4029C28.956 77.4514 29.254 77.5232 29.2642 77.6246C29.2827 77.8095 28.8378 77.4768 28.961 77.7708C28.9838 77.8242 29.4561 78.0875 29.4645 78.0749C29.4641 78.0747 29.4637 78.0745 29.4633 78.0743ZM38.9272 69.48C38.9227 69.471 38.9672 69.4283 38.974 69.4355C39.1374 69.6107 39.0486 69.6966 38.9272 69.48ZM44.2976 65.9529C44.2921 65.9322 44.4138 65.8571 44.4258 65.8732C44.6475 66.1998 44.4062 66.3506 44.2976 65.9529ZM35.3787 71.5174C35.175 71.3759 35.0948 71.406 35.2456 71.6707C35.2866 71.6158 35.3366 71.5712 35.3787 71.5174Z" fill="black"/>
<path d="M82.9801 127.798C77.7792 133.265 78.4064 136.862 79.7029 139.119L84.8526 140.931C87.2625 138.109 89.0663 137.761 91.4071 140.931H94.216C95.6205 138.213 98.3465 137.828 100.302 140.931L104.984 139.119C107.378 137.353 109.697 133.706 103.111 127.798" stroke="black"/>
<path d="M85.3516 140.886C87.5105 138.355 89.4311 138.674 90.9695 140.931L85.3516 140.886Z" fill="#3F3D3D"/>
<path d="M94.7148 140.931C96.1193 138.213 98.3263 138.674 99.8646 140.931L94.7148 140.931Z" fill="#3F3D3D"/>
<g filter="url(#filter2_f_718_2780)">
<ellipse cx="21.1662" cy="20.4642" rx="21.1662" ry="20.4642" transform="matrix(0.889276 0.457371 -0.481709 0.876331 144.393 111.495)" fill="#936233"/>
</g>
<g filter="url(#filter3_f_718_2780)">
<ellipse cx="9.93892" cy="13.3713" rx="9.93892" ry="13.3713" transform="matrix(0.943249 -0.332086 0.352171 0.935935 32.9312 123.789)" fill="#936233"/>
</g>
<path d="M199.152 120.997C210.2 99.8608 195.407 100.619 194.003 110.128C192.598 119.638 197.223 115.198 190.257 124.62" stroke="black"/>
<path d="M82.543 127.798C88.4104 122.782 89.5431 121.607 91.9062 113.307" stroke="black"/>
<path d="M73.4937 162.024C91.4833 159.082 96.9531 157.812 115.842 160.359C99.3306 176.685 90.8634 178.483 73.4937 162.024Z" fill="#9C5C65" stroke="black" stroke-width="0.5"/>
<path d="M116.288 160.095C93.2043 176.804 89.1451 176.624 73.4937 162.024C78.7237 170.508 82.026 174.824 90.6995 175.641C99.3731 176.457 106.836 172.391 116.288 160.095Z" fill="#8A5649" stroke="black" stroke-width="0.5"/>
<path d="M115.393 160.08C97.1395 155.538 99.9628 154.885 91.7963 156.713C91.7963 156.713 87.8636 155.871 84.3678 156.713C80.872 157.554 73.4434 161.764 73.4434 161.764C88.3286 159.135 93.389 157.858 115.393 160.08Z" fill="#8A5649"/>
<path d="M68.1997 160.922L73.4434 161.764M73.4434 161.764C88.3286 159.135 93.389 157.858 115.393 160.08M73.4434 161.764C73.4434 161.764 80.872 157.554 84.3678 156.713C87.8636 155.871 91.7963 156.713 91.7963 156.713C99.9628 154.885 97.1395 155.538 115.393 160.08M115.393 160.08L120.2 158.396" stroke="black" stroke-width="0.5"/>
<path d="M52.2003 176C12.7003 204.5 20.9393 225.736 21.0042 264C15.5043 289.5 15.4358 295.142 15.7 315.5" stroke="#704C38"/>
<defs>
<filter id="filter0_f_718_2780" x="45.1" y="234.1" width="11.8" height="8.8" filterUnits="userSpaceOnUse" color-interpolation-filters="sRGB">
<feFlood flood-opacity="0" result="BackgroundImageFix"/>
<feBlend mode="normal" in="SourceGraphic" in2="BackgroundImageFix" result="shape"/>
<feGaussianBlur stdDeviation="0.95" result="effect1_foregroundBlur_718_2780"/>
</filter>
<filter id="filter1_f_718_2780" x="107.1" y="236.1" width="11.8" height="9.8" filterUnits="userSpaceOnUse" color-interpolation-filters="sRGB">
<feFlood flood-opacity="0" result="BackgroundImageFix"/>
<feBlend mode="normal" in="SourceGraphic" in2="BackgroundImageFix" result="shape"/>
<feGaussianBlur stdDeviation="0.95" result="effect1_foregroundBlur_718_2780"/>
</filter>
<filter id="filter2_f_718_2780" x="126.605" y="113.226" width="53.5039" height="51.7669" filterUnits="userSpaceOnUse" color-interpolation-filters="sRGB">
<feFlood flood-opacity="0" result="BackgroundImageFix"/>
<feBlend mode="normal" in="SourceGraphic" in2="BackgroundImageFix" result="shape"/>
<feGaussianBlur stdDeviation="2.75" result="effect1_foregroundBlur_718_2780"/>
</filter>
<filter id="filter3_f_718_2780" x="31.0215" y="114.557" width="31.9868" height="36.8916" filterUnits="userSpaceOnUse" color-interpolation-filters="sRGB">
<feFlood flood-opacity="0" result="BackgroundImageFix"/>
<feBlend mode="normal" in="SourceGraphic" in2="BackgroundImageFix" result="shape"/>
<feGaussianBlur stdDeviation="2.75" result="effect1_foregroundBlur_718_2780"/>
</filter>
</defs>
</svg>
