<svg width="221" height="382" viewBox="0 0 221 382" fill="none" xmlns="http://www.w3.org/2000/svg">
<path d="M215.5 238.44C211.5 209.44 197 173.969 161.788 173.969H64.4922L61.672 175.767C61.672 175.767 40.9906 180.263 34.8802 200.496C28.7698 220.729 27.3596 258.946 27.3596 258.946C23.1293 281.877 4.07558 371.096 2.91797 377.831C11.3663 382.174 165.776 378.585 177.77 377.831H206.347H215.5C217.38 364.818 221.38 351.41 219.5 315.44C219.5 297.006 219.5 267.44 215.5 238.44Z" fill="#92683F" stroke="black"/>
<path d="M164.7 174C162.464 173.875 130.51 206.972 73.1997 186.5C80.3199 194.928 113.195 197.788 135.607 195.292C153.141 193.34 166.936 174.125 164.7 174Z" fill="#8B6035"/>
<path d="M27.5 201C39.5002 181 57.4998 173 57.4998 173L70.2458 181.695L17.278 328.695C14.5 314.5 16.2005 282.295 20 269C23.7995 255.705 15.4998 221 27.5 201Z" fill="#92683F"/>
<path d="M1.75816 381C-3.65841 359.737 21.937 295.073 15.7492 321.064C9.56144 347.056 192.438 353.092 187.771 324.725C183.104 296.358 202.359 342.901 200.923 381H1.75816Z" fill="white" stroke="black"/>
<path d="M17.3219 270.546C18.8112 266.237 14.3006 213.238 33.4382 207.863C52.5758 202.489 167.578 210.449 167.578 210.449C182.746 241.473 176.136 253.969 176.136 261.294C192.7 328.082 196.992 322.911 174.511 336.041C152.029 349.171 30.7704 345.976 17.3219 329.375C3.87344 312.773 15.8327 274.855 17.3219 270.546Z" fill="#92683F"/>
<path d="M36.5784 210.222C30.5 215.5 18.0931 236.937 18.0931 268.823C10.8753 294.277 8.24232 314.301 15.7231 327.424C23.2038 340.547 155.729 356.521 188.434 327.651" stroke="black"/>
<path d="M52.4655 311.162C55.738 308.072 59.9452 308.955 61.8151 311.162C63.685 313.369 49.1931 314.252 52.4655 311.162Z" fill="#77522E"/>
<g filter="url(#filter0_f_718_2781)">
<ellipse cx="44.9824" cy="240.662" rx="4" ry="2.5" fill="#77522E"/>
</g>
<g filter="url(#filter1_f_718_2781)">
<ellipse cx="103.982" cy="243.162" rx="4" ry="3" fill="#77522E"/>
</g>
<path d="M156 349.462C156 347.209 157.935 341.352 157.935 341.352L166.645 340L171 369.288C171 369.288 168.581 371.991 163.258 374.695C163.119 374.765 162.988 374.833 162.864 374.898C160.961 376.409 160.143 376.325 162.864 374.898C164.196 373.84 166.06 371.999 167.613 369.288C171.484 362.529 162.774 371.991 163.258 369.288C163.742 366.584 162.775 373.793 166.645 360.727C170.516 347.66 161.806 356.221 159.387 357.122C156.968 358.023 163.258 354.419 164.226 347.66C165.193 340.901 156 351.715 156 349.462Z" fill="#D9D9D9"/>
<path d="M163.603 331.194C163.682 331.316 163.673 331.441 163.581 331.569C164.529 333.474 166 336.682 166 338.687C166 342.434 112.332 344.311 90.577 341.965C64.1714 343.773 160.504 335.875 163.581 331.569C162.758 329.913 162.329 329.24 163.603 331.194Z" fill="#7F5B38"/>
<path d="M1.78437 380.591C0.512019 369.331 4.20885 343.354 15.6997 317.5C8.84872 333.738 18.0551 341.887 18.0551 345.042C18.0551 348.197 12.3827 334.676 11.437 341.887C10.4912 349.099 8.60063 355.859 11.437 358.113C14.2733 360.366 18.0551 363.972 18.0551 363.972C18.0551 363.972 11.603 360.504 8.60063 362.62C4.4016 365.579 25.6186 372.986 18.0551 371.634C10.4915 370.282 7.18247 366.225 7.18247 369.831C7.18247 373.437 23.7277 379.746 11.437 378.845C4.15019 378.311 2.18044 379.519 1.78437 380.591C1.84075 381.09 1.90689 381.56 1.98253 382C1.98253 382 1.51239 381.328 1.78437 380.591Z" fill="#E6E6E6"/>
<path d="M200.726 380C202.592 364.545 194.471 329.435 189.997 320C193.641 336.331 196.061 343.636 194.195 347.273C192.33 350.909 188.17 353.182 187.198 355.455C186.226 357.727 193.729 352.273 196.061 355.455C198.394 358.636 194.195 360.909 194.195 360.909C194.195 360.909 188.131 361.364 184.866 365C181.601 368.636 194.195 362.727 194.195 367.273C194.195 371.818 192.796 370 187.198 374.091C181.601 378.182 191.397 375 188.598 376.591C185.799 378.182 183 380 183 380H200.726Z" fill="#D1D1D1"/>
<path d="M33 357C58.9009 364.408 96.2338 366.378 130 363.146C105.981 372.804 62.1992 366.631 33 357Z" fill="#D9D9D9"/>
<path d="M154.658 268.984C146.04 253.718 144.927 243.114 146.741 222.312L199.831 206C210.46 243.563 215.691 264.216 215.665 302.062C215.665 343.75 224.127 365.717 211.2 381H175.7C168.004 367.735 172.066 358.25 165.835 336.047C158.086 308.435 150.24 293.585 154.658 268.984Z" fill="#92683F"/>
<path d="M144.302 225C143.226 245.505 144.783 262.64 152.947 273.07C146.704 305.721 160.631 316.151 166.395 338.826C169.622 351.523 169.276 373.744 176 381" stroke="black"/>
<path d="M18.2451 112.611C12.677 97.7396 27.2399 92.0198 33.2364 104.031L36.6628 121.762C36.6628 128.626 35.3779 133.773 27.6681 133.773C27.6681 133.773 21.3384 134.163 18.2451 112.611Z" fill="#92653A" stroke="black"/>
<path d="M21.8311 118.197C13.932 95.7797 28.472 98.5216 28.4945 108.128C28.5171 117.734 24.5763 112.714 30.1184 122.982" stroke="black"/>
<mask id="path-19-inside-1_718_2781" fill="white">
<path d="M112.542 1.89728C162.702 1.89728 203.366 36.1614 203.366 78.4285C203.366 93.1511 198.43 106.901 189.88 118.572C190.128 120.711 190.257 122.879 190.257 125.072C190.257 162.587 153.157 193 107.393 193C61.6276 193 24.5273 162.587 24.5273 125.072C24.5274 118.472 25.6773 112.091 27.8193 106.057C23.8805 97.4872 21.7188 88.1706 21.7188 78.4285C21.719 36.1615 62.3818 1.89741 112.542 1.89728Z"/>
</mask>
<path d="M112.542 1.89728C162.702 1.89728 203.366 36.1614 203.366 78.4285C203.366 93.1511 198.43 106.901 189.88 118.572C190.128 120.711 190.257 122.879 190.257 125.072C190.257 162.587 153.157 193 107.393 193C61.6276 193 24.5273 162.587 24.5273 125.072C24.5274 118.472 25.6773 112.091 27.8193 106.057C23.8805 97.4872 21.7188 88.1706 21.7188 78.4285C21.719 36.1615 62.3818 1.89741 112.542 1.89728Z" fill="#92683F"/>
<path d="M112.542 1.89728L112.542 0.897278L112.542 0.897278L112.542 1.89728ZM203.366 78.4285L204.366 78.4285L204.366 78.4285L203.366 78.4285ZM189.88 118.572L189.073 117.981L188.841 118.298L188.887 118.687L189.88 118.572ZM190.257 125.072L191.257 125.072L191.257 125.072L190.257 125.072ZM107.393 193L107.393 194L107.393 194L107.393 193ZM24.5273 125.072L23.5273 125.072V125.072H24.5273ZM27.8193 106.057L28.7617 106.392L28.8977 106.009L28.728 105.64L27.8193 106.057ZM21.7188 78.4285L20.7188 78.4285V78.4285H21.7188ZM112.542 1.89728V2.89728C162.317 2.89728 202.366 36.8674 202.366 78.4285L203.366 78.4285L204.366 78.4285C204.366 35.4555 163.087 0.897278 112.542 0.897278V1.89728ZM203.366 78.4285H202.366C202.366 92.9203 197.509 106.466 189.073 117.981L189.88 118.572L190.687 119.163C199.351 107.336 204.366 93.3818 204.366 78.4285H203.366ZM189.88 118.572L188.887 118.687C189.13 120.789 189.257 122.919 189.257 125.072L190.257 125.072L191.257 125.072C191.257 122.84 191.125 120.634 190.873 118.457L189.88 118.572ZM190.257 125.072H189.257C189.257 161.858 152.8 192 107.393 192L107.393 193L107.393 194C153.515 194 191.257 163.316 191.257 125.072H190.257ZM107.393 193V192C61.9849 192 25.5273 161.858 25.5273 125.072H24.5273H23.5273C23.5273 163.316 61.2704 194 107.393 194V193ZM24.5273 125.072L25.5273 125.072C25.5274 118.589 26.6566 112.322 28.7617 106.392L27.8193 106.057L26.877 105.723C24.6979 111.861 23.5274 118.354 23.5273 125.072L24.5273 125.072ZM27.8193 106.057L28.728 105.64C24.8467 97.1948 22.7188 88.0202 22.7188 78.4285H21.7188H20.7188C20.7188 88.321 22.9144 97.7796 26.9107 106.475L27.8193 106.057ZM21.7188 78.4285L22.7187 78.4285C22.719 36.8674 62.7668 2.89741 112.542 2.89728L112.542 1.89728L112.542 0.897278C61.9968 0.897411 20.719 35.4556 20.7188 78.4285L21.7188 78.4285Z" fill="black" mask="url(#path-19-inside-1_718_2781)"/>
<path d="M87.6926 131.874C92.0506 129.774 94.6808 129.545 98.9285 131.874" stroke="black" stroke-width="0.5"/>
<path d="M188.816 36.8641C159.849 -9.85557 73.1557 -9.79123 42.3179 30.427C57.7703 10.3568 117.66 14.7512 89.0971 30.427C109.017 27.452 137.786 30.5242 152.767 24.6371C167.748 18.7501 217.782 83.5838 188.816 36.8641Z" fill="#1F1A17" stroke="#311F15"/>
<path d="M157.009 104.058C135.176 58.1447 112.533 106.475 113.469 108.408C114.406 110.341 124.209 113.398 135.913 111.948C147.617 110.498 152.973 109.229 157.009 104.058Z" fill="#EBEBEB"/>
<path d="M38.5356 102.456C58.1984 55.8455 85.1689 105.348 84.3859 106.841C83.603 108.334 75.3022 111.337 61.4755 110.64C47.6488 109.944 42.7853 107.669 38.5356 102.456Z" fill="#EBEBEB"/>
<path d="M157.449 103.141C153.259 77.736 115.933 79.5251 112.505 107.435C112.505 107.435 114.79 113.876 136.12 112.087C157.449 110.298 157.449 103.141 157.449 103.141Z" stroke="black"/>
<path d="M204.949 115.849C212.603 101.872 193.392 94.8208 191.338 105.335C189.283 115.849 190.22 119.283 188.347 120.641C186.798 121.074 184.938 134.5 192.573 135.537C192.573 135.537 198.785 136.775 204.949 115.849Z" fill="#92653A"/>
<path d="M188.347 120.641C186.798 121.074 184.938 134.5 192.573 135.537C192.573 135.537 198.785 136.775 204.949 115.849C212.603 101.872 193.392 94.8208 191.338 105.335C189.283 115.849 190.22 119.283 188.347 120.641ZM188.347 120.641C189.896 120.209 186.475 122 188.347 120.641Z" stroke="black"/>
<path d="M113.441 107.872C118.799 79.6359 149.795 77.4914 157.449 103.226" stroke="black" stroke-width="3"/>
<path d="M162.13 100.886C159.418 101.751 157.696 100.956 155.576 97.0041L156.669 105.155L162.13 100.886Z" fill="black" stroke="black"/>
<path d="M37.599 101.381C41.9633 75.9755 80.8446 77.7646 84.4153 105.675C84.4153 105.675 82.0348 112.116 59.8169 110.326C37.599 108.537 37.599 101.381 37.599 101.381Z" stroke="black"/>
<path d="M83.479 106.112C77.8936 77.8754 45.5782 75.7308 37.5991 101.465" stroke="black" stroke-width="3"/>
<path d="M43.6852 97.5078C43.6852 104.761 48.5688 110.188 56.3256 110.188C64.0824 110.188 70.3705 105.666 70.3705 98.4135C70.7478 90.9775 62.8799 84.828 55.3893 85.7337C47.8987 86.6394 43.6852 90.2548 43.6852 97.5078Z" fill="#362C26"/>
<ellipse cx="8.42692" cy="9.057" rx="8.42692" ry="9.057" transform="matrix(-1 0 0 1 63.8162 87.9979)" fill="black"/>
<path d="M32.9176 99.1251C36.0172 99.9902 37.985 99.1955 40.4082 95.2435L39.1598 103.395L32.9176 99.1251Z" fill="black" stroke="black"/>
<ellipse cx="2.26368" cy="3.01824" rx="2.26368" ry="3.01824" transform="matrix(-0.742447 0.669904 0.742447 0.669904 58.5239 89.1669)" fill="#EBEBEB"/>
<path d="M119.996 99.3591C119.996 106.612 124.879 112.039 132.636 112.039C140.393 112.039 146.681 107.518 146.681 100.265C147.058 92.8289 139.19 86.6793 131.7 87.585C124.209 88.4907 119.996 92.1061 119.996 99.3591Z" fill="#362C26"/>
<ellipse cx="8.42692" cy="9.057" rx="8.42692" ry="9.057" transform="matrix(-1 0 0 1 140.127 89.8492)" fill="black"/>
<ellipse cx="2.26368" cy="3.01824" rx="2.26368" ry="3.01824" transform="matrix(-0.742447 0.669904 0.742447 0.669904 134.834 91.0182)" fill="#EBEBEB"/>
<path d="M132.673 64.9415C132.871 64.8059 133.179 64.7774 133.423 64.7987C133.499 64.805 133.506 64.9421 133.561 64.9523C133.668 64.9717 133.736 64.8815 133.847 64.9108C133.884 64.9211 133.909 65.1332 133.946 65.1395C134.149 65.1726 134.296 65.0703 134.485 65.0591C135.411 65.0047 136.297 64.8374 137.207 64.7147C137.513 64.6726 137.916 64.7757 138.202 64.6298C138.235 64.6125 138.176 64.4368 138.179 64.4205C138.238 64.1705 138.279 64.5419 138.358 64.5759C138.679 64.7083 138.99 64.6656 139.244 64.548C139.352 64.4975 139.174 64.1573 139.325 64.3393C139.335 64.3516 139.34 64.5494 139.375 64.5645C139.452 64.5986 139.583 64.541 139.641 64.5472C139.753 64.5601 139.771 64.5553 139.872 64.5417C140.011 64.5247 140.189 64.5967 140.33 64.5324C140.36 64.5181 140.291 64.3252 140.336 64.2844C140.383 64.2435 140.518 64.2428 140.571 64.2838C140.622 64.3248 140.623 64.4837 140.635 64.5185C140.739 64.8126 140.843 64.3747 140.862 64.362C141.212 64.1423 141.546 64.3523 141.893 64.326C142.156 64.3057 142.432 64.2111 142.683 64.2128C142.985 64.2157 143.24 64.3203 143.529 64.3026C143.56 64.301 143.525 64.065 143.563 64.0626C143.965 64.0374 144.37 64.0776 144.757 64.263C144.796 64.2818 144.731 64.485 144.768 64.5161C145.002 64.7018 145.326 65.1431 145.568 64.2636C145.73 64.3167 145.927 64.378 146.048 64.5783C146.125 64.7073 146.003 64.9178 146.131 64.8388C146.159 64.8213 146.154 64.6209 146.196 64.6096C146.371 64.5621 146.54 64.6544 146.72 64.5825C146.757 64.5674 146.779 64.3916 146.794 64.3619C146.919 64.1219 146.975 64.5664 146.997 64.6022C147.169 64.8709 147.342 64.8141 147.542 64.8646C147.589 64.8765 147.586 64.6321 147.632 64.6353C147.876 64.6555 148.111 64.7349 148.31 64.8976C148.354 64.9343 148.255 65.1174 148.273 65.1449C148.353 65.2637 148.478 64.9015 148.557 65.0098C148.574 65.0322 148.515 65.1955 148.513 65.2149C148.491 65.5194 148.661 65.1276 148.679 65.1233C148.913 65.0586 148.906 65.5191 149.108 65.5185C149.133 65.5182 149.15 65.2931 149.216 65.305C149.658 65.3847 150.075 65.6011 150.413 65.9261C150.466 65.9763 150.359 66.1111 150.356 66.1316C150.3 66.4514 150.501 66.0742 150.528 66.0679C150.736 66.0286 150.736 66.4166 151.046 65.9991C151.646 66.4525 152.431 66.5273 152.842 67.2741C152.848 67.283 152.732 67.4584 152.743 67.4755C152.873 67.6828 152.995 67.3783 153.32 67.1048C153.402 67.0366 153.259 67.5092 153.25 67.5444C153.215 67.6747 153.027 67.9256 153.025 67.9533C153.009 68.1729 153.515 67.2747 153.634 67.3442C153.636 67.3479 153.525 67.5021 153.525 67.5241C153.525 67.5931 153.594 67.5462 153.59 67.6201C153.582 67.7913 153.344 68.2326 153.594 68.0434C153.627 68.0188 153.911 67.5072 153.998 67.5929C154.032 67.6272 154.217 67.7299 154.247 67.7939C154.277 67.8574 154.142 67.9951 154.141 68.0043C154.142 68.2994 154.036 68.3546 153.903 68.7075C153.771 69.0588 154.226 68.3095 154.306 68.2448C154.386 68.1804 154.373 68.4166 154.358 68.4921C154.343 68.5676 154.247 68.6484 154.246 68.6961C154.242 69.009 154.547 68.3729 154.67 68.2876C154.96 68.0841 154.683 68.6809 154.744 68.7986C154.761 68.8305 154.822 68.6934 154.853 68.6978C154.976 68.7173 154.917 68.9226 155.129 68.8427C155.163 68.8295 155.473 68.569 155.365 68.8434C155.349 68.8828 155.234 68.9997 155.253 69.0573C155.281 69.1435 155.367 69.248 155.463 69.2498C155.533 69.251 155.634 68.9951 155.646 69.1053C155.65 69.1537 155.512 69.2467 155.526 69.3268C155.541 69.4066 155.666 69.4886 155.715 69.5181C155.764 69.5474 155.859 69.3656 155.87 69.3573C155.939 69.3107 156.086 69.2979 156.094 69.304C156.511 69.5809 156.671 70.1352 157.111 70.3421C157.146 70.359 157.26 70.1765 157.266 70.1774C157.424 70.1889 156.989 70.5679 156.941 70.7724C157.202 70.4265 157.194 70.5209 157.295 70.5417C157.344 70.5514 157.431 70.4059 157.445 70.3951C157.657 70.2388 157.486 70.5235 157.452 70.5831C157.33 70.8026 157.551 70.606 157.47 70.7531C157.389 70.8989 157.182 71.0442 157.252 71.0976C157.369 70.9935 157.575 70.6384 157.669 70.6306C158.027 70.6021 158.172 71.14 158.305 71.2979C158.437 71.4541 158.505 71.4758 158.558 71.5959C158.653 71.8133 158.792 71.5354 158.984 71.5205C159.172 71.5029 158.635 72.0161 158.544 72.1476C158.452 72.2787 158.575 72.1691 158.534 72.2494C158.493 72.3297 158.386 72.3787 158.403 72.438C158.42 72.497 158.716 72.3816 158.841 72.2704C159.106 72.0343 159.302 71.7144 159.322 71.9065C159.323 71.9177 159.174 72.0448 159.184 72.0803C159.269 72.358 159.456 72.5405 159.553 72.8099C159.566 72.8471 159.396 72.9851 159.402 73.0085C159.463 73.2529 159.657 72.9353 160.015 72.7147C159.629 73.0926 159.449 73.3757 159.559 73.483C159.625 73.5478 159.775 73.3651 159.932 73.2856C159.98 73.2616 159.917 73.4247 160.002 73.3524C160.28 73.1165 160.512 72.7783 160.519 73.0076C160.519 73.0181 160.367 73.1463 160.376 73.172C160.438 73.3387 160.713 73.0776 160.871 73.1655C160.995 73.2344 161.011 73.5712 161.098 73.7084C160.674 74.1421 160.871 74.14 161.205 73.8825C161.263 73.9635 161.356 74.0216 161.384 74.13C161.393 74.1672 161.254 74.2768 161.244 74.2932C161.08 74.5494 161.397 74.2907 161.423 74.2946C161.698 74.3489 161.614 74.7018 161.987 74.6503C162.001 74.6483 162.309 74.3614 162.134 74.6209C162.121 74.6385 161.932 74.72 161.997 74.8063C162.062 74.8931 162.041 75.1946 162.279 75.1588C162.337 75.1506 162.643 74.9752 162.501 75.2122C162.481 75.2443 162.388 75.321 162.349 75.3776C162.226 75.5582 162.548 75.2791 162.324 75.5679C162.101 75.8568 161.98 76.1213 162.26 76.0533C162.269 76.0515 162.536 75.8426 162.564 75.8797C162.609 75.9389 162.63 76.0632 162.685 76.1177C162.712 76.1437 162.847 75.9819 162.854 75.9839C163.11 76.0819 163.106 76.3498 163.221 76.5905C163.242 76.6354 163.545 76.5404 163.443 76.7626C163.332 77.0059 162.508 77.6307 162.846 77.6342C162.982 77.6359 164.022 76.8381 163.642 77.4237C163.989 77.5536 163.955 78.0288 164.346 78.1048C164.364 78.1086 164.665 77.899 164.685 77.9282C164.714 77.972 164.606 78.1072 164.623 78.1422C164.688 78.2916 164.892 78.3005 164.976 78.4284C165.008 78.4767 164.863 78.579 164.902 78.6367C164.94 78.6942 165.144 78.5743 165.122 78.7185C165.105 78.828 164.798 79.1952 164.819 79.3019C165.171 78.9947 165.206 79.0493 165.375 79.0541C165.408 79.0549 165.514 78.9294 165.536 78.9243C165.627 78.9009 165.552 79.0198 165.648 78.9901C165.671 78.983 165.791 78.8779 165.816 78.8662C166.04 78.7643 165.84 79.0814 165.806 79.1371C165.675 79.3477 165.853 79.236 165.819 79.3392C165.785 79.4422 165.643 79.4572 165.643 79.543C165.642 79.7205 165.775 79.8331 165.859 79.9412C165.893 79.9836 166.03 79.8158 166.038 79.8186C166.153 79.8686 166.057 80.1037 166.42 79.8737C165.642 80.6514 166.545 79.8559 166.486 80.1236C166.481 80.1449 166.098 80.4961 166.009 80.5086C165.919 80.521 165.993 80.3585 165.858 80.3847C165.827 80.3906 165.399 80.6394 165.369 80.6493C165.131 80.7262 165.707 80.2076 165.736 80.1757C166.044 79.8297 165.575 80.0888 165.529 80.0906C165.315 80.0982 165.323 79.941 165.16 79.9352C165.055 79.9308 164.668 80.2604 164.643 80.2075C164.559 80.0341 165.041 79.5102 164.459 79.7792C164.335 79.8364 163.945 80.2335 164.179 79.8387C164.194 79.8139 164.423 79.4706 164.194 79.5933C164.165 79.6088 164.044 79.7165 164.028 79.7181C163.918 79.7267 163.984 79.6079 163.89 79.595C163.796 79.5821 163.67 79.5789 163.656 79.4813C163.647 79.4226 163.83 79.1743 163.869 79.1074C163.982 78.9156 163.675 79.0956 163.839 78.8928C164.003 78.6887 164.35 78.4864 164.401 78.2931C164.086 78.5715 163.759 78.8536 163.441 79.1319C163.294 78.9462 163.239 78.6838 163.058 78.5129C163.035 78.4924 162.889 78.6677 162.861 78.6497C162.742 78.573 162.78 78.3764 162.638 78.3165C162.527 78.2707 162.271 78.3462 162.15 78.305C162.456 77.9274 162.223 77.9164 162.173 77.7988C162.155 77.7577 162.251 77.672 162.261 77.6215C162.297 77.433 162.023 77.7625 161.953 77.7858C161.654 77.8848 162.35 77.2197 162.219 77.1163C162.212 77.1105 161.768 77.3867 161.735 77.3983C161.521 77.4753 161.854 77.2645 161.842 77.1969C161.82 77.0735 161.859 76.9363 161.666 76.9521C161.609 76.9571 161.32 77.1171 161.451 76.8966C161.468 76.8677 161.594 76.7539 161.596 76.7418C161.624 76.5324 161.238 76.8994 161.057 76.9713C160.876 77.0432 161.061 76.7058 161.12 76.6152C161.275 76.3806 161.237 76.5671 161.259 76.5508C161.516 76.356 161.418 76.3341 161.393 76.2695C161.761 75.8989 161.676 75.8564 161.365 76.204C161.331 76.242 161.401 76.2436 161.393 76.2695C160.986 76.5862 160.872 76.563 161.139 76.1515C161.264 75.9582 161.486 75.8111 161.307 75.7657C161.226 75.7441 160.989 76.0162 160.874 76.0396C160.613 76.0933 160.72 75.7245 160.578 75.6571C160.527 75.6328 160.424 75.8087 160.385 75.7969C160.278 75.7663 160.323 75.6017 160.201 75.5874C160.19 75.5863 160.06 75.7474 160.036 75.7283C159.859 75.5857 159.814 75.356 159.648 75.1898C159.565 75.1064 159.337 75.0433 159.267 74.9442C159.144 74.773 159.167 74.3815 158.99 74.315C158.875 74.2712 158.752 74.4385 158.621 74.508C158.368 74.6432 158.581 74.1759 158.616 74.1051C158.617 74.1031 158.721 74.1329 158.755 74.0204C158.883 73.8385 158.617 74.1053 158.616 74.1051C158.638 74.0589 158.522 73.888 158.466 73.8903C158.436 73.8916 158.312 74.0435 158.299 74.0415C157.985 73.9901 157.758 73.852 157.624 73.6098C157.623 73.6038 157.774 73.4454 157.77 73.4333C157.721 73.2594 157.472 73.3959 157.274 73.4331C157.072 73.4672 157.032 73.3616 157.22 73.0287C157.116 73.0011 157.12 72.7858 157.125 72.6578C157.131 72.5298 156.846 72.8464 156.836 72.8483C156.498 72.9144 156.562 72.6501 156.418 72.4809C156.352 72.4016 156.143 72.31 156.025 72.2743C155.931 72.2459 155.951 72.134 155.846 72.1314C155.832 72.131 155.722 72.2857 155.715 72.2892C155.501 72.4081 155.825 72.0748 155.862 71.9983C155.996 71.7202 156.061 71.5673 155.88 71.6043C155.838 71.6124 155.363 72.0868 155.301 72.0877C155.221 72.0876 155.387 71.9142 155.299 71.919C155.291 71.9192 155.202 72.0361 155.174 72.006C155.042 71.8682 154.92 71.6666 154.751 71.5588C154.729 71.5435 154.617 71.7515 154.582 71.7327C154.417 71.6443 154.263 71.5198 154.184 71.3284C154.165 71.2807 154.283 71.1638 154.304 71.1189C154.429 70.8467 154.111 71.1442 154.095 71.1428C153.705 71.1174 153.719 70.657 153.343 70.6265C153.321 70.6247 152.958 70.9332 153.12 70.5702C153.131 70.5462 153.299 70.1754 153.102 70.3754C153.09 70.388 153.01 70.5823 152.965 70.5281C152.92 70.4736 152.755 70.5321 152.8 70.2914C152.814 70.2157 152.969 69.8393 152.726 70.0641C152.709 70.0794 152.217 70.6246 152.439 70.1762C152.476 70.1025 152.758 69.6568 152.53 69.8342C152.486 69.8689 152.455 69.9876 152.373 70.0239C152.249 70.0809 152.232 69.9056 152.027 70.0577C151.991 70.0847 151.749 70.3572 151.836 70.0939C151.85 70.0526 151.954 69.9091 151.937 69.8767C151.859 69.7218 151.67 69.7497 151.603 69.573C151.578 69.5107 151.74 69.2745 151.729 69.1815C151.718 69.0883 151.657 68.9716 151.545 69.0588C151.432 69.1459 151.272 69.5752 151.18 69.5671C150.781 69.5326 150.593 69.1408 150.275 68.9495C150.229 68.9214 150.201 69.0873 150.128 69.057C149.856 68.9435 149.354 68.8956 149.244 68.4834C149.156 68.1524 149.471 68.0495 149.365 67.8876C149.312 67.8096 149.049 68.2743 149.028 68.2838C148.806 68.3812 148.774 68.1215 148.599 68.1368C148.563 68.1403 148.524 68.3529 148.494 68.3537C148.394 68.3585 148.331 68.2371 148.241 68.2263C148.201 68.222 148.158 68.3798 148.127 68.3567C148.053 68.3035 148.001 68.2155 147.963 68.0443C147.96 68.0287 148.069 67.8495 148.008 67.8234C147.912 67.7821 147.821 67.5989 147.661 67.7165C147.613 67.752 147.514 68.1117 147.506 67.8428C147.504 67.7867 147.639 67.3587 147.452 67.7099C147.419 67.7677 147.147 68.237 147.158 67.8932C147.16 67.8026 147.197 67.4343 147.141 67.4802C147.133 67.4878 147.11 67.6882 147.07 67.699C146.932 67.7335 146.806 67.6837 146.667 67.7186C146.629 67.7284 146.637 67.9418 146.584 67.9501C146.437 67.9731 146.278 67.889 146.154 67.8016C146.109 67.7689 146.173 67.6057 146.172 67.5866C146.165 67.2766 146.06 67.6754 146.037 67.6958C145.893 67.8172 145.832 67.6126 145.712 67.6468C145.679 67.6558 145.673 67.8527 145.665 67.8691C145.578 68.029 145.674 67.6876 145.639 67.6436C145.541 67.5191 145.412 67.5185 145.294 67.53C145.25 67.5346 145.272 67.7655 145.234 67.7671C145.008 67.7808 144.781 67.7384 144.571 67.5985C144.531 67.5718 144.569 67.3992 144.563 67.3588C144.52 67.0759 144.408 67.4508 144.386 67.486C144.286 67.6463 144.259 67.4902 144.176 67.5154C143.775 67.6405 143.294 67.5365 142.91 67.4858C142.418 67.4204 142.009 67.2824 141.537 67.3731C141.507 67.3787 141.562 67.6069 141.536 67.6147C141.208 67.7048 140.863 67.6573 140.536 67.774C140.509 67.7832 140.582 67.9952 140.54 68.0172C140.455 68.064 140.338 68.0702 140.235 68.0159C140.184 67.9898 140.214 67.7932 140.163 67.7709C140.044 67.7187 139.929 67.7227 139.826 67.7768C139.783 67.8003 139.892 68.0098 139.833 68.023C139.431 68.1182 139.037 68.2382 138.56 68.0467C138.527 68.0335 138.4 67.5925 138.358 67.6924C138.382 67.8173 138.416 67.963 138.444 68.096C137.858 68.3057 137.221 68.3075 136.614 68.4539C136.588 68.4602 136.698 68.6813 136.649 68.6946C136.365 68.7716 136.099 68.9201 135.743 68.7764C135.708 68.7627 135.598 68.3497 135.531 68.4377C135.519 68.4536 135.407 68.548 135.401 68.647C135.401 68.6617 135.483 68.8447 135.444 68.8632C135.213 68.9668 134.937 69.0072 134.664 68.9684C134.619 68.9619 134.594 68.7467 134.562 68.7404C134.33 68.6976 134.167 68.9223 133.914 68.8042C133.745 68.7246 133.674 68.3611 133.489 68.0426C133.463 67.9977 133.38 68.0176 133.308 67.8202C133.125 67.3241 132.978 66.7631 132.779 66.2358C132.736 66.1221 132.668 66.2838 132.638 65.984C132.637 65.9638 132.686 65.8442 132.673 65.7433C132.665 65.6735 132.571 65.4798 132.571 65.3868C132.571 65.2939 132.66 65.4528 132.674 65.339C132.687 65.2239 132.588 65.0006 132.673 64.9415ZM157.145 72.0847C157.22 71.8813 156.731 72.4473 156.906 72.3606C156.915 72.3558 157.141 72.0948 157.145 72.0847ZM163.655 78.3034C163.831 78.0073 163.427 78.2838 163.286 78.5073C163.145 78.7303 163.601 78.3931 163.655 78.3034ZM164.507 78.8891C164.625 78.6302 163.823 79.3242 164.064 79.2722C164.078 79.2694 164.501 78.9042 164.507 78.8891ZM133.775 67.8374C133.771 67.8283 133.71 67.8385 133.712 67.8483C133.757 68.0836 133.878 68.0633 133.775 67.8374ZM165.379 79.4778C165.464 79.3568 165.273 79.3901 165.168 79.5408C165.083 79.6618 165.274 79.6284 165.379 79.4778ZM154.542 69.1028C154.548 69.0929 154.517 69.0605 154.483 69.1132C154.372 69.2831 154.453 69.269 154.542 69.1028ZM166.514 80.7681C166.376 80.5459 166.938 79.8559 167.047 80.1345C167.067 80.185 166.763 80.2328 166.746 80.3336C166.714 80.5174 167.183 80.2199 167.039 80.5045C167.012 80.5563 166.52 80.7819 166.513 80.7685C166.513 80.7684 166.514 80.7682 166.514 80.7681ZM157.691 71.3701C157.696 71.3615 157.656 71.316 157.649 71.3226C157.472 71.4838 157.551 71.5753 157.691 71.3701ZM152.601 67.3747C152.608 67.3545 152.495 67.2706 152.48 67.2849C152.232 67.5922 152.46 67.7621 152.601 67.3747ZM161.088 73.7217C161.303 73.5973 161.378 73.6313 161.205 73.8821C161.17 73.8251 161.126 73.7789 161.088 73.7217Z" fill="black"/>
<path d="M64.1428 63.7729C63.942 63.6469 63.6372 63.6325 63.3965 63.6646C63.3211 63.6743 63.3196 63.8115 63.2661 63.8241C63.1625 63.8487 63.0905 63.7614 62.9829 63.7956C62.9469 63.8075 62.9294 64.0203 62.893 64.0282C62.6944 64.0701 62.5443 63.9744 62.3579 63.9711C61.4418 63.9564 60.5631 63.824 59.6582 63.7306C59.3613 63.6998 58.9606 63.814 58.6754 63.6761C58.6419 63.6598 58.6967 63.4826 58.6928 63.4664C58.6292 63.2181 58.5966 63.5904 58.5191 63.6264C58.2125 63.7687 57.899 63.7323 57.6464 63.6204C57.5385 63.5722 57.7084 63.2284 57.5626 63.4135C57.5526 63.426 57.5512 63.6238 57.5171 63.6396C57.44 63.6751 57.313 63.6206 57.2567 63.6281C57.1472 63.6432 57.1292 63.6386 57.0288 63.6267C56.891 63.6121 56.7161 63.6869 56.5759 63.6245C56.546 63.6106 56.6124 63.4168 56.5667 63.3767C56.5208 63.3365 56.3861 63.3374 56.3361 63.3792C56.2861 63.421 56.2869 63.5798 56.2748 63.6148C56.1763 63.9102 56.0717 63.4736 56.0518 63.461C55.7064 63.2448 55.3733 63.4564 55.037 63.4312C54.7777 63.4112 54.5052 63.316 54.2583 63.3163C53.9659 63.3177 53.7102 63.4196 53.426 63.3979C53.3959 63.3959 53.4336 63.1604 53.3965 63.1575C53.0036 63.1266 52.6056 63.1585 52.2208 63.3337C52.1823 63.3515 52.2412 63.5563 52.2036 63.5864C51.9706 63.7659 51.6352 64.1969 51.4247 63.3095C51.2643 63.3569 51.069 63.4108 50.9429 63.6061C50.8618 63.7318 50.9745 63.947 50.8518 63.8629C50.8241 63.8443 50.8367 63.6443 50.7964 63.6313C50.626 63.5766 50.4562 63.6614 50.2823 63.5811C50.2468 63.5643 50.2327 63.3877 50.2192 63.3573C50.1057 63.1118 50.0318 63.553 50.0087 63.5877C49.8259 63.8476 49.6594 63.7818 49.4609 63.8212C49.415 63.8305 49.4296 63.5867 49.3836 63.5874C49.1456 63.5937 48.9054 63.6602 48.7023 63.8099C48.6573 63.8438 48.7442 64.0326 48.725 64.0589C48.6407 64.1724 48.5376 63.8033 48.4541 63.9062C48.4366 63.9274 48.4858 64.0941 48.486 64.1135C48.4909 64.4185 48.3469 64.0168 48.3288 64.0113C48.1026 63.9318 48.08 64.392 47.8786 64.378C47.8542 64.376 47.8511 64.1505 47.7858 64.1579C47.3536 64.2049 46.9144 64.3938 46.5661 64.6895C46.5114 64.7353 46.6066 64.8779 46.6088 64.8985C46.6423 65.2211 46.4705 64.8298 46.4447 64.8214C46.246 64.765 46.212 65.1535 45.9353 64.7135C45.3139 65.116 44.53 65.1254 44.0638 65.8333C44.0577 65.8418 44.1586 66.0261 44.1462 66.0423C43.998 66.2386 43.8993 65.9261 43.6014 65.6254C43.526 65.5501 43.6314 66.0318 43.6382 66.0676C43.6622 66.1999 43.8283 66.4661 43.8285 66.4938C43.8275 66.7129 43.3982 65.7757 43.2774 65.8336C43.2744 65.8369 43.3727 66.0001 43.3709 66.0219C43.3656 66.0902 43.3019 66.0374 43.3001 66.1109C43.2965 66.2809 43.4943 66.7415 43.2601 66.5324C43.2299 66.5053 42.9901 65.9714 42.8948 66.0501C42.8576 66.0814 42.6617 66.17 42.628 66.2303C42.594 66.2905 42.7159 66.4395 42.7159 66.4486C42.6936 66.7409 42.7934 66.8055 42.897 67.1675C43.0011 67.5279 42.6111 66.7429 42.5373 66.6713C42.4635 66.5999 42.4593 66.8351 42.4687 66.9112C42.4779 66.9873 42.5651 67.0764 42.5625 67.1237C42.5442 67.4337 42.2925 66.7751 42.178 66.6789C41.9058 66.452 42.1287 67.0711 42.0571 67.1839C42.0375 67.2146 41.9882 67.0726 41.9564 67.0745C41.8309 67.0842 41.8711 67.2943 41.6705 67.1948C41.638 67.1785 41.3536 66.8911 41.4393 67.1729C41.452 67.2134 41.5562 67.3401 41.5334 67.3953C41.4995 67.4779 41.4075 67.5729 41.314 67.5654C41.2448 67.5598 41.1647 67.2971 41.1453 67.405C41.1369 67.4531 41.2673 67.5571 41.245 67.6362C41.223 67.7149 41.0894 67.7873 41.0369 67.8129C40.9845 67.8383 40.9064 67.6489 40.8954 67.6397C40.8305 67.5876 40.6833 67.5632 40.6749 67.5687C40.2448 67.8039 40.0442 68.3383 39.5824 68.5106C39.5469 68.524 39.4488 68.3328 39.4421 68.333C39.2866 68.3295 39.6856 68.7453 39.7185 68.952C39.4874 68.5854 39.4879 68.6795 39.3871 68.6904C39.3383 68.6954 39.2637 68.5433 39.2508 68.5313C39.0543 68.3568 39.2019 68.6544 39.2304 68.7164C39.3348 68.9449 39.1313 68.7297 39.2008 68.8827C39.2699 69.0345 39.4624 69.1977 39.3899 69.2437C39.282 69.1297 39.1056 68.7593 39.0139 68.7427C38.6668 68.6793 38.4589 69.2154 38.3236 69.3542C38.1829 69.4963 38.1141 69.5113 38.0535 69.625C37.9443 69.8308 37.8283 69.543 37.6404 69.5107C37.4518 69.4793 37.9448 70.0347 38.0244 70.1736C38.1044 70.3121 37.9906 70.1929 38.0244 70.2767C38.0583 70.3604 38.1625 70.4176 38.1391 70.4759C38.1159 70.534 37.8282 70.3963 37.7126 70.2754C37.4687 70.0181 37.2969 69.6845 37.2634 69.8726C37.2617 69.8836 37.3998 70.023 37.3871 70.0572C37.2829 70.3239 37.0858 70.487 36.9714 70.7441C36.9559 70.7797 37.113 70.9316 37.1055 70.9542C37.0282 71.1902 36.8617 70.8574 36.521 70.6097C36.8747 71.0177 37.0294 71.3156 36.908 71.4159C36.835 71.4765 36.7012 71.2819 36.5493 71.1907C36.5042 71.1627 36.5543 71.3296 36.4759 71.2505C36.2192 70.9921 36.0143 70.6368 35.9904 70.8629C35.9897 70.8733 36.1312 71.0138 36.1199 71.0383C36.0473 71.1976 35.7948 70.9147 35.6325 70.9873C35.5052 71.0443 35.4653 71.3756 35.37 71.5034C35.7588 71.9687 35.5588 71.9541 35.2453 71.6711C35.1785 71.7489 35.0789 71.8014 35.0451 71.9054C35.0329 71.9413 35.1622 72.062 35.1713 72.0792C35.315 72.3471 35.0207 72.0632 34.9942 72.0647C34.719 72.0942 34.776 72.4506 34.4113 72.3667C34.3983 72.3636 34.1139 72.0526 34.2692 72.3247C34.2801 72.3433 34.4609 72.4405 34.3912 72.5201C34.3213 72.6 34.3196 72.9002 34.0803 72.85C34.0226 72.838 33.7291 72.6405 33.8535 72.8867C33.8705 72.9201 33.9578 73.0042 33.992 73.0635C34.1009 73.253 33.802 72.9489 34.0027 73.2541C34.2033 73.5593 34.3041 73.8315 34.0313 73.7399C34.0231 73.7375 33.7737 73.5077 33.7432 73.5419C33.6949 73.5966 33.6646 73.7178 33.6064 73.7669C33.5784 73.7904 33.4561 73.6187 33.4488 73.62C33.187 73.6969 33.1806 73.9541 33.0372 74.1941C33.0096 74.2398 32.7183 74.1187 32.8027 74.3477C32.8955 74.5981 33.6666 75.2866 33.3317 75.2614C33.1976 75.2516 32.2244 74.3738 32.5589 74.9857C32.204 75.0865 32.2112 75.5539 31.8076 75.6064C31.7897 75.6087 31.5057 75.376 31.4841 75.4034C31.4524 75.4445 31.5492 75.5873 31.5304 75.6207C31.4546 75.7634 31.252 75.7555 31.1596 75.8754C31.1242 75.9206 31.2604 76.0339 31.2183 76.0879C31.1761 76.1418 30.9828 76.0061 30.9939 76.1509C31.0028 76.2608 31.2816 76.6501 31.2535 76.7541C30.9261 76.4207 30.8869 76.4719 30.7191 76.4628C30.6867 76.461 30.5903 76.3278 30.5691 76.3209C30.4803 76.2903 30.5461 76.4143 30.4536 76.377C30.4313 76.3681 30.3197 76.2541 30.2951 76.2404C30.0823 76.1195 30.2512 76.4562 30.2828 76.5127C30.3978 76.7322 30.2289 76.607 30.2552 76.7122C30.2815 76.8172 30.4216 76.8435 30.4157 76.9287C30.4034 77.1049 30.2639 77.2059 30.1725 77.3064C30.1354 77.3457 30.012 77.1682 30.0032 77.1703C29.8854 77.2106 29.964 77.4517 29.6208 77.1944C30.3378 78.0286 29.4976 77.1666 29.5372 77.437C29.5407 77.4586 29.8952 77.8378 29.9835 77.8574C30.0718 77.8769 30.01 77.7097 30.1415 77.7465C30.1725 77.755 30.5795 78.0362 30.6089 78.0485C30.8397 78.144 30.3044 77.5829 30.2782 77.549C29.9968 77.1809 30.4438 77.4757 30.4898 77.4812C30.701 77.506 30.7049 77.3495 30.8665 77.3568C30.9716 77.361 31.3317 77.7193 31.361 77.669C31.4592 77.5012 31.018 76.942 31.576 77.2566C31.6952 77.3236 32.0536 77.7492 31.85 77.3388C31.8371 77.313 31.6341 76.9539 31.8523 77.0944C31.8798 77.1121 31.9918 77.2288 32.0084 77.2317C32.1168 77.2494 32.059 77.1261 32.1533 77.1211C32.2476 77.1161 32.3729 77.1234 32.3935 77.0278C32.406 76.9704 32.2432 76.7092 32.2092 76.6397C32.1103 76.4402 32.4017 76.6441 32.2538 76.4295C32.1054 76.2136 31.7762 75.9844 31.7396 75.7886C32.0319 76.0906 32.3356 76.3972 32.6311 76.6995C32.7877 76.5304 32.8719 76.2643 33.0604 76.1134C33.0841 76.095 33.2161 76.2809 33.2455 76.2654C33.3685 76.1996 33.3446 76.0018 33.4898 75.9545C33.6029 75.9186 33.851 76.0151 33.9732 75.9846C33.6973 75.5848 33.929 75.5937 33.9868 75.4815C34.0072 75.4423 33.9186 75.3493 33.9122 75.2984C33.8916 75.1075 34.1389 75.4571 34.2071 75.4855C34.4995 75.6055 33.8617 74.8852 33.997 74.795C34.004 74.7898 34.4242 75.1015 34.4559 75.1159C34.662 75.2106 34.3476 74.9732 34.3641 74.9074C34.3942 74.7873 34.3659 74.6483 34.5552 74.6805C34.611 74.6904 34.8856 74.8738 34.7717 74.6444C34.7568 74.6143 34.6406 74.4908 34.6393 74.4786C34.6263 74.269 34.9819 74.6656 35.1559 74.7525C35.3298 74.8394 35.171 74.4895 35.1184 74.3947C34.9825 74.1493 35.0066 74.337 34.9863 74.319C34.7462 74.1039 34.8445 74.0908 34.8739 74.029C34.5365 73.6304 34.6237 73.5957 34.9058 73.9666C34.9366 74.0072 34.8677 74.0027 34.8739 74.029C35.2523 74.3787 35.3704 74.3625 35.1392 73.9289C35.0309 73.7258 34.8223 73.5603 35.004 73.5293C35.0862 73.5153 35.3008 73.8051 35.4121 73.8384C35.6659 73.9147 35.5865 73.5408 35.7313 73.4868C35.7838 73.4673 35.8725 73.6503 35.9126 73.6422C36.0195 73.6213 35.9876 73.4547 36.1087 73.4514C36.1199 73.4513 36.2369 73.6222 36.2609 73.6053C36.444 73.4821 36.5126 73.2526 36.694 73.0978C36.7816 73.0231 37.0111 72.9816 37.0873 72.8901C37.2202 72.7322 37.2254 72.3433 37.4046 72.2936C37.5231 72.2587 37.6323 72.4353 37.758 72.5147C38.0013 72.669 37.8304 72.1832 37.8019 72.1096C37.8009 72.1072 37.6932 72.1301 37.6693 72.0143C37.5572 71.822 37.8004 72.1096 37.8019 72.1096C37.7834 72.062 37.9094 71.9042 37.9641 71.9116C37.9939 71.9157 38.1044 72.0771 38.1177 72.0763C38.4309 72.0543 38.6602 71.9414 38.8143 71.7111C38.8157 71.7052 38.6787 71.5349 38.6836 71.523C38.7496 71.352 38.9889 71.5069 39.184 71.5598C39.3792 71.6126 39.4264 71.5123 39.2651 71.1658C39.369 71.1484 39.3805 70.9354 39.3847 70.8086C39.3889 70.6817 39.6452 71.0211 39.6555 71.024C39.9796 71.123 39.9452 70.8493 40.1057 70.6912C40.182 70.6151 40.3887 70.5476 40.5078 70.523C40.6023 70.504 40.5907 70.3915 40.6938 70.399C40.7077 70.3999 40.8041 70.5632 40.8109 70.5674C41.0118 70.7053 40.7183 70.345 40.6878 70.2659C40.5779 69.9779 40.5214 69.8231 40.7019 69.8732C40.7433 69.8846 41.1768 70.3969 41.2393 70.4026C41.3202 70.4088 41.1693 70.2221 41.2575 70.2337C41.2649 70.2345 41.3442 70.3586 41.3754 70.3306C41.5212 70.2024 41.6504 70.0185 41.8243 69.9273C41.8477 69.9144 41.9425 70.1307 41.9782 70.1155C42.1425 70.0457 42.3136 69.9309 42.4096 69.7459C42.4331 69.6996 42.3254 69.5734 42.3087 69.5268C42.2087 69.244 42.499 69.5685 42.5145 69.5687C42.8979 69.5808 42.9136 69.1264 43.2989 69.1237C43.3207 69.124 43.6602 69.46 43.5267 69.0859C43.5177 69.0611 43.3811 68.6781 43.5585 68.8948C43.5695 68.9084 43.6341 69.1084 43.6819 69.0589C43.7301 69.0093 43.8866 69.0828 43.8606 68.8401C43.8527 68.7635 43.7269 68.3771 43.9514 68.621C43.9677 68.6376 44.4127 69.2216 44.2297 68.7557C44.1996 68.6791 43.9556 68.2113 44.1695 68.4067C44.2106 68.4448 44.2312 68.5659 44.3101 68.6087C44.4308 68.6751 44.4623 68.5022 44.6507 68.6722C44.6841 68.7022 44.9016 68.9948 44.8351 68.7256C44.8247 68.6834 44.7339 68.5316 44.7524 68.501C44.8402 68.3547 45.0251 68.3986 45.1092 68.2269C45.139 68.1665 44.9976 67.9179 45.0166 67.8258C45.0355 67.7337 45.1078 67.6214 45.2124 67.7177C45.3167 67.8143 45.4415 68.2547 45.5324 68.2548C45.922 68.2579 46.1558 67.8762 46.481 67.7127C46.529 67.6886 46.5445 67.8561 46.6186 67.8318C46.891 67.7424 47.4117 67.7266 47.5444 67.3255C47.655 67.0021 47.3495 66.8763 47.4656 66.7229C47.5243 66.6488 47.7549 67.1305 47.7763 67.1415C47.9929 67.2534 48.046 66.9957 48.218 67.0233C48.2532 67.0292 48.2782 67.2439 48.3074 67.2467C48.407 67.2583 48.4775 67.1413 48.5685 67.1364C48.6098 67.1345 48.6423 67.2947 48.675 67.2736C48.7539 67.2249 48.8132 67.1399 48.8628 66.9711C48.8675 66.9557 48.7686 66.7703 48.8318 66.7477C48.9337 66.712 49.0329 66.5351 49.1867 66.6618C49.2326 66.7 49.31 67.065 49.3339 66.7969C49.3389 66.741 49.2289 66.3059 49.3959 66.6672C49.4252 66.7268 49.6733 67.2101 49.6836 66.8659C49.6864 66.7753 49.6702 66.4053 49.7246 66.4541C49.7321 66.4621 49.7443 66.6635 49.7836 66.6763C49.9212 66.718 50.0496 66.6747 50.1888 66.7163C50.2258 66.7278 50.207 66.9407 50.2607 66.9515C50.4079 66.9815 50.575 66.9044 50.7045 66.8222C50.7522 66.7915 50.6952 66.6256 50.6964 66.6066C50.7183 66.2971 50.8057 66.7 50.828 66.7214C50.9682 66.8486 51.0398 66.6465 51.1597 66.6853C51.1926 66.6955 51.1904 66.8925 51.1985 66.9092C51.28 67.0723 51.1964 66.7275 51.2336 66.6848C51.338 66.564 51.4697 66.5678 51.589 66.5833C51.6328 66.5893 51.6027 66.8194 51.6414 66.8222C51.8707 66.8433 52.1038 66.8074 52.321 66.6729C52.362 66.6472 52.3283 66.4737 52.3354 66.4334C52.3855 66.1518 52.4903 66.5292 52.5114 66.5649C52.6098 66.7275 52.6411 66.572 52.7245 66.5989C53.1301 66.7327 53.6219 66.6355 54.0102 66.5877C54.51 66.5261 54.9196 66.3882 55.3986 66.4769C55.4292 66.4824 55.3759 66.7108 55.4018 66.7185C55.7382 66.8075 56.0791 66.7559 56.4135 66.8687C56.4409 66.8775 56.371 67.0905 56.4137 67.112C56.501 67.1577 56.6191 67.1623 56.723 67.1064C56.7728 67.0794 56.74 66.8835 56.7898 66.8602C56.906 66.8057 57.0229 66.8077 57.1272 66.86C57.1715 66.8827 57.0658 67.0942 57.1258 67.1063C57.5361 67.1946 57.9297 67.3047 58.4063 67.1011C58.439 67.0871 58.5537 66.6428 58.5991 66.7415C58.5788 66.8671 58.5491 67.0136 58.5244 67.1473C59.1139 67.3401 59.7559 67.3221 60.3664 67.4462C60.3923 67.4515 60.2902 67.6764 60.34 67.6879C60.6279 67.7549 60.8959 67.8925 61.2468 67.7353C61.2819 67.7201 61.3755 67.3031 61.4456 67.3885C61.4579 67.4038 61.5738 67.4936 61.5836 67.5923C61.5846 67.607 61.5092 67.7932 61.5497 67.81C61.7847 67.9044 62.0593 67.9327 62.3304 67.8824C62.3748 67.8741 62.3907 67.6581 62.4229 67.6504C62.6515 67.5976 62.824 67.8149 63.0699 67.6856C63.2351 67.5986 63.2901 67.2324 63.4607 66.906C63.4848 66.86 63.5681 66.876 63.6317 66.6757C63.7916 66.1719 63.9149 65.6051 64.0901 65.0695C64.1277 64.9541 64.2022 65.1123 64.2191 64.8116C64.22 64.7915 64.1666 64.6743 64.1746 64.5731C64.18 64.503 64.2652 64.3053 64.2615 64.2125C64.2578 64.1197 64.1763 64.2826 64.1582 64.1696C64.1404 64.0554 64.229 63.8279 64.1428 63.7729ZM39.4097 70.2386C39.353 70.0287 39.7926 70.6337 39.6243 70.5335C39.6156 70.528 39.4124 70.249 39.4097 70.2386ZM32.4837 75.8556C32.3298 75.5476 32.7105 75.8555 32.8343 76.0885C32.9582 76.3212 32.5303 75.949 32.4837 75.8556ZM31.5915 76.3706C31.4936 76.1043 32.2392 76.8584 32.004 76.7869C31.9905 76.783 31.5971 76.3861 31.5915 76.3706ZM63.1684 66.714C63.1721 66.7048 63.2327 66.7122 63.2313 66.722C63.1961 66.959 63.0755 66.9442 63.1684 66.714ZM30.6823 76.8853C30.6073 76.7581 30.7983 76.8031 30.8904 76.9625C30.9641 77.0909 30.7755 77.0436 30.6823 76.8853ZM42.2321 67.5043C42.2277 67.494 42.261 67.4639 42.2908 67.5194C42.3868 67.6982 42.3062 67.6775 42.2321 67.5043ZM29.4631 78.0743C29.6157 77.8649 29.1072 77.1351 28.979 77.4029C28.9558 77.4514 29.2537 77.5232 29.264 77.6246C29.2825 77.8095 28.8376 77.4768 28.9607 77.7708C28.9836 77.8242 29.4558 78.0875 29.4642 78.0749C29.4638 78.0747 29.4634 78.0745 29.4631 78.0743ZM38.9269 69.48C38.9225 69.471 38.9669 69.4283 38.9737 69.4355C39.1372 69.6107 39.0483 69.6966 38.9269 69.48ZM44.2973 65.9529C44.2918 65.9322 44.4135 65.8571 44.4255 65.8732C44.6472 66.1998 44.406 66.3506 44.2973 65.9529ZM35.3784 71.5174C35.1748 71.3759 35.0946 71.406 35.2453 71.6707C35.2864 71.6158 35.3364 71.5712 35.3784 71.5174Z" fill="black"/>
<path d="M82.9801 127.798C77.7792 133.265 78.4064 136.862 79.7029 139.119L84.8526 140.931C87.2625 138.109 89.0663 137.761 91.4071 140.931H94.216C95.6205 138.213 98.3465 137.828 100.302 140.931L104.984 139.119C107.378 137.353 109.697 133.706 103.111 127.798" stroke="black"/>
<path d="M85.3518 140.886C87.5108 138.355 89.4314 138.674 90.9698 140.931L85.3518 140.886Z" fill="#3F3D3D"/>
<path d="M94.7151 140.931C96.1196 138.213 98.3265 138.674 99.8649 140.931L94.7151 140.931Z" fill="#3F3D3D"/>
<g filter="url(#filter2_f_718_2781)">
<ellipse cx="21.1662" cy="20.4642" rx="21.1662" ry="20.4642" transform="matrix(0.889276 0.457371 -0.481709 0.876331 144.393 111.495)" fill="#936233"/>
</g>
<g filter="url(#filter3_f_718_2781)">
<ellipse cx="9.93892" cy="13.3713" rx="9.93892" ry="13.3713" transform="matrix(0.943249 -0.332086 0.352171 0.935935 32.9312 123.789)" fill="#936233"/>
</g>
<path d="M199.152 120.997C210.2 99.8608 195.407 100.619 194.003 110.128C192.598 119.638 197.223 115.198 190.257 124.62" stroke="black"/>
<path d="M82.5427 127.798C88.4101 122.782 89.5429 121.607 91.906 113.307" stroke="black"/>
<path d="M73.4937 162.024C91.4833 159.082 96.9531 157.812 115.842 160.359C99.3306 176.685 90.8634 178.483 73.4937 162.024Z" fill="#9C5C65" stroke="black" stroke-width="0.5"/>
<path d="M116.288 160.095C93.2043 176.804 89.1451 176.624 73.4937 162.024C78.7237 170.508 82.026 174.824 90.6995 175.641C99.3731 176.457 106.836 172.391 116.288 160.095Z" fill="#8A5649" stroke="black" stroke-width="0.5"/>
<path d="M115.393 160.08C97.1395 155.538 99.9628 154.885 91.7963 156.713C91.7963 156.713 87.8636 155.871 84.3678 156.713C80.872 157.554 73.4434 161.764 73.4434 161.764C88.3286 159.135 93.389 157.858 115.393 160.08Z" fill="#8A5649"/>
<path d="M68.1997 160.922L73.4434 161.764M73.4434 161.764C88.3286 159.135 93.389 157.858 115.393 160.08M73.4434 161.764C73.4434 161.764 80.872 157.554 84.3678 156.713C87.8636 155.871 91.7963 156.713 91.7963 156.713C99.9628 154.885 97.1395 155.538 115.393 160.08M115.393 160.08L120.2 158.396" stroke="black" stroke-width="0.5"/>
<path d="M52.2 176C12.7 204.5 20.939 225.736 21.004 264C15.5041 289.5 15.4356 295.142 15.6997 315.5" stroke="#704C38"/>
<defs>
<filter id="filter0_f_718_2781" x="39.0824" y="236.262" width="11.8" height="8.8" filterUnits="userSpaceOnUse" color-interpolation-filters="sRGB">
<feFlood flood-opacity="0" result="BackgroundImageFix"/>
<feBlend mode="normal" in="SourceGraphic" in2="BackgroundImageFix" result="shape"/>
<feGaussianBlur stdDeviation="0.95" result="effect1_foregroundBlur_718_2781"/>
</filter>
<filter id="filter1_f_718_2781" x="98.0824" y="238.262" width="11.8" height="9.8" filterUnits="userSpaceOnUse" color-interpolation-filters="sRGB">
<feFlood flood-opacity="0" result="BackgroundImageFix"/>
<feBlend mode="normal" in="SourceGraphic" in2="BackgroundImageFix" result="shape"/>
<feGaussianBlur stdDeviation="0.95" result="effect1_foregroundBlur_718_2781"/>
</filter>
<filter id="filter2_f_718_2781" x="126.605" y="113.226" width="53.5042" height="51.7669" filterUnits="userSpaceOnUse" color-interpolation-filters="sRGB">
<feFlood flood-opacity="0" result="BackgroundImageFix"/>
<feBlend mode="normal" in="SourceGraphic" in2="BackgroundImageFix" result="shape"/>
<feGaussianBlur stdDeviation="2.75" result="effect1_foregroundBlur_718_2781"/>
</filter>
<filter id="filter3_f_718_2781" x="31.0217" y="114.557" width="31.9866" height="36.8916" filterUnits="userSpaceOnUse" color-interpolation-filters="sRGB">
<feFlood flood-opacity="0" result="BackgroundImageFix"/>
<feBlend mode="normal" in="SourceGraphic" in2="BackgroundImageFix" result="shape"/>
<feGaussianBlur stdDeviation="2.75" result="effect1_foregroundBlur_718_2781"/>
</filter>
</defs>
</svg>
