<svg width="303" height="450" viewBox="0 0 303 450" fill="none" xmlns="http://www.w3.org/2000/svg">
<path d="M242.634 293.092C240.277 267.1 228.126 231.976 191.719 222.868L177.105 218.764L94.1326 222.868L91.3039 224.692C91.3039 224.692 70.5608 229.252 64.4322 249.772C58.3035 270.292 56.8892 309.052 56.8892 309.052C52.6462 332.308 33.5356 422.794 32.3745 429.625C40.848 434.03 195.719 430.39 207.748 429.625H236.411H242.634C253.006 413.02 248.822 387.024 246.877 348.724C246.445 333.306 244.991 319.084 242.634 293.092Z" fill="#D3A77A" stroke="black"/>
<path d="M194 223.764C191.764 223.639 159.81 256.736 102.5 236.264C109.62 244.692 142.495 247.552 164.907 245.056C182.441 243.104 196.236 223.889 194 223.764Z" fill="#BF9163"/>
<path d="M56.8003 250.764C68.8005 230.764 86.8001 222.764 86.8001 222.764L99.5461 231.459L46.5783 378.459C43.8003 364.264 45.5008 332.059 49.3003 318.764C53.0998 305.469 44.8001 270.764 56.8003 250.764Z" fill="#D3A77A"/>
<path d="M31.0585 430.764C25.6419 409.501 51.2373 344.837 45.0495 370.828C38.8617 396.82 221.739 402.856 217.071 374.489C212.404 346.122 231.659 392.665 230.224 430.764H31.0585Z" fill="white" stroke="black"/>
<path d="M55.2965 314.662C55.2794 300.418 52.5154 280.438 64.9804 256.876L206.429 259.445C222.423 290.264 215.453 302.677 215.453 309.954C232.919 376.3 242.416 377.584 215.453 384.433C163.445 400.27 57.483 390.853 47.9864 377.584C38.4898 364.315 55.3136 328.906 55.2965 314.662Z" fill="#D3A77A"/>
<path d="M70.7907 258.791C58.2953 273.772 54.5376 297.278 55.2964 318.086C47.7991 344.197 43.4883 360.463 45.9875 375.872C48.4866 391.281 193.934 404.551 228.421 375.872" stroke="black"/>
<path d="M90.8317 358.764C94.4314 355.674 99.0594 356.557 101.116 358.764C103.173 360.971 87.232 361.854 90.8317 358.764Z" fill="#B08458"/>
<g filter="url(#filter0_f_675_1908)">
<ellipse cx="80.3003" cy="288.264" rx="4" ry="2.5" fill="#B08458"/>
</g>
<g filter="url(#filter1_f_675_1908)">
<ellipse cx="142.3" cy="290.764" rx="4" ry="3" fill="#B08458"/>
</g>
<path d="M185.3 399.226C185.3 396.973 187.236 391.116 187.236 391.116L195.946 389.764L200.3 419.052C200.3 419.052 197.881 421.755 192.559 424.458C192.42 424.529 192.288 424.597 192.164 424.662C189.443 426.089 190.262 426.173 192.164 424.662C193.496 423.604 195.36 421.763 196.913 419.052C200.784 412.293 192.074 421.755 192.559 419.052C193.043 416.348 192.075 423.557 195.946 410.491C199.816 397.424 191.107 405.985 188.687 406.886C186.268 407.787 192.559 404.182 193.526 397.424C194.494 390.665 185.3 401.479 185.3 399.226Z" fill="#D9D9D9"/>
<path d="M192.903 380.958C192.982 381.08 192.973 381.204 192.882 381.333C193.829 383.238 195.3 386.446 195.3 388.451C195.3 392.198 141.632 394.075 119.877 391.729C93.4717 393.537 189.804 385.639 192.882 381.333C192.058 379.677 191.629 379.004 192.903 380.958Z" fill="#BF9163"/>
<path d="M31.0847 430.355C29.8123 419.095 33.5091 393.118 45 367.264C38.149 383.502 47.3554 391.651 47.3554 394.806C47.3554 397.961 41.683 384.44 40.7373 391.651C39.7915 398.863 37.9009 405.623 40.7373 407.877C43.5736 410.13 47.3554 413.736 47.3554 413.736C47.3554 413.736 40.9033 410.268 37.9009 412.384C33.7019 415.343 54.9189 422.75 47.3554 421.398C39.7918 420.046 36.4828 415.989 36.4828 419.595C36.4828 423.201 53.028 429.51 40.7373 428.609C33.4505 428.075 31.4807 429.283 31.0847 430.355C31.141 430.854 31.2072 431.324 31.2828 431.764C31.2828 431.764 30.8127 431.092 31.0847 430.355Z" fill="#E6E6E6"/>
<path d="M230.026 429.764C231.892 414.309 223.772 379.199 219.297 369.764C222.941 386.095 225.362 393.4 223.496 397.037C221.63 400.673 217.47 402.946 216.499 405.218C215.527 407.491 223.029 402.037 225.362 405.218C227.694 408.4 223.496 410.673 223.496 410.673C223.496 410.673 217.432 411.128 214.166 414.764C210.901 418.4 223.496 412.491 223.496 417.037C223.496 421.582 222.096 419.764 216.499 423.855C210.901 427.946 220.697 424.764 217.898 426.355C215.099 427.946 212.3 429.764 212.3 429.764H230.026Z" fill="#D1D1D1"/>
<path d="M62.3003 406.764C88.2011 414.172 125.534 416.142 159.3 412.91C135.281 422.568 91.4995 416.395 62.3003 406.764Z" fill="#D9D9D9"/>
<path d="M183.958 318.748C175.341 303.482 174.227 292.877 176.041 272.076L229.131 255.764C239.76 293.327 244.991 313.98 244.965 351.826C244.965 393.514 253.427 415.481 240.5 430.764H205C197.304 417.499 201.366 408.014 195.135 385.811C187.386 358.199 179.54 343.349 183.958 318.748Z" fill="#D3A77A"/>
<path d="M173.602 274.764C172.526 295.269 174.083 312.403 182.247 322.834C176.004 355.485 189.932 365.915 195.695 388.589C198.922 401.287 198.576 423.508 205.3 430.764" stroke="black"/>
<path d="M47.5454 162.375C41.9773 147.503 56.5402 141.784 62.5367 153.795L65.9631 171.526C65.9631 178.39 64.6782 183.537 56.9684 183.537C56.9684 183.537 50.6387 183.927 47.5454 162.375Z" fill="#D3A77A" stroke="black"/>
<path d="M51.1314 167.961C43.2323 145.544 57.7722 148.285 57.7948 157.892C57.8174 167.498 53.8765 162.478 59.4187 172.746" stroke="black"/>
<mask id="path-19-inside-1_675_1908" fill="white">
<path d="M141.842 51.6611C192.003 51.6611 232.666 85.9253 232.667 128.192C232.667 142.915 227.73 156.665 219.18 168.336C219.428 170.475 219.557 172.643 219.557 174.836C219.557 212.351 182.458 242.764 136.693 242.764C90.9279 242.764 53.8276 212.351 53.8276 174.836C53.8277 168.235 54.9775 161.855 57.1196 155.821C53.1808 147.251 51.019 137.934 51.019 128.192C51.0193 85.9254 91.6821 51.6613 141.842 51.6611Z"/>
</mask>
<path d="M141.842 51.6611C192.003 51.6611 232.666 85.9253 232.667 128.192C232.667 142.915 227.73 156.665 219.18 168.336C219.428 170.475 219.557 172.643 219.557 174.836C219.557 212.351 182.458 242.764 136.693 242.764C90.9279 242.764 53.8276 212.351 53.8276 174.836C53.8277 168.235 54.9775 161.855 57.1196 155.821C53.1808 147.251 51.019 137.934 51.019 128.192C51.0193 85.9254 91.6821 51.6613 141.842 51.6611Z" fill="#D3A77A"/>
<path d="M141.842 51.6611V50.6611V51.6611ZM232.667 128.192H233.667V128.192L232.667 128.192ZM219.18 168.336L218.373 167.745L218.142 168.061L218.187 168.451L219.18 168.336ZM219.557 174.836H220.557V174.836L219.557 174.836ZM136.693 242.764V243.764V242.764ZM53.8276 174.836L52.8276 174.836V174.836H53.8276ZM57.1196 155.821L58.062 156.156L58.198 155.773L58.0283 155.404L57.1196 155.821ZM51.019 128.192L50.019 128.192V128.192H51.019ZM141.842 51.6611V52.6611C191.618 52.6611 231.666 86.6312 231.667 128.192L232.667 128.192L233.667 128.192C233.666 85.2194 192.388 50.6611 141.842 50.6611V51.6611ZM232.667 128.192H231.667C231.667 142.684 226.809 156.23 218.373 167.745L219.18 168.336L219.987 168.927C228.651 157.1 233.667 143.146 233.667 128.192H232.667ZM219.18 168.336L218.187 168.451C218.43 170.553 218.557 172.683 218.557 174.836L219.557 174.836L220.557 174.836C220.557 172.604 220.426 170.398 220.174 168.221L219.18 168.336ZM219.557 174.836H218.557C218.557 211.622 182.101 241.764 136.693 241.764V242.764V243.764C182.815 243.764 220.557 213.08 220.557 174.836H219.557ZM136.693 242.764V241.764C91.2851 241.764 54.8276 211.622 54.8276 174.836H53.8276H52.8276C52.8276 213.08 90.5707 243.764 136.693 243.764V242.764ZM53.8276 174.836L54.8276 174.836C54.8277 168.353 55.9569 162.086 58.062 156.156L57.1196 155.821L56.1773 155.487C53.9982 161.625 52.8277 168.118 52.8276 174.836L53.8276 174.836ZM57.1196 155.821L58.0283 155.404C54.147 146.959 52.019 137.784 52.019 128.192H51.019H50.019C50.019 138.085 52.2147 147.543 56.211 156.239L57.1196 155.821ZM51.019 128.192L52.019 128.192C52.0193 86.6313 92.0671 52.6613 141.842 52.6611V51.6611V50.6611C91.2971 50.6613 50.0193 85.2195 50.019 128.192L51.019 128.192Z" fill="black" mask="url(#path-19-inside-1_675_1908)"/>
<path d="M116.993 181.637C121.351 179.538 123.981 179.309 128.229 181.637" stroke="black" stroke-width="0.5"/>
<path d="M218.116 86.628C189.149 39.9083 102.456 39.9727 71.6182 80.1909C87.0706 60.1208 146.961 64.5151 118.397 80.1909C138.317 77.2159 167.086 80.2881 182.067 74.401C197.049 68.514 247.083 133.348 218.116 86.628Z" fill="#412E2A" stroke="#311F15"/>
<path d="M186.309 153.822C164.476 107.909 141.833 156.238 142.77 158.172C143.706 160.105 153.509 163.162 165.213 161.712C176.918 160.262 182.273 158.993 186.309 153.822Z" fill="#EBEBEB"/>
<path d="M67.8359 152.22C87.4987 105.61 114.469 155.112 113.686 156.605C112.903 158.098 104.603 161.101 90.7758 160.404C76.9491 159.708 72.0856 157.433 67.8359 152.22Z" fill="#EBEBEB"/>
<path d="M186.749 152.905C182.559 127.5 145.233 129.289 141.805 157.199C141.805 157.199 144.091 163.64 165.42 161.851C186.749 160.062 186.749 152.905 186.749 152.905Z" stroke="black"/>
<path d="M234.249 165.613C241.903 151.636 222.693 144.585 220.639 155.099C218.584 165.613 219.52 169.047 217.648 170.405C216.099 170.838 214.239 184.263 221.873 185.301C221.873 185.301 228.085 186.539 234.249 165.613Z" fill="#D3A77A"/>
<path d="M217.648 170.405C216.099 170.838 214.239 184.263 221.873 185.301C221.873 185.301 228.085 186.539 234.249 165.613C241.903 151.636 222.693 144.585 220.639 155.099C218.584 165.613 219.52 169.047 217.648 170.405ZM217.648 170.405C219.197 169.973 215.775 171.764 217.648 170.405Z" stroke="black"/>
<path d="M142.742 157.636C148.099 129.4 179.096 127.255 186.749 152.99" stroke="black" stroke-width="3"/>
<path d="M191.431 150.65C188.719 151.515 186.997 150.72 184.876 146.768L185.969 154.919L191.431 150.65Z" fill="black" stroke="black"/>
<path d="M66.8993 151.145C71.2636 125.739 110.145 127.529 113.716 155.439C113.716 155.439 111.335 161.88 89.1172 160.09C66.8993 158.301 66.8993 151.145 66.8993 151.145Z" stroke="black"/>
<path d="M112.779 155.876C107.194 127.639 74.8785 125.495 66.8994 151.229" stroke="black" stroke-width="3"/>
<path d="M72.9855 147.272C72.9855 154.525 77.8691 159.952 85.6259 159.952C93.3827 159.952 99.6708 155.43 99.6708 148.178C100.048 140.742 92.1802 134.592 84.6896 135.498C77.199 136.403 72.9855 140.019 72.9855 147.272Z" fill="#6D4927"/>
<ellipse cx="8.42692" cy="9.057" rx="8.42692" ry="9.057" transform="matrix(-1 0 0 1 93.1165 137.762)" fill="black"/>
<path d="M62.2179 148.889C65.3175 149.754 67.2853 148.96 69.7085 145.008L68.4601 153.159L62.2179 148.889Z" fill="black" stroke="black"/>
<ellipse cx="2.26368" cy="3.01824" rx="2.26368" ry="3.01824" transform="matrix(-0.742447 0.669904 0.742447 0.669904 87.8242 138.931)" fill="#EBEBEB"/>
<path d="M149.296 149.123C149.296 156.376 154.179 161.803 161.936 161.803C169.693 161.803 175.981 157.282 175.981 150.029C176.358 142.593 168.49 136.443 161 137.349C153.509 138.255 149.296 141.87 149.296 149.123Z" fill="#6D4927"/>
<ellipse cx="8.42692" cy="9.057" rx="8.42692" ry="9.057" transform="matrix(-1 0 0 1 169.427 139.613)" fill="black"/>
<ellipse cx="2.26368" cy="3.01824" rx="2.26368" ry="3.01824" transform="matrix(-0.742447 0.669904 0.742447 0.669904 164.135 140.782)" fill="#EBEBEB"/>
<path d="M161.974 114.706C162.171 114.57 162.479 114.541 162.723 114.563C162.8 114.569 162.807 114.706 162.861 114.716C162.968 114.736 163.037 114.646 163.147 114.675C163.184 114.685 163.21 114.897 163.247 114.904C163.449 114.937 163.597 114.834 163.785 114.823C164.711 114.769 165.597 114.601 166.507 114.479C166.813 114.437 167.216 114.54 167.502 114.394C167.536 114.377 167.476 114.201 167.48 114.185C167.538 113.935 167.58 114.306 167.659 114.34C167.98 114.472 168.29 114.43 168.544 114.312C168.652 114.262 168.475 113.921 168.625 114.103C168.636 114.116 168.641 114.313 168.675 114.329C168.753 114.363 168.883 114.305 168.942 114.311C169.054 114.324 169.071 114.319 169.173 114.306C169.312 114.289 169.489 114.361 169.63 114.296C169.66 114.282 169.591 114.089 169.637 114.048C169.683 114.008 169.818 114.007 169.871 114.048C169.923 114.089 169.923 114.248 169.936 114.283C170.04 114.577 170.143 114.139 170.163 114.126C170.512 113.906 170.846 114.116 171.194 114.09C171.456 114.07 171.732 113.975 171.984 113.977C172.286 113.98 172.541 114.084 172.83 114.067C172.86 114.065 172.825 113.829 172.863 113.827C173.265 113.801 173.67 113.842 174.057 114.027C174.096 114.046 174.031 114.249 174.068 114.28C174.302 114.466 174.626 114.907 174.869 114.028C175.031 114.081 175.227 114.142 175.348 114.342C175.426 114.471 175.303 114.682 175.431 114.603C175.46 114.585 175.454 114.385 175.496 114.374C175.671 114.326 175.84 114.418 176.021 114.347C176.057 114.331 176.079 114.156 176.094 114.126C176.22 113.886 176.275 114.33 176.297 114.366C176.47 114.635 176.643 114.578 176.843 114.629C176.889 114.641 176.886 114.396 176.933 114.399C177.176 114.42 177.411 114.499 177.61 114.662C177.654 114.698 177.556 114.881 177.574 114.909C177.653 115.028 177.778 114.666 177.858 114.774C177.875 114.796 177.815 114.96 177.814 114.979C177.792 115.283 177.961 114.892 177.98 114.887C178.213 114.823 178.206 115.283 178.409 115.283C178.433 115.282 178.45 115.057 178.516 115.069C178.958 115.149 179.376 115.365 179.714 115.69C179.766 115.74 179.66 115.875 179.656 115.896C179.601 116.215 179.801 115.838 179.828 115.832C180.036 115.793 180.036 116.181 180.346 115.763C180.946 116.216 181.731 116.291 182.143 117.038C182.148 117.047 182.032 117.222 182.043 117.239C182.173 117.447 182.296 117.142 182.62 116.869C182.702 116.801 182.56 117.273 182.55 117.308C182.516 117.439 182.327 117.69 182.325 117.717C182.31 117.937 182.815 117.039 182.934 117.108C182.937 117.112 182.825 117.266 182.825 117.288C182.825 117.357 182.894 117.31 182.89 117.384C182.882 117.555 182.645 117.997 182.895 117.807C182.927 117.783 183.211 117.271 183.298 117.357C183.333 117.391 183.517 117.494 183.547 117.558C183.577 117.621 183.442 117.759 183.441 117.768C183.442 118.063 183.336 118.119 183.204 118.472C183.071 118.823 183.526 118.074 183.606 118.009C183.686 117.944 183.673 118.181 183.658 118.256C183.643 118.332 183.548 118.412 183.547 118.46C183.542 118.773 183.847 118.137 183.971 118.052C184.26 117.848 183.984 118.445 184.044 118.563C184.061 118.595 184.122 118.457 184.153 118.462C184.276 118.481 184.217 118.687 184.429 118.607C184.463 118.594 184.773 118.333 184.665 118.607C184.649 118.647 184.534 118.764 184.553 118.821C184.581 118.908 184.668 119.012 184.763 119.014C184.834 119.015 184.935 118.759 184.946 118.869C184.95 118.918 184.812 119.011 184.827 119.091C184.841 119.171 184.966 119.253 185.015 119.282C185.065 119.311 185.159 119.13 185.171 119.121C185.239 119.075 185.387 119.062 185.394 119.068C185.811 119.345 185.971 119.899 186.412 120.106C186.447 120.123 186.56 119.941 186.567 119.941C186.724 119.953 186.29 120.332 186.241 120.536C186.502 120.191 186.495 120.285 186.596 120.306C186.645 120.315 186.732 120.17 186.745 120.159C186.957 120.003 186.786 120.288 186.752 120.347C186.63 120.567 186.852 120.37 186.77 120.517C186.689 120.663 186.482 120.808 186.552 120.862C186.67 120.758 186.876 120.402 186.97 120.395C187.327 120.366 187.472 120.904 187.605 121.062C187.737 121.218 187.805 121.24 187.858 121.36C187.954 121.577 188.092 121.299 188.284 121.285C188.472 121.267 187.936 121.78 187.844 121.912C187.753 122.043 187.876 121.933 187.835 122.013C187.794 122.094 187.686 122.143 187.703 122.202C187.721 122.261 188.016 122.146 188.141 122.034C188.406 121.798 188.603 121.478 188.623 121.671C188.624 121.682 188.474 121.809 188.484 121.844C188.57 122.122 188.756 122.305 188.853 122.574C188.866 122.611 188.697 122.749 188.703 122.773C188.763 123.017 188.957 122.699 189.315 122.479C188.929 122.857 188.749 123.14 188.859 123.247C188.925 123.312 189.075 123.129 189.233 123.05C189.28 123.026 189.218 123.189 189.302 123.116C189.58 122.881 189.812 122.542 189.82 122.772C189.82 122.782 189.667 122.91 189.676 122.936C189.738 123.103 190.013 122.842 190.171 122.93C190.295 122.998 190.311 123.335 190.398 123.472C189.974 123.906 190.171 123.904 190.505 123.647C190.564 123.728 190.656 123.786 190.684 123.894C190.693 123.931 190.555 124.041 190.544 124.057C190.38 124.313 190.697 124.055 190.723 124.059C190.998 124.113 190.915 124.466 191.288 124.414C191.301 124.412 191.61 124.125 191.434 124.385C191.421 124.403 191.233 124.484 191.297 124.57C191.362 124.657 191.342 124.959 191.579 124.923C191.637 124.915 191.943 124.739 191.801 124.976C191.782 125.008 191.688 125.085 191.649 125.142C191.526 125.322 191.848 125.043 191.625 125.332C191.401 125.621 191.28 125.885 191.561 125.817C191.569 125.816 191.836 125.607 191.864 125.644C191.909 125.703 191.931 125.827 191.986 125.882C192.012 125.908 192.147 125.746 192.155 125.748C192.41 125.846 192.406 126.114 192.521 126.354C192.543 126.399 192.845 126.304 192.743 126.527C192.632 126.77 191.809 127.395 192.146 127.398C192.282 127.4 193.322 126.602 192.942 127.188C193.29 127.318 193.255 127.793 193.646 127.869C193.664 127.873 193.965 127.663 193.985 127.692C194.014 127.736 193.907 127.871 193.923 127.906C193.989 128.056 194.192 128.065 194.276 128.192C194.308 128.241 194.164 128.343 194.202 128.401C194.24 128.458 194.444 128.338 194.422 128.483C194.406 128.592 194.098 128.959 194.119 129.066C194.471 128.759 194.507 128.813 194.676 128.818C194.708 128.819 194.814 128.693 194.836 128.688C194.927 128.665 194.852 128.784 194.948 128.754C194.971 128.747 195.091 128.642 195.116 128.63C195.34 128.528 195.141 128.845 195.106 128.901C194.975 129.112 195.154 129 195.12 129.103C195.086 129.206 194.944 129.221 194.943 129.307C194.943 129.485 195.075 129.597 195.159 129.705C195.194 129.748 195.33 129.58 195.339 129.583C195.454 129.633 195.358 129.868 195.72 129.638C194.942 130.415 195.845 129.62 195.786 129.888C195.781 129.909 195.399 130.26 195.309 130.273C195.219 130.285 195.293 130.123 195.159 130.149C195.127 130.155 194.699 130.403 194.669 130.413C194.431 130.49 195.007 129.972 195.036 129.94C195.344 129.594 194.876 129.853 194.829 129.855C194.616 129.862 194.623 129.705 194.461 129.699C194.355 129.695 193.969 130.024 193.943 129.972C193.859 129.798 194.342 129.274 193.76 129.543C193.635 129.6 193.246 129.998 193.479 129.603C193.494 129.578 193.723 129.235 193.494 129.357C193.465 129.373 193.345 129.481 193.328 129.482C193.218 129.491 193.285 129.372 193.19 129.359C193.096 129.346 192.97 129.343 192.956 129.245C192.948 129.187 193.13 128.938 193.169 128.871C193.282 128.68 192.976 128.86 193.139 128.657C193.304 128.453 193.65 128.25 193.701 128.057C193.386 128.336 193.06 128.618 192.742 128.896C192.594 128.71 192.539 128.448 192.358 128.277C192.335 128.256 192.19 128.432 192.161 128.414C192.042 128.337 192.08 128.14 191.938 128.081C191.827 128.035 191.571 128.11 191.45 128.069C191.756 127.691 191.523 127.68 191.473 127.563C191.455 127.522 191.551 127.436 191.561 127.385C191.597 127.197 191.323 127.527 191.253 127.55C190.955 127.649 191.65 126.984 191.519 126.88C191.513 126.875 191.068 127.151 191.035 127.162C190.821 127.239 191.154 127.029 191.142 126.961C191.121 126.838 191.159 126.7 190.966 126.716C190.91 126.721 190.62 126.881 190.751 126.661C190.768 126.632 190.894 126.518 190.896 126.506C190.924 126.296 190.538 126.663 190.357 126.735C190.176 126.807 190.361 126.47 190.421 126.379C190.575 126.145 190.537 126.331 190.559 126.315C190.816 126.12 190.718 126.098 190.693 126.034C191.061 125.663 190.976 125.62 190.665 125.968C190.632 126.006 190.701 126.008 190.693 126.034C190.286 126.35 190.172 126.327 190.439 125.916C190.564 125.722 190.786 125.575 190.608 125.53C190.526 125.508 190.289 125.78 190.175 125.804C189.914 125.857 190.02 125.489 189.879 125.421C189.827 125.397 189.725 125.573 189.685 125.561C189.579 125.53 189.623 125.366 189.501 125.351C189.49 125.35 189.36 125.511 189.337 125.492C189.159 125.35 189.114 125.12 188.949 124.954C188.866 124.87 188.637 124.807 188.567 124.708C188.444 124.537 188.467 124.146 188.29 124.079C188.176 124.035 188.053 124.203 187.922 124.272C187.668 124.407 187.881 123.94 187.916 123.869C187.917 123.867 188.021 123.897 188.055 123.784C188.183 123.603 187.918 123.869 187.916 123.869C187.938 123.823 187.822 123.652 187.766 123.654C187.736 123.656 187.613 123.808 187.599 123.805C187.285 123.754 187.059 123.616 186.924 123.374C186.924 123.368 187.074 123.209 187.07 123.197C187.021 123.023 186.772 123.16 186.574 123.197C186.373 123.231 186.332 123.126 186.521 122.793C186.417 122.765 186.421 122.55 186.426 122.422C186.431 122.294 186.147 122.61 186.136 122.612C185.799 122.678 185.862 122.414 185.718 122.245C185.652 122.166 185.444 122.074 185.326 122.038C185.231 122.01 185.251 121.898 185.146 121.895C185.132 121.895 185.023 122.05 185.015 122.053C184.802 122.172 185.126 121.839 185.162 121.762C185.296 121.484 185.361 121.331 185.18 121.368C185.138 121.376 184.664 121.851 184.601 121.852C184.521 121.852 184.687 121.678 184.599 121.683C184.592 121.683 184.502 121.8 184.474 121.77C184.343 121.632 184.22 121.431 184.052 121.323C184.029 121.308 183.917 121.516 183.882 121.497C183.718 121.408 183.563 121.284 183.485 121.092C183.466 121.045 183.583 120.928 183.604 120.883C183.729 120.611 183.411 120.908 183.395 120.907C183.006 120.881 183.02 120.421 182.643 120.391C182.621 120.389 182.258 120.697 182.421 120.334C182.432 120.31 182.599 119.939 182.403 120.139C182.391 120.152 182.31 120.346 182.265 120.292C182.22 120.238 182.056 120.296 182.1 120.055C182.115 119.98 182.269 119.603 182.026 119.828C182.009 119.843 181.518 120.389 181.74 119.94C181.776 119.867 182.059 119.421 181.83 119.598C181.786 119.633 181.755 119.752 181.674 119.788C181.549 119.845 181.532 119.67 181.328 119.822C181.291 119.849 181.049 120.121 181.137 119.858C181.15 119.817 181.254 119.673 181.237 119.641C181.159 119.486 180.97 119.514 180.903 119.337C180.879 119.275 181.04 119.039 181.029 118.945C181.018 118.852 180.958 118.736 180.845 118.823C180.732 118.91 180.573 119.339 180.481 119.331C180.081 119.297 179.893 118.905 179.576 118.714C179.529 118.685 179.501 118.851 179.428 118.821C179.157 118.708 178.655 118.66 178.545 118.247C178.456 117.916 178.772 117.814 178.666 117.652C178.613 117.574 178.35 118.038 178.328 118.048C178.106 118.145 178.074 117.886 177.899 117.901C177.863 117.904 177.824 118.117 177.795 118.118C177.694 118.123 177.632 118.001 177.541 117.99C177.501 117.986 177.458 118.144 177.427 118.121C177.353 118.068 177.301 117.979 177.263 117.808C177.26 117.793 177.369 117.614 177.309 117.587C177.212 117.546 177.121 117.363 176.961 117.481C176.913 117.516 176.814 117.876 176.806 117.607C176.805 117.551 176.939 117.123 176.752 117.474C176.72 117.532 176.448 118.001 176.458 117.657C176.46 117.567 176.497 117.198 176.441 117.244C176.433 117.252 176.41 117.452 176.371 117.463C176.232 117.498 176.107 117.448 175.967 117.483C175.93 117.492 175.937 117.706 175.884 117.714C175.737 117.737 175.578 117.653 175.455 117.566C175.409 117.533 175.473 117.37 175.473 117.351C175.465 117.041 175.36 117.439 175.337 117.46C175.194 117.581 175.132 117.377 175.012 117.411C174.979 117.42 174.974 117.617 174.965 117.633C174.878 117.793 174.974 117.452 174.94 117.408C174.842 117.283 174.712 117.282 174.594 117.294C174.551 117.299 174.572 117.53 174.534 117.531C174.308 117.545 174.082 117.502 173.871 117.363C173.831 117.336 173.869 117.163 173.863 117.123C173.821 116.84 173.708 117.215 173.686 117.25C173.586 117.41 173.559 117.254 173.476 117.279C173.075 117.405 172.594 117.3 172.21 117.25C171.718 117.184 171.31 117.046 170.838 117.137C170.808 117.143 170.862 117.371 170.836 117.379C170.508 117.469 170.163 117.421 169.836 117.538C169.81 117.547 169.882 117.759 169.84 117.781C169.755 117.828 169.639 117.834 169.535 117.78C169.484 117.754 169.514 117.557 169.464 117.535C169.344 117.483 169.229 117.487 169.127 117.541C169.083 117.564 169.192 117.774 169.133 117.787C168.731 117.882 168.338 118.002 167.86 117.811C167.828 117.798 167.701 117.357 167.658 117.456C167.682 117.581 167.716 117.727 167.744 117.86C167.159 118.07 166.521 118.072 165.914 118.218C165.888 118.224 165.998 118.445 165.949 118.459C165.665 118.536 165.4 118.684 165.044 118.54C165.008 118.527 164.898 118.114 164.831 118.202C164.82 118.218 164.707 118.312 164.701 118.411C164.701 118.426 164.784 118.609 164.744 118.627C164.513 118.731 164.237 118.771 163.964 118.732C163.92 118.726 163.895 118.511 163.862 118.504C163.631 118.462 163.467 118.686 163.215 118.568C163.045 118.489 162.975 118.125 162.789 117.807C162.763 117.762 162.68 117.782 162.608 117.584C162.426 117.088 162.278 116.527 162.079 116C162.037 115.886 161.968 116.048 161.939 115.748C161.937 115.728 161.986 115.608 161.974 115.507C161.965 115.438 161.871 115.244 161.871 115.151C161.871 115.058 161.96 115.217 161.974 115.103C161.987 114.988 161.889 114.765 161.974 114.706ZM186.445 121.849C186.521 121.645 186.032 122.211 186.207 122.125C186.216 122.12 186.442 121.859 186.445 121.849ZM192.955 128.067C193.132 127.771 192.728 128.048 192.587 128.271C192.446 128.494 192.902 128.157 192.955 128.067ZM193.808 128.653C193.925 128.394 193.123 129.088 193.364 129.036C193.378 129.033 193.801 128.668 193.808 128.653ZM163.075 117.601C163.071 117.592 163.011 117.602 163.012 117.612C163.058 117.848 163.178 117.827 163.075 117.601ZM194.679 129.242C194.764 129.121 194.573 129.154 194.468 129.305C194.383 129.426 194.574 129.392 194.679 129.242ZM183.843 118.867C183.848 118.857 183.818 118.825 183.783 118.877C183.672 119.047 183.754 119.033 183.843 118.867ZM195.815 130.532C195.677 130.31 196.238 129.62 196.347 129.899C196.367 129.949 196.064 129.997 196.046 130.098C196.014 130.281 196.484 129.984 196.339 130.269C196.313 130.32 195.821 130.546 195.813 130.533C195.814 130.532 195.814 130.532 195.815 130.532ZM186.991 121.134C186.996 121.126 186.956 121.08 186.949 121.087C186.772 121.248 186.851 121.339 186.991 121.134ZM181.901 117.139C181.908 117.119 181.795 117.035 181.78 117.049C181.533 117.356 181.76 117.526 181.901 117.139ZM190.389 123.486C190.603 123.361 190.678 123.395 190.505 123.646C190.47 123.589 190.426 123.543 190.389 123.486Z" fill="black"/>
<path d="M93.4431 113.537C93.2423 113.411 92.9375 113.396 92.6968 113.429C92.6214 113.438 92.6199 113.575 92.5664 113.588C92.4628 113.613 92.3908 113.525 92.2832 113.56C92.2472 113.572 92.2296 113.784 92.1933 113.792C91.9947 113.834 91.8446 113.738 91.6582 113.735C90.7421 113.72 89.8634 113.588 88.9585 113.495C88.6616 113.464 88.2609 113.578 87.9757 113.44C87.9422 113.424 87.997 113.247 87.9931 113.23C87.9295 112.982 87.8969 113.354 87.8194 113.39C87.5128 113.533 87.1993 113.496 86.9467 113.384C86.8388 113.336 87.0087 112.992 86.8629 113.178C86.8529 113.19 86.8514 113.388 86.8174 113.404C86.7403 113.439 86.6133 113.385 86.557 113.392C86.4475 113.407 86.4295 113.403 86.3291 113.391C86.1913 113.376 86.0164 113.451 85.8762 113.389C85.8463 113.375 85.9127 113.181 85.867 113.141C85.8211 113.101 85.6864 113.101 85.6364 113.143C85.5864 113.185 85.5872 113.344 85.5751 113.379C85.4765 113.674 85.372 113.238 85.3521 113.225C85.0067 113.009 84.6736 113.22 84.3373 113.195C84.078 113.175 83.8055 113.08 83.5586 113.08C83.2662 113.082 83.0105 113.184 82.7263 113.162C82.6962 113.16 82.7339 112.924 82.6968 112.921C82.3039 112.891 81.9059 112.923 81.5211 113.098C81.4826 113.115 81.5415 113.32 81.5039 113.35C81.2709 113.53 80.9355 113.961 80.725 113.073C80.5646 113.121 80.3693 113.175 80.2432 113.37C80.1621 113.496 80.2748 113.711 80.1521 113.627C80.1244 113.608 80.137 113.408 80.0967 113.395C79.9263 113.341 79.7565 113.425 79.5826 113.345C79.5471 113.328 79.533 113.152 79.5195 113.121C79.406 112.876 79.3321 113.317 79.309 113.352C79.1262 113.612 78.9597 113.546 78.7612 113.585C78.7153 113.594 78.7299 113.351 78.6839 113.351C78.4459 113.358 78.2057 113.424 78.0026 113.574C77.9576 113.608 78.0445 113.797 78.0253 113.823C77.941 113.936 77.8379 113.567 77.7544 113.67C77.7368 113.691 77.7861 113.858 77.7863 113.877C77.7912 114.182 77.6472 113.781 77.6291 113.775C77.4029 113.696 77.3803 114.156 77.1789 114.142C77.1545 114.14 77.1514 113.914 77.0861 113.922C76.6539 113.969 76.2147 114.158 75.8664 114.453C75.8117 114.499 75.9069 114.642 75.9091 114.663C75.9426 114.985 75.7708 114.594 75.7449 114.585C75.5462 114.529 75.5123 114.917 75.2356 114.477C74.6142 114.88 73.8302 114.889 73.3641 115.597C73.358 115.606 73.4589 115.79 73.4464 115.806C73.2983 116.003 73.1996 115.69 72.9017 115.389C72.8263 115.314 72.9317 115.796 72.9385 115.832C72.9625 115.964 73.1286 116.23 73.1288 116.258C73.1278 116.477 72.6985 115.54 72.5777 115.598C72.5747 115.601 72.673 115.764 72.6711 115.786C72.6659 115.854 72.6022 115.801 72.6004 115.875C72.5968 116.045 72.7946 116.505 72.5604 116.296C72.5302 116.269 72.2904 115.735 72.1951 115.814C72.1579 115.845 71.962 115.934 71.9283 115.994C71.8943 116.054 72.0162 116.203 72.0162 116.213C71.9939 116.505 72.0937 116.569 72.1973 116.931C72.3014 117.292 71.9114 116.507 71.8376 116.435C71.7638 116.364 71.7596 116.599 71.769 116.675C71.7782 116.751 71.8654 116.84 71.8628 116.888C71.8445 117.198 71.5928 116.539 71.4783 116.443C71.2061 116.216 71.429 116.835 71.3574 116.948C71.3378 116.979 71.2885 116.837 71.2567 116.838C71.1312 116.848 71.1714 117.058 70.9708 116.959C70.9382 116.942 70.6539 116.655 70.7396 116.937C70.7522 116.977 70.8565 117.104 70.8337 117.159C70.7998 117.242 70.7078 117.337 70.6142 117.329C70.5451 117.324 70.465 117.061 70.4456 117.169C70.4371 117.217 70.5676 117.321 70.5452 117.4C70.5233 117.479 70.3897 117.551 70.3372 117.577C70.2848 117.602 70.2067 117.413 70.1957 117.404C70.1308 117.352 69.9836 117.327 69.9752 117.333C69.5451 117.568 69.3445 118.102 68.8827 118.275C68.8472 118.288 68.7491 118.097 68.7424 118.097C68.5869 118.093 68.9858 118.509 69.0188 118.716C68.7877 118.349 68.7882 118.443 68.6874 118.454C68.6385 118.459 68.5639 118.307 68.5511 118.295C68.3546 118.121 68.5022 118.418 68.5307 118.48C68.635 118.709 68.4316 118.494 68.5011 118.647C68.5702 118.798 68.7627 118.962 68.6902 119.008C68.5823 118.894 68.4059 118.523 68.3142 118.507C67.9671 118.443 67.7592 118.979 67.6239 119.118C67.4832 119.26 67.4144 119.275 67.3538 119.389C67.2446 119.595 67.1286 119.307 66.9407 119.275C66.7521 119.243 67.2451 119.799 67.3247 119.938C67.4047 120.076 67.2909 119.957 67.3247 120.041C67.3585 120.124 67.4627 120.182 67.4394 120.24C67.4162 120.298 67.1285 120.16 67.0128 120.039C66.7689 119.782 66.5972 119.448 66.5637 119.637C66.562 119.648 66.7001 119.787 66.6874 119.821C66.5832 120.088 66.3861 120.251 66.2717 120.508C66.2562 120.544 66.4133 120.696 66.4058 120.718C66.3285 120.954 66.162 120.621 65.8213 120.374C66.175 120.782 66.3297 121.08 66.2083 121.18C66.1353 121.24 66.0015 121.046 65.8496 120.955C65.8045 120.927 65.8546 121.094 65.7762 121.014C65.5195 120.756 65.3146 120.401 65.2907 120.627C65.29 120.637 65.4315 120.778 65.4202 120.802C65.3476 120.962 65.0951 120.679 64.9328 120.751C64.8055 120.808 64.7656 121.14 64.6703 121.267C65.0591 121.733 64.8591 121.718 64.5456 121.435C64.4788 121.513 64.3792 121.565 64.3454 121.669C64.3332 121.705 64.4625 121.826 64.4716 121.843C64.6153 122.111 64.321 121.827 64.2945 121.829C64.0193 121.858 64.0763 122.215 63.7116 122.131C63.6986 122.128 63.4142 121.817 63.5695 122.089C63.5804 122.107 63.7612 122.204 63.6915 122.284C63.6216 122.364 63.6199 122.664 63.3806 122.614C63.3229 122.602 63.0294 122.404 63.1538 122.651C63.1708 122.684 63.2581 122.768 63.2923 122.828C63.4012 123.017 63.1023 122.713 63.303 123.018C63.5036 123.323 63.6044 123.595 63.3316 123.504C63.3234 123.501 63.074 123.272 63.0435 123.306C62.9952 123.361 62.9649 123.482 62.9067 123.531C62.8787 123.554 62.7564 123.383 62.7491 123.384C62.4873 123.461 62.4809 123.718 62.3375 123.958C62.3099 124.004 62.0186 123.883 62.103 124.112C62.1958 124.362 62.9669 125.051 62.632 125.025C62.4979 125.016 61.5246 124.138 61.8592 124.75C61.5043 124.85 61.5115 125.318 61.1079 125.37C61.09 125.373 60.806 125.14 60.7844 125.167C60.7527 125.208 60.8495 125.351 60.8307 125.385C60.7549 125.527 60.5523 125.519 60.4598 125.639C60.4245 125.685 60.5607 125.798 60.5186 125.852C60.4764 125.906 60.2831 125.77 60.2942 125.915C60.3031 126.025 60.5819 126.414 60.5538 126.518C60.2263 126.185 60.1872 126.236 60.0194 126.227C59.987 126.225 59.8906 126.092 59.8694 126.085C59.7806 126.054 59.8464 126.178 59.7539 126.141C59.7316 126.132 59.62 126.018 59.5954 126.004C59.3826 125.883 59.5515 126.22 59.5831 126.277C59.6981 126.496 59.5292 126.371 59.5555 126.476C59.5818 126.581 59.7219 126.608 59.716 126.693C59.7037 126.869 59.5642 126.97 59.4728 127.07C59.4357 127.11 59.3123 126.932 59.3035 126.934C59.1857 126.975 59.2643 127.216 58.9211 126.958C59.6381 127.793 58.7979 126.931 58.8375 127.201C58.8409 127.223 59.1955 127.602 59.2838 127.621C59.3721 127.641 59.3103 127.474 59.4418 127.51C59.4728 127.519 59.8797 127.8 59.9092 127.813C60.14 127.908 59.6047 127.347 59.5785 127.313C59.2971 126.945 59.7441 127.24 59.7901 127.245C60.0013 127.27 60.0051 127.113 60.1668 127.121C60.2719 127.125 60.632 127.483 60.6613 127.433C60.7595 127.265 60.3183 126.706 60.8762 127.021C60.9955 127.088 61.3539 127.513 61.1503 127.103C61.1374 127.077 60.9344 126.718 61.1526 126.858C61.18 126.876 61.2921 126.993 61.3087 126.996C61.4171 127.013 61.3593 126.89 61.4536 126.885C61.5479 126.88 61.6732 126.887 61.6938 126.792C61.7063 126.734 61.5434 126.473 61.5094 126.404C61.4106 126.204 61.702 126.408 61.554 126.193C61.4057 125.978 61.0765 125.748 61.0399 125.553C61.3322 125.855 61.6359 126.161 61.9314 126.463C62.088 126.294 62.1722 126.028 62.3607 125.877C62.3844 125.859 62.5164 126.045 62.5458 126.029C62.6687 125.964 62.6449 125.766 62.7901 125.718C62.9032 125.683 63.1513 125.779 63.2735 125.749C62.9976 125.349 63.2293 125.358 63.2871 125.246C63.3075 125.206 63.2189 125.113 63.2125 125.062C63.1919 124.871 63.4392 125.221 63.5074 125.25C63.7998 125.369 63.162 124.649 63.2973 124.559C63.3043 124.554 63.7245 124.865 63.7562 124.88C63.9623 124.975 63.6479 124.737 63.6644 124.671C63.6945 124.551 63.6662 124.412 63.8555 124.445C63.9113 124.454 64.1859 124.638 64.072 124.408C64.0571 124.378 63.9409 124.255 63.9396 124.243C63.9266 124.033 64.2822 124.43 64.4562 124.516C64.6301 124.603 64.4713 124.254 64.4187 124.159C64.2828 123.913 64.3068 124.101 64.2866 124.083C64.0465 123.868 64.1448 123.855 64.1742 123.793C63.8368 123.394 63.924 123.36 64.2061 123.731C64.2369 123.771 64.168 123.767 64.1742 123.793C64.5526 124.143 64.6707 124.126 64.4395 123.693C64.3312 123.49 64.1226 123.324 64.3043 123.293C64.3865 123.279 64.6011 123.569 64.7124 123.602C64.9662 123.679 64.8868 123.305 65.0316 123.251C65.084 123.231 65.1728 123.414 65.2129 123.406C65.3198 123.385 65.2879 123.219 65.409 123.215C65.4201 123.215 65.5372 123.386 65.5612 123.369C65.7443 123.246 65.8129 123.017 65.9943 122.862C66.0819 122.787 66.3114 122.746 66.3876 122.654C66.5205 122.496 66.5257 122.107 66.7049 122.058C66.8234 122.023 66.9326 122.199 67.0583 122.279C67.3016 122.433 67.1307 121.947 67.1021 121.874C67.1012 121.871 66.9935 121.894 66.9696 121.778C66.8575 121.586 67.1007 121.874 67.1021 121.874C67.0837 121.826 67.2097 121.668 67.2644 121.676C67.2942 121.68 67.4047 121.841 67.418 121.84C67.7312 121.818 67.9605 121.705 68.1146 121.475C68.116 121.469 67.979 121.299 67.9839 121.287C68.0499 121.116 68.2892 121.271 68.4843 121.324C68.6795 121.377 68.7267 121.276 68.5654 120.93C68.6693 120.912 68.6808 120.699 68.685 120.573C68.6892 120.446 68.9455 120.785 68.9558 120.788C69.2799 120.887 69.2455 120.613 69.406 120.455C69.4823 120.379 69.689 120.312 69.8081 120.287C69.9026 120.268 69.891 120.156 69.9941 120.163C70.008 120.164 70.1044 120.327 70.1112 120.331C70.3121 120.469 70.0185 120.109 69.9881 120.03C69.8782 119.742 69.8217 119.587 70.0022 119.637C70.0436 119.649 70.4771 120.161 70.5395 120.167C70.6205 120.173 70.4696 119.986 70.5578 119.998C70.5652 119.998 70.6445 120.123 70.6757 120.095C70.8215 119.966 70.9507 119.782 71.1246 119.691C71.148 119.678 71.2428 119.895 71.2785 119.879C71.4428 119.81 71.6139 119.695 71.7099 119.51C71.7333 119.464 71.6257 119.337 71.609 119.291C71.509 119.008 71.7993 119.332 71.8148 119.333C72.1982 119.345 72.2139 118.89 72.5992 118.888C72.621 118.888 72.9605 119.224 72.827 118.85C72.818 118.825 72.6814 118.442 72.8588 118.659C72.8698 118.672 72.9344 118.872 72.9822 118.823C73.0304 118.773 73.1869 118.847 73.1609 118.604C73.153 118.527 73.0272 118.141 73.2517 118.385C73.268 118.402 73.713 118.986 73.53 118.52C73.4999 118.443 73.2559 117.975 73.4698 118.171C73.5108 118.209 73.5315 118.33 73.6104 118.373C73.7311 118.439 73.7626 118.266 73.951 118.436C73.9844 118.466 74.2019 118.759 74.1354 118.49C74.125 118.447 74.0342 118.296 74.0527 118.265C74.1405 118.119 74.3254 118.163 74.4095 117.991C74.4393 117.93 74.2979 117.682 74.3169 117.59C74.3358 117.498 74.4081 117.385 74.5127 117.482C74.6169 117.578 74.7418 118.019 74.8327 118.019C75.2223 118.022 75.4561 117.64 75.7813 117.477C75.8293 117.453 75.8448 117.62 75.9189 117.596C76.1913 117.506 76.712 117.491 76.8447 117.09C76.9553 116.766 76.6498 116.64 76.7659 116.487C76.8246 116.413 77.0552 116.894 77.0766 116.905C77.2932 117.017 77.3463 116.76 77.5183 116.787C77.5535 116.793 77.5785 117.008 77.6076 117.011C77.7073 117.022 77.7778 116.905 77.8688 116.9C77.9101 116.899 77.9425 117.059 77.9753 117.038C78.0542 116.989 78.1135 116.904 78.1631 116.735C78.1678 116.72 78.0688 116.534 78.1321 116.512C78.234 116.476 78.3332 116.299 78.487 116.426C78.5329 116.464 78.6103 116.829 78.6341 116.561C78.6392 116.505 78.5292 116.07 78.6962 116.431C78.7255 116.491 78.9736 116.974 78.9839 116.63C78.9866 116.539 78.9705 116.169 79.0249 116.218C79.0324 116.226 79.0446 116.428 79.0839 116.44C79.2215 116.482 79.3499 116.439 79.489 116.48C79.5261 116.492 79.5073 116.705 79.561 116.715C79.7082 116.746 79.8753 116.668 80.0048 116.586C80.0525 116.555 79.9955 116.39 79.9967 116.371C80.0186 116.061 80.106 116.464 80.1283 116.485C80.2685 116.613 80.3401 116.411 80.46 116.449C80.4929 116.459 80.4907 116.656 80.4988 116.673C80.5803 116.836 80.4967 116.491 80.5339 116.449C80.6383 116.328 80.77 116.332 80.8893 116.347C80.9331 116.353 80.903 116.583 80.9417 116.586C81.171 116.607 81.4041 116.571 81.6213 116.437C81.6623 116.411 81.6286 116.238 81.6357 116.197C81.6858 115.916 81.7906 116.293 81.8117 116.329C81.91 116.491 81.9414 116.336 82.0248 116.363C82.4303 116.497 82.9222 116.399 83.3105 116.352C83.8103 116.29 84.2199 116.152 84.6989 116.241C84.7295 116.246 84.6762 116.475 84.7021 116.482C85.0384 116.571 85.3793 116.52 85.7138 116.633C85.7412 116.641 85.6713 116.854 85.714 116.876C85.8013 116.922 85.9194 116.926 86.0233 116.87C86.0731 116.843 86.0403 116.647 86.0901 116.624C86.2063 116.57 86.3232 116.572 86.4275 116.624C86.4718 116.647 86.3661 116.858 86.4261 116.87C86.8364 116.959 87.23 117.069 87.7066 116.865C87.7393 116.851 87.854 116.407 87.8994 116.505C87.8791 116.631 87.8494 116.778 87.8247 116.911C88.4142 117.104 89.0562 117.086 89.6667 117.21C89.6926 117.216 89.5905 117.44 89.6403 117.452C89.9282 117.519 90.1962 117.656 90.5471 117.499C90.5822 117.484 90.6758 117.067 90.7459 117.152C90.7581 117.168 90.8741 117.258 90.8839 117.356C90.8849 117.371 90.8095 117.557 90.85 117.574C91.085 117.668 91.3596 117.697 91.6306 117.646C91.6751 117.638 91.691 117.422 91.7232 117.414C91.9518 117.362 92.1243 117.579 92.3702 117.45C92.5354 117.363 92.5904 116.996 92.761 116.67C92.7851 116.624 92.8684 116.64 92.9319 116.44C93.0919 115.936 93.2152 115.369 93.3904 114.834C93.428 114.718 93.5025 114.876 93.5194 114.576C93.5203 114.555 93.4669 114.438 93.4749 114.337C93.4803 114.267 93.5655 114.069 93.5618 113.976C93.5581 113.884 93.4766 114.047 93.4585 113.934C93.4407 113.819 93.5293 113.592 93.4431 113.537ZM68.71 120.003C68.6533 119.793 69.0929 120.398 68.9246 120.297C68.9159 120.292 68.7127 120.013 68.71 120.003ZM61.784 125.62C61.6301 125.312 62.0108 125.619 62.1346 125.853C62.2585 126.085 61.8306 125.713 61.784 125.62ZM60.8918 126.135C60.7939 125.868 61.5395 126.622 61.3042 126.551C61.2908 126.547 60.8974 126.15 60.8918 126.135ZM92.4687 116.478C92.4724 116.469 92.533 116.476 92.5316 116.486C92.4964 116.723 92.3758 116.708 92.4687 116.478ZM59.9826 126.649C59.9076 126.522 60.0986 126.567 60.1906 126.726C60.2644 126.855 60.0758 126.808 59.9826 126.649ZM71.5324 117.268C71.528 117.258 71.5613 117.228 71.5911 117.283C71.6871 117.462 71.6065 117.442 71.5324 117.268ZM58.7633 127.838C58.916 127.629 58.4075 126.899 58.2793 127.167C58.2561 127.215 58.554 127.287 58.5642 127.389C58.5828 127.574 58.1379 127.241 58.261 127.535C58.2839 127.588 58.7561 127.851 58.7645 127.839C58.7641 127.839 58.7637 127.838 58.7633 127.838ZM68.2272 119.244C68.2228 119.235 68.2672 119.192 68.274 119.199C68.4375 119.375 68.3486 119.461 68.2272 119.244ZM73.5976 115.717C73.5921 115.696 73.7138 115.621 73.7258 115.637C73.9475 115.964 73.7063 116.115 73.5976 115.717ZM64.6787 121.281C64.4751 121.14 64.3949 121.17 64.5456 121.435C64.5867 121.38 64.6367 121.335 64.6787 121.281Z" fill="black"/>
<path d="M112.28 177.562C107.079 183.029 107.707 186.626 109.003 188.883L114.153 190.694C116.563 187.873 118.367 187.524 120.707 190.694H123.516C124.921 187.977 127.647 187.592 129.602 190.694L134.284 188.883C136.678 187.117 138.997 183.47 132.411 177.562" stroke="black"/>
<path d="M114.652 190.65C116.811 188.119 118.732 188.438 120.27 190.695L114.652 190.65Z" fill="#3F3D3D"/>
<path d="M124.015 190.694C125.42 187.977 127.627 188.438 129.165 190.694L124.015 190.694Z" fill="#3F3D3D"/>
<g filter="url(#filter2_f_675_1908)">
<ellipse cx="21.1662" cy="20.4642" rx="21.1662" ry="20.4642" transform="matrix(0.889276 0.457371 -0.481709 0.876331 173.693 161.259)" fill="#D5A26E"/>
</g>
<g filter="url(#filter3_f_675_1908)">
<ellipse cx="9.93892" cy="13.3713" rx="9.93892" ry="13.3713" transform="matrix(0.943249 -0.332086 0.352171 0.935935 62.2314 173.553)" fill="#D5A26E"/>
</g>
<path d="M228.452 170.761C239.5 149.625 224.707 150.383 223.303 159.892C221.898 169.402 226.523 164.962 219.557 174.384" stroke="black"/>
<path d="M111.843 177.562C117.71 172.545 118.843 171.371 121.206 163.071" stroke="black"/>
<path d="M102.794 211.788C120.784 208.846 126.253 207.576 145.143 210.123C128.631 226.449 120.164 228.247 102.794 211.788Z" fill="#9C5C65" stroke="black" stroke-width="0.5"/>
<path d="M145.588 209.859C122.505 226.568 118.445 226.388 102.794 211.788C108.024 220.272 111.326 224.588 120 225.405C128.673 226.221 136.137 222.155 145.588 209.859Z" fill="#B06E5A" stroke="black" stroke-width="0.5"/>
<path d="M144.693 209.844C126.44 205.301 129.263 204.649 121.097 206.476C121.097 206.476 117.164 205.635 113.668 206.476C110.172 207.318 102.744 211.528 102.744 211.528C117.629 208.899 122.689 207.621 144.693 209.844Z" fill="#B06E5A"/>
<path d="M97.5 210.686L102.744 211.528M102.744 211.528C117.629 208.899 122.689 207.621 144.693 209.844M102.744 211.528C102.744 211.528 110.172 207.318 113.668 206.476C117.164 205.635 121.097 206.476 121.097 206.476C129.263 204.649 126.44 205.301 144.693 209.844M144.693 209.844L149.5 208.16" stroke="black" stroke-width="0.5"/>
<path d="M81.5003 225.764C42.0003 254.264 50.2393 275.5 50.3043 313.764C44.8043 339.264 44.7359 344.906 45 365.264" stroke="#704C38"/>
<defs>
<filter id="filter0_f_675_1908" x="74.4003" y="283.864" width="11.8" height="8.8" filterUnits="userSpaceOnUse" color-interpolation-filters="sRGB">
<feFlood flood-opacity="0" result="BackgroundImageFix"/>
<feBlend mode="normal" in="SourceGraphic" in2="BackgroundImageFix" result="shape"/>
<feGaussianBlur stdDeviation="0.95" result="effect1_foregroundBlur_675_1908"/>
</filter>
<filter id="filter1_f_675_1908" x="136.4" y="285.864" width="11.8" height="9.8" filterUnits="userSpaceOnUse" color-interpolation-filters="sRGB">
<feFlood flood-opacity="0" result="BackgroundImageFix"/>
<feBlend mode="normal" in="SourceGraphic" in2="BackgroundImageFix" result="shape"/>
<feGaussianBlur stdDeviation="0.95" result="effect1_foregroundBlur_675_1908"/>
</filter>
<filter id="filter2_f_675_1908" x="155.406" y="162.49" width="54.5042" height="52.7668" filterUnits="userSpaceOnUse" color-interpolation-filters="sRGB">
<feFlood flood-opacity="0" result="BackgroundImageFix"/>
<feBlend mode="normal" in="SourceGraphic" in2="BackgroundImageFix" result="shape"/>
<feGaussianBlur stdDeviation="3" result="effect1_foregroundBlur_675_1908"/>
</filter>
<filter id="filter3_f_675_1908" x="59.822" y="163.821" width="32.9866" height="37.8916" filterUnits="userSpaceOnUse" color-interpolation-filters="sRGB">
<feFlood flood-opacity="0" result="BackgroundImageFix"/>
<feBlend mode="normal" in="SourceGraphic" in2="BackgroundImageFix" result="shape"/>
<feGaussianBlur stdDeviation="3" result="effect1_foregroundBlur_675_1908"/>
</filter>
</defs>
</svg>
